<svg id="svg" version="1.1" width="400" height="400" viewBox="0 0 400 400" xmlns="http://www.w3.org/2000/svg" xmlns:xlink="http://www.w3.org/1999/xlink" ><g id="svgg"><path id="path0" d="M198.400 85.697 C 197.190 86.375,196.140 87.081,196.067 87.265 C 195.993 87.449,195.588 87.600,195.167 87.600 C 194.745 87.600,194.045 87.955,193.610 88.390 C 193.176 88.824,192.388 89.288,191.860 89.421 C 191.331 89.553,190.291 90.272,189.549 91.018 C 188.807 91.764,188.040 92.380,187.845 92.387 C 187.060 92.415,176.000 103.504,176.000 104.262 C 176.000 104.451,175.370 105.184,174.600 105.890 C 173.830 106.597,173.200 107.453,173.200 107.792 C 173.200 108.131,172.840 108.716,172.400 109.093 C 171.960 109.470,171.600 109.998,171.600 110.266 C 171.600 110.535,171.253 110.998,170.828 111.295 C 170.404 111.593,169.926 112.368,169.767 113.018 C 169.607 113.668,169.280 114.332,169.038 114.494 C 168.783 114.665,168.956 114.790,169.451 114.794 C 169.919 114.797,170.510 115.050,170.764 115.357 C 171.018 115.663,172.075 116.039,173.113 116.192 C 174.151 116.346,175.270 116.704,175.600 116.988 C 175.930 117.272,177.280 117.632,178.600 117.788 C 179.920 117.944,181.540 118.312,182.200 118.606 C 182.860 118.901,185.933 119.327,189.028 119.554 C 192.124 119.780,195.151 120.153,195.754 120.383 C 197.237 120.946,199.218 120.908,202.800 120.245 C 204.450 119.940,207.848 119.568,210.352 119.420 C 213.054 119.260,215.248 118.930,215.752 118.608 C 216.218 118.310,217.810 117.941,219.289 117.788 C 220.767 117.635,222.175 117.271,222.417 116.980 C 222.658 116.689,223.822 116.330,225.002 116.182 C 226.182 116.035,227.237 115.681,227.347 115.395 C 227.456 115.109,228.143 114.753,228.873 114.604 C 232.323 113.898,233.148 112.689,231.143 111.277 C 230.734 110.990,230.400 110.405,230.400 109.977 C 230.400 109.550,230.216 109.200,229.991 109.200 C 229.767 109.200,229.362 108.714,229.091 108.119 C 228.821 107.524,228.240 106.642,227.800 106.157 C 226.139 104.328,224.800 102.692,224.800 102.492 C 224.800 102.378,224.438 101.905,223.994 101.442 C 223.551 100.979,222.502 99.880,221.662 99.000 C 219.582 96.821,216.354 94.000,215.939 94.000 C 215.753 94.000,215.600 93.742,215.600 93.427 C 215.600 93.112,215.235 92.738,214.789 92.597 C 214.343 92.455,213.308 91.715,212.489 90.952 C 211.670 90.190,210.505 89.461,209.900 89.333 C 209.295 89.205,208.800 88.872,208.800 88.593 C 208.800 88.315,208.306 87.963,207.702 87.811 C 207.098 87.660,206.407 87.372,206.166 87.172 C 205.477 86.600,201.249 84.397,200.908 84.431 C 200.738 84.448,199.610 85.018,198.400 85.697 M238.151 135.739 C 237.245 135.993,236.255 136.409,235.951 136.664 C 235.648 136.920,234.680 137.257,233.800 137.415 C 232.920 137.572,231.930 137.932,231.600 138.214 C 231.270 138.496,229.970 138.853,228.712 139.008 C 227.454 139.163,226.227 139.526,225.987 139.815 C 225.747 140.105,224.347 140.456,222.875 140.597 C 221.404 140.737,219.840 141.010,219.400 141.203 C 218.576 141.565,217.704 141.701,211.200 142.478 C 204.463 143.283,184.779 142.954,182.600 142.000 C 181.805 141.652,181.344 141.570,175.600 140.758 C 173.950 140.524,172.330 140.103,172.000 139.821 C 171.670 139.539,170.513 139.193,169.429 139.052 C 168.345 138.911,167.175 138.551,166.829 138.251 C 166.483 137.952,165.395 137.584,164.410 137.434 C 163.426 137.284,162.300 136.872,161.908 136.517 C 161.516 136.162,161.106 135.961,160.996 136.071 C 160.511 136.555,159.874 153.358,160.335 153.512 C 160.591 153.597,160.800 153.922,160.800 154.233 C 160.800 154.545,161.056 154.800,161.369 154.800 C 161.682 154.800,162.473 155.250,163.127 155.800 C 163.781 156.350,164.605 156.800,164.958 156.800 C 165.311 156.800,165.600 156.980,165.600 157.200 C 165.600 157.420,165.836 157.600,166.125 157.600 C 166.413 157.600,167.036 157.960,167.508 158.400 C 167.980 158.840,168.620 159.200,168.929 159.200 C 169.239 159.200,169.921 159.537,170.446 159.948 C 170.971 160.359,171.973 160.821,172.672 160.974 C 173.372 161.126,174.144 161.491,174.387 161.784 C 174.630 162.077,175.434 162.430,176.174 162.569 C 176.914 162.708,177.723 163.066,177.972 163.366 C 178.220 163.666,179.409 164.034,180.612 164.184 C 181.816 164.335,183.025 164.679,183.300 164.949 C 183.575 165.219,185.308 165.638,187.151 165.879 C 188.994 166.120,190.642 166.544,190.813 166.822 C 191.333 167.662,210.623 167.564,212.428 166.711 C 213.183 166.355,215.094 165.937,216.676 165.782 C 218.361 165.618,219.631 165.296,219.742 165.006 C 219.847 164.734,221.011 164.389,222.329 164.240 C 223.803 164.073,224.809 163.754,224.940 163.412 C 225.057 163.106,225.962 162.735,226.950 162.587 C 227.938 162.438,228.836 162.083,228.946 161.796 C 229.056 161.510,229.743 161.146,230.473 160.988 C 231.203 160.830,232.278 160.363,232.862 159.950 C 233.446 159.538,234.211 159.200,234.562 159.200 C 234.913 159.200,235.200 159.054,235.200 158.875 C 235.200 158.696,235.830 158.302,236.600 158.000 C 237.370 157.698,238.000 157.333,238.000 157.190 C 238.000 157.046,238.436 156.730,238.969 156.487 C 240.565 155.760,241.600 154.677,241.600 153.735 C 241.600 153.247,241.780 152.736,242.000 152.600 C 242.484 152.301,242.540 147.334,242.063 147.039 C 241.877 146.924,241.607 144.359,241.462 141.338 C 241.285 137.636,241.036 135.743,240.699 135.529 C 240.118 135.160,240.266 135.148,238.151 135.739 M93.902 148.955 C 93.519 149.246,91.908 149.605,90.323 149.753 C 88.737 149.900,87.161 150.270,86.820 150.575 C 86.479 150.879,85.351 151.254,84.313 151.408 C 83.275 151.561,82.222 151.933,81.973 152.233 C 81.724 152.533,80.906 152.894,80.156 153.035 C 79.129 153.227,78.729 153.544,78.535 154.317 C 78.112 156.001,78.747 172.920,79.244 173.227 C 79.484 173.376,79.865 175.095,80.090 177.049 C 80.324 179.084,80.714 180.725,81.003 180.894 C 81.280 181.055,81.635 182.225,81.792 183.494 C 81.949 184.762,82.216 185.980,82.386 186.200 C 82.557 186.420,82.912 187.320,83.177 188.200 C 83.441 189.080,83.986 190.520,84.387 191.400 C 85.841 194.589,86.431 195.991,86.444 196.293 C 86.451 196.462,86.700 196.870,86.997 197.200 C 87.295 197.530,87.658 198.282,87.805 198.871 C 87.952 199.460,88.303 200.031,88.585 200.139 C 88.866 200.247,89.225 200.845,89.381 201.468 C 89.537 202.090,90.010 202.922,90.432 203.316 C 90.855 203.709,91.200 204.294,91.200 204.616 C 91.200 204.937,91.568 205.605,92.019 206.100 C 93.570 207.806,93.875 208.204,94.623 209.500 C 95.035 210.215,95.514 210.800,95.686 210.800 C 95.859 210.800,96.000 210.978,96.000 211.195 C 96.000 212.499,107.527 223.875,111.800 226.790 C 112.900 227.540,113.860 228.299,113.933 228.477 C 114.007 228.655,114.320 228.800,114.630 228.800 C 114.940 228.800,115.418 229.160,115.693 229.600 C 115.968 230.040,116.474 230.400,116.819 230.400 C 117.163 230.400,118.055 230.850,118.800 231.400 C 119.545 231.950,120.396 232.400,120.690 232.400 C 120.984 232.400,121.321 232.650,121.438 232.955 C 121.555 233.260,122.158 233.612,122.777 233.735 C 123.397 233.859,124.182 234.240,124.523 234.580 C 124.864 234.921,125.321 235.200,125.539 235.200 C 125.756 235.200,126.830 235.650,127.925 236.200 C 129.020 236.750,130.295 237.200,130.758 237.200 C 131.221 237.200,131.600 237.347,131.600 237.528 C 131.600 237.708,132.511 238.104,133.625 238.407 C 134.739 238.710,135.740 239.103,135.849 239.279 C 135.958 239.456,136.566 239.600,137.200 239.600 C 137.834 239.600,138.464 239.780,138.600 240.000 C 138.736 240.220,139.276 240.400,139.800 240.400 C 140.324 240.400,140.851 240.558,140.970 240.752 C 141.090 240.946,142.766 241.233,144.694 241.391 C 146.622 241.548,148.470 241.908,148.800 242.191 C 149.198 242.532,151.515 242.799,155.697 242.987 L 161.994 243.269 162.387 242.234 C 162.603 241.666,163.055 241.200,163.390 241.200 C 163.726 241.200,164.002 240.885,164.004 240.500 C 164.011 239.342,171.559 232.000,172.743 232.000 C 172.994 232.000,173.200 231.730,173.200 231.400 C 173.200 231.070,173.457 230.800,173.771 230.800 C 174.086 230.800,174.584 230.558,174.880 230.263 C 175.175 229.968,175.813 229.514,176.297 229.255 C 177.223 228.760,176.527 227.200,175.381 227.200 C 175.138 227.200,174.517 226.750,174.000 226.200 C 173.483 225.650,172.847 225.200,172.585 225.200 C 171.188 225.200,155.207 209.176,155.202 207.770 C 155.201 207.533,154.750 206.917,154.200 206.400 C 153.650 205.883,153.200 205.262,153.200 205.019 C 153.200 204.776,152.840 204.270,152.400 203.893 C 151.960 203.516,151.600 202.936,151.600 202.604 C 151.600 202.272,151.432 202.000,151.227 202.000 C 151.022 202.000,150.740 201.641,150.601 201.202 C 150.462 200.764,150.134 200.172,149.874 199.887 C 149.114 199.057,148.400 197.660,148.400 197.005 C 148.400 196.672,148.265 196.399,148.100 196.397 C 147.741 196.393,146.800 194.456,146.800 193.720 C 146.800 193.434,146.654 193.200,146.475 193.200 C 146.296 193.200,145.902 192.570,145.600 191.800 C 145.298 191.030,144.920 190.400,144.761 190.400 C 144.601 190.400,144.350 189.690,144.204 188.823 C 144.057 187.956,143.690 187.041,143.388 186.790 C 143.086 186.540,142.718 185.525,142.569 184.535 C 142.421 183.546,142.071 182.649,141.793 182.542 C 141.514 182.435,141.160 181.324,141.006 180.074 C 140.852 178.823,140.482 177.526,140.184 177.191 C 139.885 176.856,139.518 175.326,139.368 173.791 C 139.218 172.256,138.872 170.730,138.598 170.400 C 138.325 170.070,138.011 168.613,137.902 167.163 L 137.702 164.526 134.951 161.849 C 133.438 160.376,131.795 159.068,131.300 158.942 C 130.805 158.816,130.400 158.463,130.400 158.157 C 130.400 157.850,130.143 157.600,129.829 157.600 C 129.514 157.600,129.019 157.364,128.729 157.075 C 128.438 156.787,127.615 156.293,126.900 155.978 C 126.185 155.663,125.600 155.269,125.600 155.102 C 125.600 154.936,125.403 154.800,125.162 154.800 C 124.921 154.800,124.246 154.466,123.662 154.058 C 123.078 153.650,122.118 153.200,121.528 153.058 C 120.938 152.915,120.201 152.544,119.890 152.233 C 119.579 151.922,118.493 151.543,117.475 151.390 C 116.458 151.238,115.427 150.874,115.185 150.582 C 114.929 150.274,113.411 149.934,111.578 149.774 C 109.686 149.609,108.230 149.277,107.958 148.949 C 107.315 148.175,94.923 148.180,93.902 148.955 M294.125 148.971 C 293.849 149.286,292.310 149.631,290.441 149.796 C 288.484 149.970,287.050 150.299,286.767 150.640 C 286.511 150.948,285.953 151.200,285.525 151.200 C 285.098 151.200,283.765 151.650,282.563 152.200 C 281.360 152.750,280.157 153.204,279.888 153.209 C 279.620 153.214,278.950 153.570,278.400 154.000 C 277.850 154.430,277.175 154.786,276.900 154.791 C 276.625 154.796,276.400 154.960,276.400 155.157 C 276.400 155.353,275.995 155.615,275.500 155.740 C 274.633 155.959,273.441 156.737,272.039 158.000 C 271.673 158.330,270.584 159.140,269.619 159.800 C 265.643 162.521,264.315 164.296,264.097 167.184 C 263.988 168.623,263.675 170.070,263.402 170.400 C 263.128 170.730,262.784 172.232,262.637 173.737 C 262.490 175.242,262.118 176.862,261.809 177.337 C 261.500 177.812,261.124 179.145,260.972 180.300 C 260.821 181.455,260.584 182.400,260.446 182.400 C 260.153 182.400,259.200 185.303,259.200 186.194 C 259.200 186.527,259.020 186.800,258.800 186.800 C 258.580 186.800,258.400 187.149,258.400 187.576 C 258.400 188.003,258.220 188.464,258.000 188.600 C 257.780 188.736,257.600 189.197,257.600 189.624 C 257.600 190.051,257.434 190.400,257.232 190.400 C 257.029 190.400,256.742 190.952,256.594 191.627 C 256.446 192.302,256.085 192.946,255.792 193.058 C 255.499 193.171,255.140 193.969,254.995 194.831 C 254.845 195.716,254.503 196.400,254.209 196.400 C 253.923 196.400,253.569 197.039,253.422 197.821 C 253.276 198.603,252.903 199.339,252.593 199.458 C 252.284 199.577,251.908 200.059,251.759 200.529 C 251.457 201.480,249.967 203.726,249.500 203.933 C 249.335 204.007,249.200 204.260,249.200 204.496 C 249.200 205.051,246.266 208.943,244.314 210.979 C 243.481 211.847,242.800 212.705,242.800 212.886 C 242.800 213.066,241.990 213.990,241.000 214.938 C 240.010 215.887,239.200 216.874,239.200 217.131 C 239.200 217.389,238.939 217.600,238.620 217.600 C 238.301 217.600,237.896 217.849,237.720 218.153 C 237.544 218.457,236.297 219.624,234.950 220.746 C 233.602 221.868,231.918 223.329,231.207 223.993 C 230.497 224.657,229.684 225.200,229.400 225.200 C 229.117 225.200,228.781 225.472,228.654 225.803 C 228.527 226.135,227.925 226.630,227.317 226.903 C 225.191 227.858,224.625 228.737,225.794 229.270 C 226.347 229.522,226.800 229.860,226.800 230.021 C 226.800 230.182,227.250 230.426,227.800 230.564 C 228.350 230.702,228.800 231.082,228.800 231.408 C 228.800 231.733,229.006 232.000,229.257 232.000 C 230.184 232.000,236.492 237.824,237.923 240.000 C 238.285 240.550,238.810 241.144,239.090 241.320 C 239.371 241.496,239.600 241.882,239.600 242.177 C 239.600 243.383,251.517 243.395,253.435 242.191 C 253.895 241.902,255.744 241.538,257.544 241.381 C 259.345 241.224,260.914 240.939,261.032 240.748 C 261.151 240.556,261.676 240.400,262.200 240.400 C 262.724 240.400,263.264 240.220,263.400 240.000 C 263.536 239.780,264.166 239.600,264.800 239.600 C 265.434 239.600,266.064 239.420,266.200 239.200 C 266.336 238.980,266.876 238.800,267.400 238.800 C 267.924 238.800,268.464 238.620,268.600 238.400 C 268.736 238.180,269.287 238.000,269.824 238.000 C 270.361 238.000,270.800 237.820,270.800 237.600 C 270.800 237.380,271.149 237.200,271.576 237.200 C 272.003 237.200,272.466 237.017,272.604 236.793 C 272.742 236.570,272.989 236.470,273.153 236.571 C 273.316 236.672,273.979 236.406,274.625 235.980 C 275.271 235.554,276.042 235.204,276.337 235.203 C 276.632 235.201,277.331 234.840,277.891 234.400 C 278.450 233.960,279.155 233.600,279.458 233.600 C 279.761 233.600,280.872 232.993,281.927 232.252 C 282.982 231.510,284.285 230.764,284.823 230.594 C 285.360 230.424,286.035 229.951,286.323 229.543 C 286.610 229.134,287.105 228.800,287.423 228.800 C 287.740 228.800,288.000 228.620,288.000 228.400 C 288.000 228.180,288.270 228.000,288.600 228.000 C 288.930 228.000,289.200 227.820,289.200 227.600 C 289.200 227.380,289.425 227.198,289.700 227.196 C 291.233 227.183,307.051 211.342,307.529 209.341 C 307.600 209.044,307.825 208.800,308.029 208.800 C 308.233 208.800,308.400 208.612,308.400 208.383 C 308.400 207.968,308.782 207.424,310.090 205.982 C 310.469 205.563,310.894 204.766,311.033 204.210 C 311.173 203.655,311.445 203.200,311.638 203.200 C 311.831 203.200,312.243 202.592,312.554 201.849 C 312.864 201.106,313.303 200.384,313.528 200.244 C 313.754 200.105,314.059 199.441,314.207 198.768 C 314.355 198.096,314.711 197.456,314.998 197.345 C 315.286 197.235,315.634 196.545,315.771 195.812 C 315.909 195.080,316.286 194.260,316.611 193.991 C 316.935 193.722,317.200 193.236,317.200 192.911 C 317.200 192.356,318.015 190.257,318.834 188.705 C 319.035 188.323,319.200 187.659,319.200 187.229 C 319.200 186.799,319.380 186.336,319.600 186.200 C 319.820 186.064,320.000 185.434,320.000 184.800 C 320.000 184.166,320.180 183.536,320.400 183.400 C 320.620 183.264,320.800 182.638,320.800 182.010 C 320.800 181.381,320.969 180.807,321.177 180.733 C 321.384 180.660,321.677 179.160,321.828 177.400 C 321.981 175.624,322.350 173.916,322.658 173.562 C 323.264 172.864,323.960 156.289,323.465 154.318 C 323.271 153.544,322.871 153.227,321.844 153.035 C 321.094 152.894,320.276 152.533,320.027 152.233 C 319.778 151.933,318.725 151.561,317.687 151.408 C 316.649 151.254,315.526 150.884,315.191 150.585 C 314.856 150.286,313.326 149.921,311.791 149.774 C 310.256 149.627,308.601 149.258,308.114 148.954 C 306.860 148.170,294.815 148.185,294.125 148.971 M167.200 184.055 C 167.200 184.245,167.380 184.400,167.600 184.400 C 167.820 184.400,168.000 184.736,168.000 185.146 C 168.000 185.556,168.335 186.321,168.745 186.846 C 169.155 187.371,169.631 188.250,169.802 188.800 C 169.974 189.350,170.449 190.035,170.857 190.323 C 171.266 190.610,171.600 191.065,171.600 191.334 C 171.600 191.602,171.960 192.130,172.400 192.507 C 172.840 192.884,173.200 193.464,173.200 193.796 C 173.200 194.128,176.080 197.280,179.600 200.800 C 183.120 204.320,186.272 207.200,186.604 207.200 C 186.936 207.200,187.516 207.560,187.893 208.000 C 188.270 208.440,188.798 208.800,189.066 208.800 C 189.335 208.800,189.790 209.134,190.077 209.543 C 190.365 209.951,191.050 210.426,191.600 210.598 C 192.150 210.769,193.029 211.245,193.554 211.655 C 194.079 212.065,194.824 212.400,195.211 212.400 C 195.598 212.400,196.014 212.660,196.136 212.978 C 196.258 213.296,196.999 213.676,197.783 213.823 C 198.567 213.970,199.307 214.250,199.428 214.445 C 199.718 214.915,202.689 214.903,202.981 214.431 C 203.106 214.228,203.735 213.946,204.377 213.805 C 205.019 213.664,205.750 213.302,206.000 213.000 C 206.250 212.698,206.968 212.339,207.594 212.201 C 208.221 212.064,208.826 211.709,208.940 211.413 C 209.053 211.117,209.700 210.754,210.376 210.605 C 211.053 210.457,211.791 209.990,212.017 209.567 C 212.243 209.145,212.782 208.800,213.214 208.800 C 213.646 208.800,214.000 208.530,214.000 208.200 C 214.000 207.870,214.241 207.600,214.537 207.600 C 215.589 207.600,227.634 196.020,229.018 193.677 C 229.433 192.975,229.914 192.400,230.086 192.400 C 230.259 192.400,230.400 192.050,230.400 191.623 C 230.400 191.195,230.747 190.602,231.172 190.305 C 231.596 190.007,232.069 189.263,232.223 188.650 C 232.377 188.037,232.739 187.445,233.027 187.334 C 233.315 187.224,233.675 186.563,233.826 185.867 C 233.977 185.170,234.303 184.468,234.550 184.306 C 234.839 184.117,234.765 184.010,234.343 184.006 C 233.981 184.003,233.586 184.260,233.464 184.578 C 233.342 184.896,232.558 185.269,231.721 185.407 C 230.884 185.545,229.840 185.806,229.400 185.988 C 227.801 186.650,226.151 187.124,223.800 187.599 C 222.480 187.866,221.040 188.236,220.600 188.421 C 220.160 188.606,218.945 188.858,217.900 188.979 C 213.144 189.532,212.176 189.701,211.820 190.039 C 211.287 190.545,192.514 190.508,192.200 190.000 C 192.064 189.780,190.984 189.600,189.800 189.600 C 188.616 189.600,187.536 189.420,187.400 189.200 C 187.264 188.980,186.184 188.800,185.000 188.800 C 183.816 188.800,182.748 188.640,182.627 188.444 C 182.506 188.249,181.821 187.991,181.104 187.873 C 177.945 187.350,174.499 186.459,173.800 185.984 C 173.580 185.835,172.782 185.595,172.026 185.452 C 171.271 185.308,170.371 184.946,170.026 184.647 C 169.280 184.000,167.200 183.565,167.200 184.055 M196.800 245.877 C 195.590 245.970,194.429 246.216,194.220 246.423 C 194.011 246.630,193.552 246.800,193.200 246.800 C 192.369 246.800,190.407 247.712,190.403 248.100 C 190.401 248.265,190.128 248.400,189.795 248.400 C 189.028 248.400,187.499 249.245,187.080 249.900 C 186.904 250.175,186.499 250.400,186.180 250.400 C 185.861 250.400,185.600 250.584,185.600 250.810 C 185.600 251.035,185.150 251.391,184.600 251.600 C 184.050 251.809,183.600 252.255,183.600 252.590 C 183.600 252.926,183.350 253.200,183.043 253.200 C 182.737 253.200,182.374 253.650,182.236 254.200 C 182.098 254.750,181.758 255.200,181.480 255.200 C 181.202 255.200,180.769 255.695,180.516 256.300 C 180.263 256.905,179.746 257.940,179.368 258.600 C 178.245 260.557,178.000 261.150,178.000 261.915 C 178.000 262.314,177.838 262.811,177.641 263.020 C 176.931 263.771,176.159 271.404,176.756 271.773 C 177.000 271.924,177.200 272.836,177.200 273.800 C 177.200 274.764,177.380 275.664,177.600 275.800 C 177.820 275.936,178.000 276.577,178.000 277.224 C 178.000 277.871,178.158 278.400,178.350 278.400 C 178.543 278.400,178.804 278.918,178.930 279.552 C 179.057 280.185,179.440 280.982,179.780 281.323 C 180.121 281.664,180.400 282.065,180.400 282.214 C 180.400 282.363,180.850 283.019,181.400 283.673 C 181.950 284.327,182.400 285.118,182.400 285.431 C 182.400 285.744,182.658 286.000,182.973 286.000 C 183.288 286.000,183.660 286.360,183.800 286.800 C 183.940 287.240,184.299 287.600,184.598 287.600 C 184.898 287.600,185.439 287.896,185.800 288.258 C 186.987 289.444,189.092 290.713,190.324 290.983 C 190.989 291.129,191.627 291.494,191.742 291.793 C 191.866 292.115,192.897 292.448,194.275 292.610 C 195.554 292.760,197.123 293.134,197.761 293.442 C 199.246 294.155,202.315 294.158,204.051 293.448 C 204.793 293.145,206.446 292.771,207.725 292.616 C 209.060 292.455,210.136 292.111,210.252 291.807 C 210.364 291.517,211.055 291.166,211.788 291.029 C 212.520 290.891,213.340 290.514,213.609 290.189 C 213.878 289.865,214.320 289.600,214.591 289.600 C 215.402 289.600,220.000 285.397,220.000 284.655 C 220.000 284.393,220.360 283.870,220.800 283.493 C 221.240 283.116,221.600 282.555,221.600 282.247 C 221.600 281.938,221.860 281.586,222.178 281.464 C 222.496 281.342,222.873 280.615,223.017 279.849 C 223.161 279.082,223.515 278.365,223.805 278.254 C 224.129 278.129,224.431 277.006,224.591 275.326 C 224.735 273.827,225.040 272.215,225.270 271.744 C 225.500 271.274,225.597 270.104,225.487 269.144 C 224.979 264.719,224.287 261.346,223.768 260.769 C 223.455 260.421,223.200 259.871,223.200 259.546 C 223.200 259.221,222.750 258.345,222.200 257.600 C 221.650 256.855,221.200 256.100,221.200 255.922 C 221.200 255.745,220.885 255.261,220.500 254.848 C 220.115 254.434,219.440 253.630,219.000 253.062 C 218.560 252.494,217.480 251.528,216.600 250.915 C 215.720 250.302,214.762 249.575,214.472 249.301 C 214.182 249.026,213.507 248.691,212.972 248.557 C 212.437 248.423,212.000 248.153,212.000 247.957 C 212.000 247.760,211.651 247.600,211.224 247.600 C 210.797 247.600,210.336 247.420,210.200 247.200 C 210.064 246.980,209.549 246.800,209.056 246.800 C 208.563 246.800,207.989 246.637,207.780 246.437 C 207.333 246.009,199.964 245.633,196.800 245.877 " stroke="none" fill="#f9bc07" fill-rule="evenodd"></path><path id="path1" d="M200.092 37.407 C 199.812 37.725,199.474 38.528,199.342 39.192 C 199.209 39.856,198.942 40.400,198.750 40.400 C 198.558 40.400,198.400 40.670,198.400 41.000 C 198.400 41.330,198.220 41.600,198.000 41.600 C 197.780 41.600,197.600 41.872,197.600 42.205 C 197.600 42.761,196.878 44.322,196.400 44.800 C 196.007 45.193,194.800 48.037,194.800 48.571 C 194.800 48.870,194.540 49.214,194.222 49.336 C 193.904 49.458,193.527 50.185,193.383 50.951 C 193.239 51.718,192.879 52.438,192.583 52.551 C 192.287 52.665,191.924 53.397,191.778 54.179 C 191.629 54.970,191.273 55.600,190.974 55.600 C 190.676 55.600,190.319 56.225,190.174 57.000 C 190.029 57.770,189.677 58.400,189.391 58.400 C 189.095 58.400,188.753 59.092,188.600 60.000 C 188.451 60.880,188.166 61.600,187.965 61.600 C 187.764 61.600,187.600 61.960,187.600 62.400 C 187.600 62.840,187.420 63.200,187.200 63.200 C 186.980 63.200,186.800 63.560,186.800 64.000 C 186.800 64.440,186.620 64.800,186.400 64.800 C 186.180 64.800,186.000 65.165,186.000 65.610 C 186.000 66.190,185.659 66.488,184.800 66.660 C 184.140 66.792,183.600 67.148,183.600 67.450 C 183.600 67.752,183.402 68.000,183.160 68.000 C 182.636 68.000,180.020 69.202,179.271 69.787 C 178.981 70.014,178.396 70.515,177.971 70.900 C 177.547 71.285,177.012 71.600,176.783 71.600 C 176.331 71.600,175.525 72.196,174.483 73.300 C 174.120 73.685,173.613 74.000,173.357 74.000 C 173.101 74.000,172.597 74.450,172.237 75.000 C 171.876 75.550,171.316 76.000,170.991 76.000 C 170.666 76.000,170.400 76.270,170.400 76.600 C 170.400 76.930,170.132 77.200,169.803 77.200 C 169.475 77.200,168.982 77.560,168.707 78.000 C 168.432 78.440,167.975 78.800,167.691 78.800 C 167.407 78.800,167.071 79.070,166.945 79.400 C 166.818 79.730,166.464 80.000,166.157 80.000 C 165.851 80.000,165.600 80.174,165.600 80.387 C 165.600 80.890,162.890 83.600,162.387 83.600 C 162.174 83.600,162.000 83.870,162.000 84.200 C 162.000 84.530,161.820 84.800,161.600 84.800 C 161.380 84.800,161.200 85.004,161.200 85.253 C 161.200 85.502,160.873 85.997,160.472 86.353 C 160.072 86.709,159.628 87.315,159.485 87.700 C 159.342 88.085,158.949 88.400,158.613 88.400 C 158.276 88.400,158.000 88.642,158.000 88.938 C 158.000 89.234,157.550 89.999,157.000 90.638 C 156.451 91.277,156.001 91.935,156.000 92.100 C 156.000 92.265,155.744 92.400,155.432 92.400 C 155.119 92.400,154.745 92.940,154.600 93.600 C 154.455 94.260,154.076 94.800,153.758 94.800 C 153.436 94.800,153.074 95.331,152.940 96.000 C 152.808 96.660,152.542 97.200,152.350 97.200 C 152.157 97.200,152.000 97.470,152.000 97.800 C 152.000 98.130,151.850 98.400,151.668 98.400 C 151.485 98.400,151.080 98.895,150.768 99.500 C 150.456 100.105,150.111 100.690,150.001 100.800 C 149.484 101.315,148.400 103.592,148.400 104.162 C 148.400 104.513,148.146 104.800,147.835 104.800 C 147.488 104.800,147.166 105.416,147.000 106.400 C 146.844 107.325,146.506 108.000,146.200 108.000 C 145.894 108.000,145.556 108.675,145.400 109.600 C 145.247 110.506,144.905 111.200,144.610 111.200 C 144.300 111.200,143.981 111.935,143.817 113.023 C 143.667 114.026,143.302 114.940,143.005 115.053 C 142.709 115.167,142.345 116.146,142.196 117.230 C 142.047 118.313,141.762 119.200,141.562 119.200 C 141.363 119.200,141.200 119.830,141.200 120.600 C 141.200 121.370,141.052 122.000,140.871 122.000 C 140.690 122.000,140.298 123.170,140.000 124.600 C 139.702 126.030,139.310 127.200,139.129 127.200 C 138.948 127.200,138.800 127.999,138.800 128.976 C 138.800 129.953,138.620 130.864,138.400 131.000 C 138.180 131.136,138.000 132.069,138.000 133.074 L 138.000 134.900 136.712 134.642 C 136.003 134.501,135.282 134.132,135.109 133.824 C 134.937 133.515,134.271 133.147,133.631 133.007 C 132.990 132.866,132.063 132.402,131.572 131.975 C 131.080 131.549,130.274 131.200,129.782 131.200 C 129.289 131.200,128.789 130.947,128.670 130.638 C 128.477 130.136,126.755 129.566,123.500 128.926 C 122.895 128.807,122.400 128.550,122.400 128.355 C 122.400 128.160,121.680 128.000,120.800 128.000 C 119.920 128.000,119.200 127.820,119.200 127.600 C 119.200 127.380,118.570 127.200,117.800 127.200 C 117.030 127.200,116.400 127.020,116.400 126.800 C 116.400 126.580,115.421 126.400,114.224 126.400 C 113.027 126.400,111.953 126.247,111.837 126.060 C 111.100 124.867,85.200 125.621,85.200 126.836 C 85.200 127.036,84.671 127.200,84.024 127.200 C 83.377 127.200,82.736 127.380,82.600 127.600 C 82.464 127.820,81.733 128.000,80.976 128.000 C 80.219 128.000,79.600 128.180,79.600 128.400 C 79.600 128.620,79.161 128.800,78.624 128.800 C 78.087 128.800,77.549 128.959,77.429 129.154 C 77.308 129.348,76.398 129.629,75.405 129.778 C 74.412 129.927,73.600 130.219,73.600 130.426 C 73.600 130.633,72.790 131.020,71.800 131.284 C 70.810 131.549,70.000 131.895,70.000 132.052 C 70.000 132.209,69.325 132.552,68.500 132.813 C 67.675 133.074,66.820 133.502,66.600 133.763 C 66.380 134.024,65.615 134.476,64.900 134.767 C 64.185 135.059,63.600 135.452,63.600 135.641 C 63.600 135.830,63.150 136.098,62.600 136.236 C 62.050 136.374,61.600 136.737,61.600 137.043 C 61.600 137.350,61.253 137.600,60.829 137.600 C 60.404 137.600,59.787 137.870,59.457 138.200 C 59.127 138.530,58.651 138.800,58.400 138.800 C 57.633 138.800,56.800 139.889,56.800 140.891 C 56.800 141.413,56.585 142.055,56.323 142.317 C 55.655 142.985,55.381 168.823,55.986 174.000 C 56.231 176.090,56.523 178.610,56.636 179.600 C 56.749 180.590,56.988 181.760,57.167 182.200 C 57.644 183.371,58.400 186.686,58.400 187.606 C 58.400 188.043,58.580 188.400,58.800 188.400 C 59.020 188.400,59.200 188.839,59.200 189.376 C 59.200 189.913,59.354 190.448,59.543 190.565 C 59.731 190.681,59.995 191.703,60.130 192.834 C 60.264 193.966,60.630 195.096,60.944 195.346 C 61.258 195.596,61.635 196.655,61.782 197.700 C 61.959 198.962,62.242 199.600,62.625 199.600 C 62.953 199.600,63.202 199.986,63.205 200.500 C 63.215 202.027,63.667 203.200,64.247 203.200 C 64.595 203.200,64.800 203.645,64.800 204.400 C 64.800 205.060,65.142 205.942,65.559 206.359 C 65.977 206.777,66.444 207.689,66.597 208.386 C 66.750 209.084,67.128 209.751,67.438 209.870 C 67.747 209.988,68.000 210.322,68.000 210.610 C 68.000 211.292,69.310 213.594,69.700 213.597 C 69.865 213.599,70.000 213.960,70.000 214.400 C 70.000 214.840,70.180 215.200,70.400 215.200 C 70.620 215.200,70.800 215.494,70.800 215.853 C 70.800 216.212,71.131 216.797,71.536 217.153 C 71.941 217.509,72.394 218.295,72.544 218.900 C 72.693 219.505,73.068 220.000,73.376 220.000 C 73.684 220.000,74.051 220.522,74.191 221.159 C 74.339 221.833,74.771 222.404,75.223 222.522 C 75.680 222.641,76.000 223.070,76.000 223.563 C 76.000 224.040,76.258 224.400,76.600 224.400 C 76.930 224.400,77.200 224.687,77.200 225.037 C 77.200 225.388,77.560 225.769,78.000 225.884 C 78.440 225.999,78.800 226.424,78.800 226.829 C 78.800 227.234,79.790 228.563,81.000 229.783 C 82.210 231.002,83.200 232.097,83.200 232.216 C 83.200 232.608,89.198 238.400,89.603 238.400 C 89.821 238.400,90.000 238.670,90.000 239.000 C 90.000 239.330,90.205 239.600,90.456 239.600 C 90.707 239.600,91.700 240.410,92.662 241.400 C 93.624 242.390,94.660 243.200,94.963 243.200 C 95.266 243.200,95.618 243.470,95.745 243.800 C 95.871 244.130,96.251 244.400,96.587 244.400 C 96.924 244.400,97.200 244.670,97.200 245.000 C 97.200 245.330,97.494 245.600,97.854 245.600 C 98.214 245.600,98.925 246.050,99.435 246.600 C 99.945 247.150,100.730 247.600,101.181 247.600 C 101.638 247.600,102.000 247.862,102.000 248.192 C 102.000 248.518,102.455 248.899,103.011 249.038 C 103.566 249.178,104.203 249.631,104.425 250.046 C 104.647 250.461,105.182 250.800,105.614 250.800 C 106.046 250.800,106.400 251.050,106.400 251.355 C 106.400 251.668,106.982 252.020,107.730 252.160 C 108.461 252.298,109.444 252.768,109.913 253.205 C 110.383 253.642,111.044 254.000,111.383 254.000 C 111.722 254.000,112.360 254.360,112.800 254.800 C 113.240 255.240,113.859 255.600,114.176 255.600 C 114.493 255.600,114.850 255.757,114.968 255.948 C 115.086 256.140,115.738 256.408,116.415 256.543 C 117.092 256.678,117.902 257.045,118.215 257.358 C 118.528 257.671,119.494 258.047,120.361 258.193 C 121.228 258.340,122.031 258.704,122.145 259.002 C 122.260 259.300,123.188 259.669,124.209 259.822 C 125.229 259.975,126.152 260.332,126.261 260.614 C 126.372 260.904,127.491 261.248,128.829 261.403 C 130.350 261.580,131.200 261.863,131.200 262.192 C 131.200 262.527,132.283 262.868,134.300 263.170 C 136.005 263.425,138.075 263.735,138.900 263.859 C 139.725 263.983,140.400 264.245,140.400 264.442 C 140.400 264.639,141.379 264.800,142.576 264.800 C 143.773 264.800,144.864 264.980,145.000 265.200 C 145.136 265.420,146.407 265.600,147.824 265.600 C 149.275 265.600,150.400 265.775,150.400 266.000 C 150.400 266.220,151.030 266.400,151.800 266.400 L 153.200 266.400 153.200 271.000 C 153.200 273.530,153.364 275.600,153.565 275.600 C 153.935 275.600,154.171 276.770,154.634 280.900 C 154.810 282.469,155.068 283.200,155.446 283.200 C 155.788 283.200,156.000 283.636,156.000 284.340 C 156.000 285.703,156.750 288.000,157.195 288.000 C 157.369 288.000,157.629 288.630,157.774 289.400 C 157.931 290.238,158.270 290.800,158.618 290.800 C 158.938 290.800,159.200 291.088,159.200 291.440 C 159.200 292.064,160.274 294.602,160.876 295.400 C 161.042 295.620,161.632 296.321,162.189 296.958 C 162.745 297.596,163.200 298.251,163.200 298.416 C 163.200 298.581,163.740 299.293,164.400 300.000 C 165.060 300.707,165.600 301.446,165.600 301.642 C 165.600 301.839,165.851 302.000,166.157 302.000 C 166.464 302.000,166.818 302.270,166.945 302.600 C 167.071 302.930,167.430 303.200,167.741 303.200 C 168.052 303.200,168.401 303.560,168.516 304.000 C 168.631 304.440,169.012 304.800,169.363 304.800 C 169.713 304.800,170.000 305.076,170.000 305.413 C 170.000 305.749,170.315 306.139,170.700 306.278 C 171.085 306.416,171.670 306.779,172.000 307.083 C 172.330 307.388,172.958 307.883,173.396 308.183 C 174.171 308.715,174.158 308.762,172.896 309.968 C 172.183 310.650,171.600 311.385,171.600 311.603 C 171.600 311.822,171.342 312.000,171.027 312.000 C 170.712 312.000,170.340 312.360,170.200 312.800 C 170.060 313.240,169.697 313.600,169.394 313.600 C 169.090 313.600,168.356 314.050,167.762 314.600 C 167.169 315.150,166.349 315.600,165.942 315.600 C 165.534 315.600,165.200 315.875,165.200 316.210 C 165.200 316.568,164.704 316.919,164.000 317.060 C 163.340 317.192,162.800 317.532,162.800 317.815 C 162.800 318.104,162.098 318.448,161.200 318.600 C 160.279 318.756,159.600 319.094,159.600 319.398 C 159.600 319.727,158.847 320.029,157.590 320.201 C 156.484 320.354,155.327 320.730,155.018 321.039 C 154.710 321.348,154.196 321.600,153.878 321.600 C 153.559 321.600,153.074 321.870,152.800 322.200 C 152.526 322.530,152.152 322.800,151.969 322.800 C 151.409 322.800,149.600 324.799,149.600 325.418 C 149.600 325.738,149.436 326.000,149.235 326.000 C 149.034 326.000,148.742 326.765,148.586 327.700 C 148.430 328.635,148.099 329.528,147.851 329.685 C 147.271 330.052,147.261 333.938,147.838 334.315 C 148.079 334.472,148.389 335.320,148.526 336.200 C 148.664 337.082,149.140 338.098,149.588 338.464 C 150.035 338.829,150.400 339.298,150.400 339.506 C 150.400 340.018,152.829 342.000,153.457 342.000 C 153.734 342.000,154.137 342.315,154.352 342.700 C 154.921 343.716,164.257 343.757,164.822 342.746 C 165.031 342.374,165.965 341.976,166.994 341.822 C 168.079 341.659,168.800 341.342,168.800 341.027 C 168.800 340.723,169.481 340.393,170.415 340.244 C 171.304 340.102,172.131 339.724,172.254 339.404 C 172.377 339.084,173.090 338.707,173.839 338.566 C 174.611 338.421,175.200 338.071,175.200 337.755 C 175.200 337.450,175.398 337.200,175.640 337.200 C 176.460 337.200,178.998 335.840,179.523 335.118 C 179.810 334.723,180.305 334.400,180.623 334.400 C 180.940 334.400,181.200 334.220,181.200 334.000 C 181.200 333.780,181.470 333.600,181.800 333.600 C 182.130 333.600,182.400 333.423,182.400 333.208 C 182.400 332.992,182.850 332.702,183.400 332.564 C 183.950 332.426,184.400 332.075,184.400 331.784 C 184.400 331.492,184.760 331.140,185.200 331.000 C 185.640 330.860,186.000 330.507,186.000 330.216 C 186.000 329.924,186.270 329.582,186.600 329.455 C 186.930 329.329,187.200 328.970,187.200 328.659 C 187.200 328.348,187.560 327.999,188.000 327.884 C 188.440 327.769,188.800 327.388,188.800 327.037 C 188.800 326.687,189.087 326.400,189.437 326.400 C 189.788 326.400,190.169 326.040,190.284 325.600 C 190.399 325.160,190.748 324.800,191.059 324.800 C 191.370 324.800,191.729 324.530,191.855 324.200 C 191.982 323.870,192.333 323.600,192.635 323.600 C 192.937 323.600,193.307 323.105,193.456 322.500 C 193.606 321.895,194.059 321.109,194.464 320.753 C 194.869 320.397,195.200 319.912,195.200 319.676 C 195.200 319.439,195.527 319.010,195.926 318.723 C 196.326 318.435,196.770 317.885,196.914 317.500 C 197.137 316.902,197.714 316.801,200.887 316.806 C 205.175 316.813,205.491 316.966,206.675 319.600 C 206.823 319.930,207.272 320.491,207.672 320.847 C 208.073 321.203,208.400 321.699,208.400 321.951 C 208.400 322.529,210.549 324.800,211.097 324.800 C 211.322 324.800,211.601 325.160,211.716 325.600 C 211.831 326.040,212.212 326.400,212.563 326.400 C 212.913 326.400,213.200 326.687,213.200 327.037 C 213.200 327.388,213.560 327.769,214.000 327.884 C 214.440 327.999,214.800 328.359,214.800 328.684 C 214.800 329.009,215.160 329.369,215.600 329.484 C 216.040 329.599,216.400 329.959,216.400 330.284 C 216.400 330.609,216.760 330.969,217.200 331.084 C 217.640 331.199,218.000 331.530,218.000 331.820 C 218.000 332.109,218.405 332.474,218.900 332.630 C 219.395 332.787,220.091 333.249,220.447 333.657 C 220.803 334.066,221.218 334.400,221.370 334.400 C 221.522 334.400,222.314 334.936,223.129 335.591 C 223.944 336.246,225.194 336.899,225.906 337.041 C 226.618 337.184,227.200 337.548,227.200 337.850 C 227.200 338.153,227.562 338.400,228.004 338.400 C 228.446 338.400,229.120 338.765,229.502 339.211 C 229.884 339.657,230.872 340.130,231.698 340.262 C 232.548 340.398,233.200 340.730,233.200 341.027 C 233.200 341.342,233.924 341.660,235.020 341.824 C 236.021 341.974,237.133 342.390,237.491 342.748 C 238.454 343.712,247.083 343.709,247.623 342.745 C 247.825 342.384,248.436 341.977,248.981 341.841 C 250.364 341.493,252.470 339.251,253.058 337.500 C 253.188 337.115,253.452 336.800,253.647 336.800 C 253.841 336.800,254.000 336.377,254.000 335.860 C 254.000 335.343,254.201 334.344,254.446 333.641 C 254.913 332.300,254.191 327.600,253.517 327.600 C 253.343 327.600,253.200 327.240,253.200 326.800 C 253.200 326.360,253.020 326.000,252.800 326.000 C 252.580 326.000,252.400 325.706,252.400 325.346 C 252.400 324.687,250.642 322.800,250.028 322.800 C 249.847 322.800,249.474 322.530,249.200 322.200 C 248.926 321.870,248.383 321.600,247.994 321.600 C 247.604 321.600,247.191 321.353,247.075 321.050 C 246.951 320.727,245.941 320.385,244.632 320.221 C 243.194 320.042,242.400 319.755,242.400 319.416 C 242.400 319.126,241.770 318.771,241.000 318.626 C 240.225 318.481,239.600 318.124,239.600 317.826 C 239.600 317.529,238.975 317.172,238.200 317.026 C 237.362 316.869,236.800 316.530,236.800 316.182 C 236.800 315.862,236.483 315.600,236.096 315.600 C 235.709 315.600,234.907 315.150,234.313 314.600 C 233.720 314.050,233.130 313.600,233.003 313.600 C 232.267 313.600,227.962 308.653,228.456 308.376 C 228.755 308.208,229.426 307.700,229.948 307.247 C 230.469 306.794,231.234 306.316,231.648 306.185 C 232.061 306.054,232.400 305.707,232.400 305.416 C 232.400 305.124,232.670 304.782,233.000 304.655 C 233.330 304.529,233.600 304.149,233.600 303.813 C 233.600 303.476,233.876 303.200,234.213 303.200 C 234.549 303.200,234.929 302.930,235.055 302.600 C 235.182 302.270,235.524 302.000,235.816 302.000 C 236.107 302.000,236.460 301.640,236.600 301.200 C 236.740 300.760,237.090 300.400,237.378 300.400 C 237.667 300.400,238.127 299.860,238.400 299.200 C 238.673 298.540,239.027 298.000,239.186 298.000 C 239.344 298.000,239.813 297.370,240.228 296.600 C 240.643 295.830,241.087 295.200,241.216 295.200 C 241.345 295.200,241.698 294.570,242.000 293.800 C 242.302 293.030,242.696 292.400,242.875 292.400 C 243.054 292.400,243.200 292.040,243.200 291.600 C 243.200 291.160,243.372 290.800,243.582 290.800 C 243.792 290.800,244.082 290.170,244.226 289.400 C 244.371 288.630,244.631 288.000,244.805 288.000 C 245.250 288.000,246.000 285.703,246.000 284.340 C 246.000 283.636,246.212 283.200,246.554 283.200 C 246.932 283.200,247.190 282.469,247.366 280.900 C 247.829 276.770,248.065 275.600,248.435 275.600 C 248.636 275.600,248.800 273.530,248.800 271.000 L 248.800 266.400 250.400 266.400 C 251.280 266.400,252.000 266.235,252.000 266.034 C 252.000 265.833,253.125 265.567,254.500 265.444 C 260.036 264.948,261.600 264.710,261.600 264.363 C 261.600 264.163,262.309 264.000,263.176 264.000 C 264.043 264.000,264.849 263.844,264.968 263.653 C 265.086 263.461,266.446 263.181,267.991 263.028 C 269.900 262.840,270.800 262.584,270.800 262.227 C 270.800 261.885,271.617 261.611,273.163 261.436 C 274.555 261.278,275.611 260.949,275.731 260.634 C 275.844 260.341,276.771 259.975,277.791 259.822 C 278.812 259.669,279.740 259.300,279.855 259.002 C 279.969 258.704,280.781 258.338,281.659 258.190 C 282.537 258.042,283.352 257.668,283.471 257.360 C 283.589 257.052,284.172 256.800,284.766 256.800 C 285.361 256.800,286.196 256.536,286.624 256.213 C 287.051 255.890,287.715 255.620,288.100 255.613 C 288.485 255.606,288.800 255.454,288.800 255.275 C 288.800 255.096,289.430 254.702,290.200 254.400 C 290.970 254.098,291.600 253.738,291.600 253.599 C 291.600 253.258,294.284 252.000,295.014 252.000 C 295.336 252.000,295.600 251.753,295.600 251.450 C 295.600 251.148,296.140 250.792,296.800 250.660 C 297.469 250.526,298.000 250.164,298.000 249.842 C 298.000 249.524,298.540 249.145,299.200 249.000 C 299.860 248.855,300.400 248.481,300.400 248.168 C 300.400 247.856,300.756 247.600,301.191 247.600 C 301.626 247.600,302.276 247.150,302.637 246.600 C 302.997 246.050,303.631 245.600,304.046 245.600 C 304.461 245.600,304.800 245.330,304.800 245.000 C 304.800 244.670,305.076 244.400,305.413 244.400 C 305.749 244.400,306.129 244.130,306.255 243.800 C 306.382 243.470,306.735 243.200,307.040 243.200 C 307.346 243.200,308.417 242.390,309.421 241.400 C 310.425 240.410,311.416 239.600,311.624 239.600 C 311.831 239.600,312.000 239.330,312.000 239.000 C 312.000 238.670,312.195 238.400,312.432 238.400 C 312.996 238.400,318.800 232.596,318.800 232.032 C 318.800 231.795,319.070 231.600,319.400 231.600 C 319.730 231.600,320.000 231.431,320.000 231.224 C 320.000 231.016,320.810 230.025,321.800 229.021 C 322.790 228.017,323.600 226.939,323.600 226.625 C 323.600 226.311,323.960 225.940,324.400 225.800 C 324.840 225.660,325.200 225.288,325.200 224.973 C 325.200 224.658,325.380 224.400,325.600 224.400 C 325.820 224.400,326.000 224.023,326.000 223.563 C 326.000 223.070,326.320 222.641,326.777 222.522 C 327.229 222.404,327.661 221.833,327.809 221.159 C 327.949 220.522,328.305 220.000,328.600 220.000 C 328.895 220.000,329.255 219.460,329.400 218.800 C 329.545 218.140,329.924 217.600,330.242 217.600 C 330.564 217.600,330.926 217.069,331.060 216.400 C 331.192 215.740,331.525 215.200,331.800 215.200 C 332.075 215.200,332.407 214.666,332.538 214.012 C 332.668 213.359,333.141 212.459,333.588 212.012 C 334.034 211.566,334.400 211.056,334.400 210.880 C 334.400 210.300,335.394 208.406,335.700 208.403 C 335.865 208.401,336.006 208.085,336.013 207.700 C 336.020 207.315,336.290 206.651,336.613 206.224 C 336.936 205.796,337.200 204.941,337.200 204.324 C 337.200 203.634,337.414 203.200,337.753 203.200 C 338.333 203.200,338.785 202.027,338.795 200.500 C 338.798 199.986,339.047 199.600,339.375 199.600 C 339.758 199.600,340.041 198.962,340.218 197.700 C 340.365 196.655,340.736 195.600,341.043 195.356 C 341.349 195.112,341.712 194.032,341.848 192.956 C 341.985 191.880,342.318 190.820,342.588 190.600 C 343.026 190.244,343.719 187.430,344.289 183.700 C 344.398 182.985,344.632 182.400,344.808 182.400 C 345.108 182.400,345.261 181.285,345.841 174.900 C 345.966 173.525,346.233 172.400,346.434 172.400 C 346.647 172.400,346.800 167.229,346.800 160.000 C 346.800 152.000,346.658 147.600,346.400 147.600 C 346.175 147.600,346.000 146.475,346.000 145.024 C 346.000 143.607,345.820 142.336,345.600 142.200 C 345.380 142.064,345.200 141.501,345.200 140.948 C 345.200 139.913,344.386 138.800,343.629 138.800 C 343.393 138.800,343.200 138.628,343.200 138.418 C 343.200 138.208,342.570 137.918,341.800 137.774 C 341.009 137.625,340.400 137.273,340.400 136.963 C 340.400 136.662,339.963 136.306,339.429 136.172 C 338.895 136.037,338.364 135.684,338.250 135.386 C 338.136 135.088,337.403 134.724,336.621 134.578 C 335.789 134.421,335.200 134.077,335.200 133.745 C 335.200 133.434,334.646 133.069,333.966 132.933 C 333.287 132.797,332.644 132.460,332.538 132.182 C 332.432 131.905,331.682 131.556,330.872 131.405 C 330.063 131.255,329.127 130.888,328.794 130.589 C 328.234 130.087,326.177 129.440,323.500 128.922 C 322.895 128.805,322.400 128.569,322.400 128.398 C 322.400 128.105,321.924 127.985,318.300 127.368 C 317.475 127.227,316.800 126.969,316.800 126.793 C 316.800 125.611,290.880 124.900,290.161 126.063 C 290.047 126.248,289.063 126.400,287.976 126.400 C 286.889 126.400,286.000 126.580,286.000 126.800 C 286.000 127.020,285.280 127.200,284.400 127.200 C 283.520 127.200,282.800 127.380,282.800 127.600 C 282.800 127.820,282.080 128.000,281.200 128.000 C 280.320 128.000,279.600 128.180,279.600 128.400 C 279.600 128.620,279.161 128.800,278.624 128.800 C 278.087 128.800,277.549 128.959,277.429 129.154 C 277.308 129.348,276.398 129.629,275.405 129.778 C 274.321 129.941,273.600 130.258,273.600 130.573 C 273.600 130.873,272.934 131.204,272.044 131.347 C 271.188 131.483,270.392 131.844,270.276 132.147 C 270.159 132.451,269.424 132.819,268.643 132.966 C 267.861 133.112,267.077 133.491,266.899 133.808 C 266.722 134.125,265.997 134.501,265.288 134.642 L 264.000 134.900 264.000 133.074 C 264.000 132.069,263.847 131.152,263.659 131.036 C 263.472 130.921,263.208 129.643,263.073 128.198 C 262.936 126.736,262.569 125.312,262.246 124.989 C 261.926 124.669,261.539 123.236,261.386 121.804 C 261.202 120.089,260.931 119.200,260.591 119.200 C 260.274 119.200,259.967 118.417,259.796 117.172 C 259.643 116.056,259.274 115.050,258.978 114.936 C 258.681 114.822,258.319 113.935,258.174 112.965 C 258.017 111.920,257.697 111.200,257.390 111.200 C 257.095 111.200,256.753 110.506,256.600 109.600 C 256.451 108.720,256.166 108.000,255.965 108.000 C 255.764 108.000,255.600 107.640,255.600 107.200 C 255.600 106.760,255.420 106.400,255.200 106.400 C 254.980 106.400,254.800 106.040,254.800 105.600 C 254.800 105.160,254.620 104.800,254.400 104.800 C 254.180 104.800,254.000 104.440,254.000 104.000 C 254.000 103.560,253.840 103.200,253.644 103.200 C 253.448 103.200,252.863 102.375,252.344 101.366 C 251.825 100.358,251.130 99.012,250.800 98.375 C 250.470 97.738,249.998 97.213,249.750 97.209 C 249.503 97.204,249.192 96.660,249.060 96.000 C 248.926 95.331,248.564 94.800,248.242 94.800 C 247.924 94.800,247.545 94.260,247.400 93.600 C 247.255 92.940,246.881 92.400,246.568 92.400 C 246.256 92.400,246.000 92.265,246.000 92.100 C 245.999 91.935,245.549 91.277,245.000 90.638 C 244.450 89.999,244.000 89.246,244.000 88.965 C 244.000 88.684,243.640 88.340,243.200 88.200 C 242.760 88.060,242.400 87.728,242.400 87.461 C 242.400 87.195,242.040 86.717,241.600 86.400 C 241.160 86.083,240.800 85.593,240.800 85.312 C 240.800 85.030,240.641 84.800,240.447 84.800 C 240.252 84.800,239.999 84.440,239.884 84.000 C 239.769 83.560,239.400 83.200,239.064 83.200 C 238.729 83.200,238.340 82.840,238.200 82.400 C 238.060 81.960,237.700 81.600,237.400 81.600 C 237.100 81.600,236.740 81.240,236.600 80.800 C 236.460 80.360,236.107 80.000,235.816 80.000 C 235.524 80.000,235.182 79.730,235.055 79.400 C 234.929 79.070,234.593 78.800,234.309 78.800 C 234.025 78.800,233.568 78.440,233.293 78.000 C 233.018 77.560,232.525 77.200,232.197 77.200 C 231.868 77.200,231.600 76.942,231.600 76.627 C 231.600 76.312,231.240 75.940,230.800 75.800 C 230.359 75.660,229.813 75.198,229.586 74.773 C 229.358 74.348,228.915 74.000,228.600 74.000 C 228.285 74.000,227.835 73.640,227.600 73.200 C 227.365 72.760,226.908 72.400,226.586 72.400 C 226.264 72.400,226.000 72.220,226.000 72.000 C 226.000 71.780,225.683 71.600,225.296 71.600 C 224.909 71.600,224.368 71.240,224.093 70.800 C 223.818 70.360,223.340 70.000,223.030 70.000 C 222.720 70.000,222.407 69.865,222.333 69.700 C 222.123 69.227,219.744 68.000,219.038 68.000 C 218.687 68.000,218.400 67.743,218.400 67.428 C 218.400 67.113,217.995 66.798,217.500 66.728 C 216.922 66.646,216.554 66.278,216.472 65.700 C 216.402 65.205,216.103 64.800,215.807 64.800 C 215.493 64.800,215.158 64.138,215.000 63.200 C 214.844 62.275,214.506 61.600,214.200 61.600 C 213.894 61.600,213.556 60.925,213.400 60.000 C 213.247 59.092,212.905 58.400,212.609 58.400 C 212.323 58.400,211.971 57.770,211.826 57.000 C 211.678 56.211,211.325 55.600,211.017 55.600 C 210.691 55.600,210.361 54.954,210.200 54.000 C 210.051 53.120,209.766 52.400,209.565 52.400 C 209.364 52.400,209.200 52.040,209.200 51.600 C 209.200 51.160,209.065 50.799,208.900 50.797 C 208.541 50.793,207.600 48.856,207.600 48.120 C 207.600 47.834,207.435 47.600,207.233 47.600 C 207.031 47.600,206.546 46.745,206.154 45.700 C 205.763 44.655,205.228 43.668,204.967 43.506 C 204.705 43.344,204.372 42.579,204.227 41.806 C 204.082 41.033,203.739 40.400,203.465 40.400 C 203.190 40.400,202.749 39.590,202.484 38.600 C 201.977 36.702,201.099 36.264,200.092 37.407 M203.471 85.604 C 204.712 86.266,205.925 86.972,206.166 87.172 C 206.407 87.372,207.098 87.660,207.702 87.811 C 208.306 87.963,208.800 88.315,208.800 88.593 C 208.800 88.872,209.295 89.205,209.900 89.333 C 210.505 89.461,211.670 90.190,212.489 90.952 C 213.308 91.715,214.343 92.455,214.789 92.597 C 215.235 92.738,215.600 93.112,215.600 93.427 C 215.600 93.742,215.753 94.000,215.939 94.000 C 216.354 94.000,219.582 96.821,221.662 99.000 C 222.502 99.880,223.551 100.979,223.994 101.442 C 224.438 101.905,224.800 102.378,224.800 102.492 C 224.800 102.692,226.139 104.328,227.800 106.157 C 228.240 106.642,228.821 107.524,229.091 108.119 C 229.362 108.714,229.767 109.200,229.991 109.200 C 230.216 109.200,230.400 109.550,230.400 109.977 C 230.400 110.405,230.734 110.990,231.143 111.277 C 233.148 112.689,232.323 113.898,228.873 114.604 C 228.143 114.753,227.456 115.109,227.347 115.395 C 227.237 115.681,226.182 116.035,225.002 116.182 C 223.822 116.330,222.658 116.689,222.417 116.980 C 222.175 117.271,220.767 117.635,219.289 117.788 C 217.810 117.941,216.218 118.310,215.752 118.608 C 215.248 118.930,213.054 119.260,210.352 119.420 C 207.848 119.568,204.450 119.940,202.800 120.245 C 199.218 120.908,197.237 120.946,195.754 120.383 C 195.151 120.153,192.124 119.780,189.028 119.554 C 185.933 119.327,182.860 118.901,182.200 118.606 C 181.540 118.312,179.920 117.944,178.600 117.788 C 177.280 117.632,175.930 117.272,175.600 116.988 C 175.270 116.704,174.151 116.346,173.113 116.192 C 172.075 116.039,171.018 115.663,170.764 115.357 C 170.510 115.050,169.919 114.797,169.451 114.794 C 168.956 114.790,168.783 114.665,169.038 114.494 C 169.280 114.332,169.607 113.668,169.767 113.018 C 169.926 112.368,170.404 111.593,170.828 111.295 C 171.253 110.998,171.600 110.535,171.600 110.266 C 171.600 109.998,171.960 109.470,172.400 109.093 C 172.840 108.716,173.200 108.131,173.200 107.792 C 173.200 107.453,173.830 106.597,174.600 105.890 C 175.370 105.184,176.000 104.451,176.000 104.262 C 176.000 103.504,187.060 92.415,187.845 92.387 C 188.040 92.380,188.807 91.764,189.549 91.018 C 190.291 90.272,191.331 89.553,191.860 89.421 C 192.388 89.288,193.176 88.824,193.610 88.390 C 194.045 87.955,194.745 87.600,195.167 87.600 C 195.588 87.600,195.993 87.449,196.067 87.265 C 196.204 86.920,200.361 84.487,200.908 84.431 C 201.077 84.414,202.230 84.942,203.471 85.604 M240.699 135.529 C 241.036 135.743,241.285 137.636,241.462 141.338 C 241.607 144.359,241.877 146.924,242.063 147.039 C 242.540 147.334,242.484 152.301,242.000 152.600 C 241.780 152.736,241.600 153.247,241.600 153.735 C 241.600 154.677,240.565 155.760,238.969 156.487 C 238.436 156.730,238.000 157.046,238.000 157.190 C 238.000 157.333,237.370 157.698,236.600 158.000 C 235.830 158.302,235.200 158.696,235.200 158.875 C 235.200 159.054,234.913 159.200,234.562 159.200 C 234.211 159.200,233.446 159.538,232.862 159.950 C 232.278 160.363,231.203 160.830,230.473 160.988 C 229.743 161.146,229.056 161.510,228.946 161.796 C 228.836 162.083,227.938 162.438,226.950 162.587 C 225.962 162.735,225.057 163.106,224.940 163.412 C 224.809 163.754,223.803 164.073,222.329 164.240 C 221.011 164.389,219.847 164.734,219.742 165.006 C 219.631 165.296,218.361 165.618,216.676 165.782 C 215.094 165.937,213.183 166.355,212.428 166.711 C 210.623 167.564,191.333 167.662,190.813 166.822 C 190.642 166.544,188.994 166.120,187.151 165.879 C 185.308 165.638,183.575 165.219,183.300 164.949 C 183.025 164.679,181.816 164.335,180.612 164.184 C 179.409 164.034,178.220 163.666,177.972 163.366 C 177.723 163.066,176.914 162.708,176.174 162.569 C 175.434 162.430,174.630 162.077,174.387 161.784 C 174.144 161.491,173.372 161.126,172.672 160.974 C 171.973 160.821,170.971 160.359,170.446 159.948 C 169.921 159.537,169.239 159.200,168.929 159.200 C 168.620 159.200,167.980 158.840,167.508 158.400 C 167.036 157.960,166.413 157.600,166.125 157.600 C 165.836 157.600,165.600 157.420,165.600 157.200 C 165.600 156.980,165.311 156.800,164.958 156.800 C 164.605 156.800,163.781 156.350,163.127 155.800 C 162.473 155.250,161.682 154.800,161.369 154.800 C 161.056 154.800,160.800 154.545,160.800 154.233 C 160.800 153.922,160.591 153.597,160.335 153.512 C 159.874 153.358,160.511 136.555,160.996 136.071 C 161.106 135.961,161.516 136.162,161.908 136.517 C 162.300 136.872,163.426 137.284,164.410 137.434 C 165.395 137.584,166.483 137.952,166.829 138.251 C 167.175 138.551,168.345 138.911,169.429 139.052 C 170.513 139.193,171.670 139.539,172.000 139.821 C 172.330 140.103,173.950 140.524,175.600 140.758 C 181.344 141.570,181.805 141.652,182.600 142.000 C 184.779 142.954,204.463 143.283,211.200 142.478 C 217.704 141.701,218.576 141.565,219.400 141.203 C 219.840 141.010,221.404 140.737,222.875 140.597 C 224.347 140.456,225.747 140.105,225.987 139.815 C 226.227 139.526,227.454 139.163,228.712 139.008 C 229.970 138.853,231.270 138.496,231.600 138.214 C 231.930 137.932,232.920 137.572,233.800 137.415 C 234.680 137.257,235.648 136.920,235.951 136.664 C 236.255 136.409,237.245 135.993,238.151 135.739 C 240.266 135.148,240.118 135.160,240.699 135.529 M107.958 148.949 C 108.230 149.277,109.686 149.609,111.578 149.774 C 113.411 149.934,114.929 150.274,115.185 150.582 C 115.427 150.874,116.458 151.238,117.475 151.390 C 118.493 151.543,119.579 151.922,119.890 152.233 C 120.201 152.544,120.938 152.915,121.528 153.058 C 122.118 153.200,123.078 153.650,123.662 154.058 C 124.246 154.466,124.921 154.800,125.162 154.800 C 125.403 154.800,125.600 154.936,125.600 155.102 C 125.600 155.269,126.185 155.663,126.900 155.978 C 127.615 156.293,128.438 156.787,128.729 157.075 C 129.019 157.364,129.514 157.600,129.829 157.600 C 130.143 157.600,130.400 157.850,130.400 158.157 C 130.400 158.463,130.805 158.816,131.300 158.942 C 131.795 159.068,133.438 160.376,134.951 161.849 L 137.702 164.526 137.902 167.163 C 138.011 168.613,138.325 170.070,138.598 170.400 C 138.872 170.730,139.218 172.256,139.368 173.791 C 139.518 175.326,139.885 176.856,140.184 177.191 C 140.482 177.526,140.852 178.823,141.006 180.074 C 141.160 181.324,141.514 182.435,141.793 182.542 C 142.071 182.649,142.421 183.546,142.569 184.535 C 142.718 185.525,143.086 186.540,143.388 186.790 C 143.690 187.041,144.057 187.956,144.204 188.823 C 144.350 189.690,144.601 190.400,144.761 190.400 C 144.920 190.400,145.298 191.030,145.600 191.800 C 145.902 192.570,146.296 193.200,146.475 193.200 C 146.654 193.200,146.800 193.434,146.800 193.720 C 146.800 194.456,147.741 196.393,148.100 196.397 C 148.265 196.399,148.400 196.672,148.400 197.005 C 148.400 197.660,149.114 199.057,149.874 199.887 C 150.134 200.172,150.462 200.764,150.601 201.202 C 150.740 201.641,151.022 202.000,151.227 202.000 C 151.432 202.000,151.600 202.272,151.600 202.604 C 151.600 202.936,151.960 203.516,152.400 203.893 C 152.840 204.270,153.200 204.776,153.200 205.019 C 153.200 205.262,153.650 205.883,154.200 206.400 C 154.750 206.917,155.201 207.533,155.202 207.770 C 155.207 209.176,171.188 225.200,172.585 225.200 C 172.847 225.200,173.483 225.650,174.000 226.200 C 174.517 226.750,175.138 227.200,175.381 227.200 C 176.527 227.200,177.223 228.760,176.297 229.255 C 175.813 229.514,175.175 229.968,174.880 230.263 C 174.584 230.558,174.086 230.800,173.771 230.800 C 173.457 230.800,173.200 231.070,173.200 231.400 C 173.200 231.730,172.994 232.000,172.743 232.000 C 171.559 232.000,164.011 239.342,164.004 240.500 C 164.002 240.885,163.726 241.200,163.390 241.200 C 163.055 241.200,162.603 241.666,162.387 242.234 L 161.994 243.269 155.697 242.987 C 151.515 242.799,149.198 242.532,148.800 242.191 C 148.470 241.908,146.622 241.548,144.694 241.391 C 142.766 241.233,141.090 240.946,140.970 240.752 C 140.851 240.558,140.324 240.400,139.800 240.400 C 139.276 240.400,138.736 240.220,138.600 240.000 C 138.464 239.780,137.834 239.600,137.200 239.600 C 136.566 239.600,135.958 239.456,135.849 239.279 C 135.740 239.103,134.739 238.710,133.625 238.407 C 132.511 238.104,131.600 237.708,131.600 237.528 C 131.600 237.347,131.221 237.200,130.758 237.200 C 130.295 237.200,129.020 236.750,127.925 236.200 C 126.830 235.650,125.756 235.200,125.539 235.200 C 125.321 235.200,124.864 234.921,124.523 234.580 C 124.182 234.240,123.397 233.859,122.777 233.735 C 122.158 233.612,121.555 233.260,121.438 232.955 C 121.321 232.650,120.984 232.400,120.690 232.400 C 120.396 232.400,119.545 231.950,118.800 231.400 C 118.055 230.850,117.163 230.400,116.819 230.400 C 116.474 230.400,115.968 230.040,115.693 229.600 C 115.418 229.160,114.940 228.800,114.630 228.800 C 114.320 228.800,114.007 228.655,113.933 228.477 C 113.860 228.299,112.900 227.540,111.800 226.790 C 107.527 223.875,96.000 212.499,96.000 211.195 C 96.000 210.978,95.859 210.800,95.686 210.800 C 95.514 210.800,95.035 210.215,94.623 209.500 C 93.875 208.204,93.570 207.806,92.019 206.100 C 91.568 205.605,91.200 204.937,91.200 204.616 C 91.200 204.294,90.855 203.709,90.432 203.316 C 90.010 202.922,89.537 202.090,89.381 201.468 C 89.225 200.845,88.866 200.247,88.585 200.139 C 88.303 200.031,87.952 199.460,87.805 198.871 C 87.658 198.282,87.295 197.530,86.997 197.200 C 86.700 196.870,86.451 196.462,86.444 196.293 C 86.431 195.991,85.841 194.589,84.387 191.400 C 83.986 190.520,83.441 189.080,83.177 188.200 C 82.912 187.320,82.557 186.420,82.386 186.200 C 82.216 185.980,81.949 184.762,81.792 183.494 C 81.635 182.225,81.280 181.055,81.003 180.894 C 80.714 180.725,80.324 179.084,80.090 177.049 C 79.865 175.095,79.484 173.376,79.244 173.227 C 78.747 172.920,78.112 156.001,78.535 154.317 C 78.729 153.544,79.129 153.227,80.156 153.035 C 80.906 152.894,81.724 152.533,81.973 152.233 C 82.222 151.933,83.275 151.561,84.313 151.408 C 85.351 151.254,86.479 150.879,86.820 150.575 C 87.161 150.270,88.737 149.900,90.323 149.753 C 91.908 149.605,93.519 149.246,93.902 148.955 C 94.923 148.180,107.315 148.175,107.958 148.949 M308.114 148.954 C 308.601 149.258,310.256 149.627,311.791 149.774 C 313.326 149.921,314.856 150.286,315.191 150.585 C 315.526 150.884,316.649 151.254,317.687 151.408 C 318.725 151.561,319.778 151.933,320.027 152.233 C 320.276 152.533,321.094 152.894,321.844 153.035 C 322.871 153.227,323.271 153.544,323.465 154.318 C 323.960 156.289,323.264 172.864,322.658 173.562 C 322.350 173.916,321.981 175.624,321.828 177.400 C 321.677 179.160,321.384 180.660,321.177 180.733 C 320.969 180.807,320.800 181.381,320.800 182.010 C 320.800 182.638,320.620 183.264,320.400 183.400 C 320.180 183.536,320.000 184.166,320.000 184.800 C 320.000 185.434,319.820 186.064,319.600 186.200 C 319.380 186.336,319.200 186.799,319.200 187.229 C 319.200 187.659,319.035 188.323,318.834 188.705 C 318.015 190.257,317.200 192.356,317.200 192.911 C 317.200 193.236,316.935 193.722,316.611 193.991 C 316.286 194.260,315.909 195.080,315.771 195.812 C 315.634 196.545,315.286 197.235,314.998 197.345 C 314.711 197.456,314.355 198.096,314.207 198.768 C 314.059 199.441,313.754 200.105,313.528 200.244 C 313.303 200.384,312.864 201.106,312.554 201.849 C 312.243 202.592,311.831 203.200,311.638 203.200 C 311.445 203.200,311.173 203.655,311.033 204.210 C 310.894 204.766,310.469 205.563,310.090 205.982 C 308.782 207.424,308.400 207.968,308.400 208.383 C 308.400 208.612,308.233 208.800,308.029 208.800 C 307.825 208.800,307.600 209.044,307.529 209.341 C 307.051 211.342,291.233 227.183,289.700 227.196 C 289.425 227.198,289.200 227.380,289.200 227.600 C 289.200 227.820,288.930 228.000,288.600 228.000 C 288.270 228.000,288.000 228.180,288.000 228.400 C 288.000 228.620,287.740 228.800,287.423 228.800 C 287.105 228.800,286.610 229.134,286.323 229.543 C 286.035 229.951,285.360 230.424,284.823 230.594 C 284.285 230.764,282.982 231.510,281.927 232.252 C 280.872 232.993,279.761 233.600,279.458 233.600 C 279.155 233.600,278.450 233.960,277.891 234.400 C 277.331 234.840,276.632 235.201,276.337 235.203 C 276.042 235.204,275.271 235.554,274.625 235.980 C 273.979 236.406,273.316 236.672,273.153 236.571 C 272.989 236.470,272.742 236.570,272.604 236.793 C 272.466 237.017,272.003 237.200,271.576 237.200 C 271.149 237.200,270.800 237.380,270.800 237.600 C 270.800 237.820,270.361 238.000,269.824 238.000 C 269.287 238.000,268.736 238.180,268.600 238.400 C 268.464 238.620,267.924 238.800,267.400 238.800 C 266.876 238.800,266.336 238.980,266.200 239.200 C 266.064 239.420,265.434 239.600,264.800 239.600 C 264.166 239.600,263.536 239.780,263.400 240.000 C 263.264 240.220,262.724 240.400,262.200 240.400 C 261.676 240.400,261.151 240.556,261.032 240.748 C 260.914 240.939,259.345 241.224,257.544 241.381 C 255.744 241.538,253.895 241.902,253.435 242.191 C 251.517 243.395,239.600 243.383,239.600 242.177 C 239.600 241.882,239.371 241.496,239.090 241.320 C 238.810 241.144,238.285 240.550,237.923 240.000 C 236.492 237.824,230.184 232.000,229.257 232.000 C 229.006 232.000,228.800 231.733,228.800 231.408 C 228.800 231.082,228.350 230.702,227.800 230.564 C 227.250 230.426,226.800 230.182,226.800 230.021 C 226.800 229.860,226.347 229.522,225.794 229.270 C 224.625 228.737,225.191 227.858,227.317 226.903 C 227.925 226.630,228.527 226.135,228.654 225.803 C 228.781 225.472,229.117 225.200,229.400 225.200 C 229.684 225.200,230.497 224.657,231.207 223.993 C 231.918 223.329,233.602 221.868,234.950 220.746 C 236.297 219.624,237.544 218.457,237.720 218.153 C 237.896 217.849,238.301 217.600,238.620 217.600 C 238.939 217.600,239.200 217.389,239.200 217.131 C 239.200 216.874,240.010 215.887,241.000 214.938 C 241.990 213.990,242.800 213.066,242.800 212.886 C 242.800 212.705,243.481 211.847,244.314 210.979 C 246.266 208.943,249.200 205.051,249.200 204.496 C 249.200 204.260,249.335 204.007,249.500 203.933 C 249.967 203.726,251.457 201.480,251.759 200.529 C 251.908 200.059,252.284 199.577,252.593 199.458 C 252.903 199.339,253.276 198.603,253.422 197.821 C 253.569 197.039,253.923 196.400,254.209 196.400 C 254.503 196.400,254.845 195.716,254.995 194.831 C 255.140 193.969,255.499 193.171,255.792 193.058 C 256.085 192.946,256.446 192.302,256.594 191.627 C 256.742 190.952,257.029 190.400,257.232 190.400 C 257.434 190.400,257.600 190.051,257.600 189.624 C 257.600 189.197,257.780 188.736,258.000 188.600 C 258.220 188.464,258.400 188.003,258.400 187.576 C 258.400 187.149,258.580 186.800,258.800 186.800 C 259.020 186.800,259.200 186.527,259.200 186.194 C 259.200 185.303,260.153 182.400,260.446 182.400 C 260.584 182.400,260.821 181.455,260.972 180.300 C 261.124 179.145,261.500 177.812,261.809 177.337 C 262.118 176.862,262.490 175.242,262.637 173.737 C 262.784 172.232,263.128 170.730,263.402 170.400 C 263.675 170.070,263.988 168.623,264.097 167.184 C 264.315 164.296,265.643 162.521,269.619 159.800 C 270.584 159.140,271.673 158.330,272.039 158.000 C 273.441 156.737,274.633 155.959,275.500 155.740 C 275.995 155.615,276.400 155.353,276.400 155.157 C 276.400 154.960,276.625 154.796,276.900 154.791 C 277.175 154.786,277.850 154.430,278.400 154.000 C 278.950 153.570,279.620 153.214,279.888 153.209 C 280.157 153.204,281.360 152.750,282.563 152.200 C 283.765 151.650,285.098 151.200,285.525 151.200 C 285.953 151.200,286.511 150.948,286.767 150.640 C 287.050 150.299,288.484 149.970,290.441 149.796 C 292.310 149.631,293.849 149.286,294.125 148.971 C 294.815 148.185,306.860 148.170,308.114 148.954 M170.026 184.647 C 170.371 184.946,171.271 185.308,172.026 185.452 C 172.782 185.595,173.580 185.835,173.800 185.984 C 174.499 186.459,177.945 187.350,181.104 187.873 C 181.821 187.991,182.506 188.249,182.627 188.444 C 182.748 188.640,183.816 188.800,185.000 188.800 C 186.184 188.800,187.264 188.980,187.400 189.200 C 187.536 189.420,188.616 189.600,189.800 189.600 C 190.984 189.600,192.064 189.780,192.200 190.000 C 192.514 190.508,211.287 190.545,211.820 190.039 C 212.176 189.701,213.144 189.532,217.900 188.979 C 218.945 188.858,220.160 188.606,220.600 188.421 C 221.040 188.236,222.480 187.866,223.800 187.599 C 226.151 187.124,227.801 186.650,229.400 185.988 C 229.840 185.806,230.884 185.545,231.721 185.407 C 232.558 185.269,233.342 184.896,233.464 184.578 C 233.586 184.260,233.981 184.003,234.343 184.006 C 234.765 184.010,234.839 184.117,234.550 184.306 C 234.303 184.468,233.977 185.170,233.826 185.867 C 233.675 186.563,233.315 187.224,233.027 187.334 C 232.739 187.445,232.377 188.037,232.223 188.650 C 232.069 189.263,231.596 190.007,231.172 190.305 C 230.747 190.602,230.400 191.195,230.400 191.623 C 230.400 192.050,230.259 192.400,230.086 192.400 C 229.914 192.400,229.433 192.975,229.018 193.677 C 227.634 196.020,215.589 207.600,214.537 207.600 C 214.241 207.600,214.000 207.870,214.000 208.200 C 214.000 208.530,213.646 208.800,213.214 208.800 C 212.782 208.800,212.243 209.145,212.017 209.567 C 211.791 209.990,211.053 210.457,210.376 210.605 C 209.700 210.754,209.053 211.117,208.940 211.413 C 208.826 211.709,208.221 212.064,207.594 212.201 C 206.968 212.339,206.250 212.698,206.000 213.000 C 205.750 213.302,205.019 213.664,204.377 213.805 C 203.735 213.946,203.106 214.228,202.981 214.431 C 202.689 214.903,199.718 214.915,199.428 214.445 C 199.307 214.250,198.567 213.970,197.783 213.823 C 196.999 213.676,196.258 213.296,196.136 212.978 C 196.014 212.660,195.598 212.400,195.211 212.400 C 194.824 212.400,194.079 212.065,193.554 211.655 C 193.029 211.245,192.150 210.769,191.600 210.598 C 191.050 210.426,190.365 209.951,190.077 209.543 C 189.790 209.134,189.335 208.800,189.066 208.800 C 188.798 208.800,188.270 208.440,187.893 208.000 C 187.516 207.560,186.936 207.200,186.604 207.200 C 186.272 207.200,183.120 204.320,179.600 200.800 C 176.080 197.280,173.200 194.128,173.200 193.796 C 173.200 193.464,172.840 192.884,172.400 192.507 C 171.960 192.130,171.600 191.602,171.600 191.334 C 171.600 191.065,171.266 190.610,170.857 190.323 C 170.449 190.035,169.974 189.350,169.802 188.800 C 169.631 188.250,169.155 187.371,168.745 186.846 C 168.335 186.321,168.000 185.556,168.000 185.146 C 168.000 184.736,167.820 184.400,167.600 184.400 C 167.380 184.400,167.200 184.245,167.200 184.055 C 167.200 183.565,169.280 184.000,170.026 184.647 M207.780 246.437 C 207.989 246.637,208.563 246.800,209.056 246.800 C 209.549 246.800,210.064 246.980,210.200 247.200 C 210.336 247.420,210.797 247.600,211.224 247.600 C 211.651 247.600,212.000 247.760,212.000 247.957 C 212.000 248.153,212.437 248.423,212.972 248.557 C 213.507 248.691,214.182 249.026,214.472 249.301 C 214.762 249.575,215.720 250.302,216.600 250.915 C 217.480 251.528,218.560 252.494,219.000 253.062 C 219.440 253.630,220.115 254.434,220.500 254.848 C 220.885 255.261,221.200 255.745,221.200 255.922 C 221.200 256.100,221.650 256.855,222.200 257.600 C 222.750 258.345,223.200 259.221,223.200 259.546 C 223.200 259.871,223.455 260.421,223.768 260.769 C 224.287 261.346,224.979 264.719,225.487 269.144 C 225.597 270.104,225.500 271.274,225.270 271.744 C 225.040 272.215,224.735 273.827,224.591 275.326 C 224.431 277.006,224.129 278.129,223.805 278.254 C 223.515 278.365,223.161 279.082,223.017 279.849 C 222.873 280.615,222.496 281.342,222.178 281.464 C 221.860 281.586,221.600 281.938,221.600 282.247 C 221.600 282.555,221.240 283.116,220.800 283.493 C 220.360 283.870,220.000 284.393,220.000 284.655 C 220.000 285.397,215.402 289.600,214.591 289.600 C 214.320 289.600,213.878 289.865,213.609 290.189 C 213.340 290.514,212.520 290.891,211.788 291.029 C 211.055 291.166,210.364 291.517,210.252 291.807 C 210.136 292.111,209.060 292.455,207.725 292.616 C 206.446 292.771,204.793 293.145,204.051 293.448 C 202.315 294.158,199.246 294.155,197.761 293.442 C 197.123 293.134,195.554 292.760,194.275 292.610 C 192.897 292.448,191.866 292.115,191.742 291.793 C 191.627 291.494,190.989 291.129,190.324 290.983 C 189.092 290.713,186.987 289.444,185.800 288.258 C 185.439 287.896,184.898 287.600,184.598 287.600 C 184.299 287.600,183.940 287.240,183.800 286.800 C 183.660 286.360,183.288 286.000,182.973 286.000 C 182.658 286.000,182.400 285.744,182.400 285.431 C 182.400 285.118,181.950 284.327,181.400 283.673 C 180.850 283.019,180.400 282.363,180.400 282.214 C 180.400 282.065,180.121 281.664,179.780 281.323 C 179.440 280.982,179.057 280.185,178.930 279.552 C 178.804 278.918,178.543 278.400,178.350 278.400 C 178.158 278.400,178.000 277.871,178.000 277.224 C 178.000 276.577,177.820 275.936,177.600 275.800 C 177.380 275.664,177.200 274.764,177.200 273.800 C 177.200 272.836,177.000 271.924,176.756 271.773 C 176.159 271.404,176.931 263.771,177.641 263.020 C 177.838 262.811,178.000 262.314,178.000 261.915 C 178.000 261.150,178.245 260.557,179.368 258.600 C 179.746 257.940,180.263 256.905,180.516 256.300 C 180.769 255.695,181.202 255.200,181.480 255.200 C 181.758 255.200,182.098 254.750,182.236 254.200 C 182.374 253.650,182.737 253.200,183.043 253.200 C 183.350 253.200,183.600 252.926,183.600 252.590 C 183.600 252.255,184.050 251.809,184.600 251.600 C 185.150 251.391,185.600 251.035,185.600 250.810 C 185.600 250.584,185.861 250.400,186.180 250.400 C 186.499 250.400,186.904 250.175,187.080 249.900 C 187.499 249.245,189.028 248.400,189.795 248.400 C 190.128 248.400,190.401 248.265,190.403 248.100 C 190.407 247.712,192.369 246.800,193.200 246.800 C 193.552 246.800,194.011 246.630,194.220 246.423 C 195.035 245.614,206.932 245.626,207.780 246.437 " stroke="none" fill="#040404" fill-rule="evenodd"></path></g></svg>