<svg id="svg" version="1.1" width="400" height="400" viewBox="0 0 400 400" xmlns="http://www.w3.org/2000/svg" xmlns:xlink="http://www.w3.org/1999/xlink" ><g id="svgg"><path id="path0" d="M193.822 21.388 C 193.435 21.488,192.468 22.215,191.672 23.004 L 190.225 24.438 190.225 46.530 C 190.225 71.320,190.042 69.750,193.129 71.417 C 196.666 73.327,200.795 71.946,202.579 68.255 C 203.393 66.572,203.769 26.519,202.976 26.029 C 202.785 25.911,202.509 25.337,202.362 24.755 C 201.668 21.989,197.635 20.399,193.822 21.388 M86.846 65.989 C 83.731 67.568,82.742 69.919,83.532 73.866 C 83.809 75.253,112.326 104.161,114.072 104.825 C 117.567 106.154,121.296 104.602,122.878 101.160 C 124.653 97.299,124.385 96.928,107.908 80.458 C 91.026 63.584,91.265 63.749,86.846 65.989 M301.689 65.255 C 301.570 65.446,301.005 65.720,300.433 65.864 C 298.559 66.334,270.298 94.995,269.967 96.761 C 268.891 102.496,272.488 106.083,278.235 105.005 C 280.592 104.563,308.490 76.496,309.452 73.599 C 310.243 71.218,309.908 69.616,308.194 67.579 C 306.558 65.635,302.377 64.141,301.689 65.255 M189.834 90.721 C 184.562 91.059,174.648 92.673,173.203 93.429 C 172.874 93.601,171.994 93.869,171.248 94.025 C 169.623 94.364,163.329 96.430,161.681 97.166 C 157.194 99.168,148.747 103.453,148.192 104.008 C 147.764 104.435,145.472 105.963,145.258 105.963 C 145.047 105.963,144.591 106.303,143.388 107.357 C 143.127 107.586,142.626 107.938,142.275 108.139 C 140.913 108.920,134.408 114.450,134.181 115.020 C 134.109 115.200,133.895 115.347,133.705 115.347 C 133.353 115.347,130.596 117.959,130.596 118.293 C 130.596 118.393,130.288 118.796,129.912 119.188 C 128.913 120.229,126.639 122.891,125.513 124.338 C 124.976 125.029,124.360 125.796,124.145 126.043 C 123.208 127.116,118.475 134.433,118.475 134.809 C 118.475 135.037,118.339 135.282,118.173 135.354 C 118.007 135.425,116.939 137.419,115.800 139.785 C 114.660 142.151,113.587 144.356,113.414 144.685 C 113.242 145.015,112.977 145.849,112.825 146.538 C 112.674 147.228,112.387 147.892,112.189 148.015 C 111.990 148.137,111.828 148.597,111.828 149.035 C 111.828 149.474,111.590 150.387,111.299 151.065 C 110.633 152.618,109.936 155.196,109.432 157.967 C 109.217 159.150,108.886 160.469,108.695 160.899 C 107.489 163.627,106.953 180.105,107.850 186.901 C 108.779 193.944,111.729 205.098,113.621 208.724 C 113.922 209.302,114.170 209.900,114.172 210.054 C 114.186 211.662,123.478 227.212,125.358 228.772 C 125.658 229.022,125.904 229.388,125.904 229.585 C 125.904 229.783,126.083 230.158,126.302 230.417 C 127.882 232.290,128.250 232.827,128.250 233.254 C 128.250 233.520,128.514 233.840,128.837 233.963 C 129.159 234.087,129.423 234.458,129.423 234.787 C 129.423 235.117,129.587 235.386,129.788 235.386 C 129.988 235.386,130.276 235.782,130.427 236.266 C 130.578 236.750,130.810 237.234,130.942 237.341 C 131.437 237.744,132.942 240.061,132.942 240.421 C 132.942 240.627,133.074 240.854,133.236 240.925 C 133.542 241.062,134.223 242.209,135.747 245.161 C 136.247 246.129,136.744 247.009,136.852 247.116 C 136.960 247.224,137.456 248.192,137.955 249.267 C 138.453 250.342,139.088 251.662,139.365 252.199 C 139.643 252.737,140.082 254.057,140.342 255.132 C 140.601 256.207,141.034 257.439,141.303 257.869 C 141.573 258.299,142.726 261.554,143.865 265.103 C 145.004 268.651,146.080 271.841,146.255 272.190 C 146.430 272.540,146.697 273.508,146.847 274.341 C 146.998 275.174,147.257 276.031,147.424 276.246 C 147.591 276.461,147.854 277.517,148.009 278.592 C 148.164 279.668,148.424 280.723,148.588 280.938 C 148.751 281.153,149.003 282.121,149.147 283.089 C 149.291 284.057,149.567 285.200,149.761 285.630 C 149.954 286.061,150.286 287.468,150.499 288.759 C 151.143 292.662,151.719 295.363,152.084 296.188 C 154.378 301.374,157.999 306.549,159.334 306.549 C 159.421 306.549,160.250 307.061,161.178 307.687 C 162.105 308.313,163.521 308.948,164.325 309.099 C 165.129 309.250,165.787 309.506,165.787 309.667 C 165.787 310.204,172.087 310.446,187.097 310.483 C 222.600 310.573,229.421 310.244,230.238 308.407 C 230.310 308.245,230.574 308.113,230.826 308.113 C 232.780 308.113,237.535 303.218,239.572 299.107 C 240.262 297.717,240.936 296.051,241.071 295.406 C 241.206 294.761,241.421 293.969,241.550 293.646 C 241.678 293.324,242.003 291.828,242.271 290.323 C 243.313 284.491,243.636 282.965,243.956 282.354 C 244.139 282.006,244.417 280.929,244.574 279.961 C 244.730 278.993,244.992 278.025,245.155 277.810 C 245.317 277.595,245.577 276.716,245.732 275.855 C 245.887 274.995,246.146 274.115,246.309 273.900 C 246.759 273.304,247.587 270.008,247.497 269.169 C 247.323 267.544,247.492 266.820,247.898 267.449 C 248.182 267.887,248.279 267.677,248.283 266.617 C 248.287 265.837,248.553 264.979,248.876 264.712 C 249.198 264.444,249.462 263.930,249.462 263.569 C 249.462 263.208,249.605 262.746,249.780 262.542 C 249.955 262.337,250.508 260.850,251.009 259.238 C 251.510 257.625,252.071 256.138,252.255 255.934 C 252.440 255.729,252.596 255.289,252.604 254.956 C 252.611 254.623,252.957 253.646,253.372 252.786 C 253.788 251.926,254.134 251.002,254.141 250.733 C 254.148 250.464,254.316 250.244,254.514 250.244 C 254.712 250.244,254.990 249.717,255.132 249.071 C 255.274 248.426,255.538 247.898,255.718 247.898 C 255.899 247.898,256.163 247.370,256.305 246.725 C 256.447 246.080,256.725 245.552,256.923 245.552 C 257.121 245.552,257.283 245.355,257.283 245.115 C 257.283 244.659,259.969 240.029,260.432 239.687 C 260.577 239.580,260.820 239.096,260.971 238.612 C 261.122 238.128,261.409 237.732,261.610 237.732 C 261.810 237.732,261.975 237.463,261.975 237.133 C 261.975 236.804,262.239 236.433,262.561 236.310 C 262.884 236.186,263.148 235.866,263.148 235.600 C 263.148 235.173,263.516 234.636,265.095 232.763 C 265.314 232.504,265.494 232.179,265.494 232.043 C 265.494 231.907,265.802 231.392,266.178 230.899 C 266.554 230.406,267.126 229.609,267.449 229.127 C 267.771 228.646,268.211 228.054,268.426 227.811 C 269.378 226.738,274.096 219.423,274.096 219.020 C 274.096 218.774,274.272 218.573,274.487 218.573 C 274.702 218.573,274.878 218.321,274.878 218.014 C 274.878 217.707,275.098 217.223,275.367 216.939 C 275.980 216.290,277.615 212.969,277.615 212.372 C 277.615 212.126,277.791 211.926,278.006 211.926 C 278.221 211.926,278.397 211.650,278.397 211.313 C 278.397 210.977,278.612 210.317,278.874 209.847 C 280.053 207.737,282.827 199.222,283.292 196.285 C 283.445 195.318,283.682 194.350,283.818 194.135 C 284.925 192.390,285.933 178.473,285.461 171.444 C 285.039 165.157,283.452 155.497,282.636 154.249 C 282.494 154.033,282.249 153.169,282.092 152.331 C 281.935 151.492,281.568 150.350,281.277 149.792 C 280.986 149.234,280.747 148.412,280.745 147.964 C 280.744 147.515,280.630 147.036,280.491 146.897 C 280.119 146.525,278.401 142.210,278.399 141.642 C 278.398 141.373,278.235 141.153,278.037 141.153 C 277.839 141.153,277.561 140.626,277.419 139.980 C 277.278 139.335,277.019 138.807,276.844 138.807 C 276.670 138.807,276.406 138.325,276.258 137.736 C 276.110 137.147,275.860 136.575,275.703 136.465 C 275.259 136.156,272.532 131.521,272.532 131.076 C 272.532 130.858,272.268 130.579,271.945 130.455 C 271.623 130.331,271.359 129.960,271.359 129.631 C 271.359 129.302,271.210 129.032,271.027 129.032 C 270.845 129.032,270.537 128.700,270.343 128.295 C 269.943 127.458,268.624 125.734,266.773 123.626 C 266.080 122.836,265.508 122.070,265.503 121.923 C 265.491 121.575,255.746 111.831,255.398 111.819 C 255.252 111.814,254.428 111.198,253.568 110.450 C 252.708 109.702,251.807 108.929,251.567 108.732 C 250.583 107.927,245.975 104.863,243.597 103.433 C 242.199 102.593,240.966 101.776,240.856 101.619 C 240.747 101.462,240.175 101.212,239.586 101.064 C 238.996 100.916,238.514 100.652,238.514 100.477 C 238.514 100.303,237.986 100.044,237.341 99.902 C 236.696 99.761,236.168 99.483,236.168 99.285 C 236.168 99.087,235.975 98.925,235.738 98.925 C 235.502 98.925,234.754 98.676,234.077 98.373 C 230.152 96.616,222.081 93.842,220.892 93.842 C 220.502 93.842,220.085 93.683,219.965 93.489 C 219.845 93.295,218.691 93.014,217.400 92.864 C 216.109 92.714,214.966 92.451,214.860 92.280 C 214.754 92.109,213.215 91.842,211.439 91.687 C 209.664 91.533,207.947 91.273,207.625 91.111 C 206.747 90.668,194.750 90.405,189.834 90.721 M206.957 104.700 C 210.533 105.134,213.182 105.670,216.300 106.593 C 217.308 106.892,218.452 107.137,218.842 107.138 C 219.231 107.140,220.042 107.397,220.642 107.710 C 221.243 108.023,222.342 108.394,223.086 108.533 C 223.830 108.673,224.438 108.943,224.438 109.134 C 224.438 109.326,224.746 109.481,225.122 109.480 C 226.015 109.477,236.168 114.553,236.168 115.003 C 236.168 115.192,236.371 115.347,236.620 115.347 C 237.210 115.347,243.206 119.295,243.206 119.683 C 243.206 119.847,243.452 120.039,243.753 120.108 C 245.497 120.511,256.801 131.823,257.213 133.577 C 257.283 133.873,257.474 134.115,257.638 134.115 C 258.027 134.115,261.975 140.112,261.975 140.702 C 261.975 140.950,262.122 141.153,262.301 141.153 C 262.858 141.153,267.075 149.908,268.327 153.666 C 270.072 158.901,270.254 159.644,271.003 164.614 C 271.214 166.012,271.556 167.906,271.763 168.823 C 271.971 169.740,272.141 173.212,272.141 176.540 C 272.141 179.867,271.971 183.339,271.763 184.256 C 271.556 185.173,271.215 187.067,271.005 188.465 C 270.346 192.857,269.771 195.647,269.437 196.071 C 269.260 196.297,268.992 197.162,268.841 197.995 C 268.691 198.828,268.417 199.796,268.231 200.146 C 268.046 200.496,267.488 201.838,266.991 203.128 C 266.494 204.418,265.968 205.564,265.822 205.674 C 265.675 205.783,265.435 206.355,265.287 206.944 C 265.139 207.534,264.875 208.016,264.700 208.016 C 264.526 208.016,264.267 208.543,264.125 209.189 C 263.983 209.834,263.725 210.362,263.550 210.362 C 263.375 210.362,263.122 210.802,262.987 211.339 C 262.852 211.877,262.569 212.317,262.358 212.317 C 262.147 212.317,261.975 212.473,261.975 212.663 C 261.975 213.177,259.174 217.400,258.833 217.400 C 258.672 217.400,258.430 217.840,258.295 218.377 C 258.160 218.915,257.877 219.355,257.666 219.355 C 257.455 219.355,257.283 219.624,257.283 219.954 C 257.283 220.283,257.019 220.654,256.696 220.777 C 256.373 220.901,256.109 221.176,256.109 221.388 C 256.109 221.600,255.802 222.176,255.425 222.669 C 255.049 223.162,254.477 223.959,254.154 224.441 C 253.832 224.922,253.385 225.514,253.162 225.757 C 252.939 225.999,252.330 226.901,251.808 227.761 C 251.287 228.622,250.634 229.558,250.357 229.842 C 250.080 230.126,249.853 230.610,249.853 230.917 C 249.853 231.225,249.718 231.476,249.552 231.476 C 249.386 231.476,248.818 232.268,248.289 233.236 C 247.761 234.203,247.207 234.995,247.058 234.995 C 246.909 234.995,246.672 235.523,246.530 236.168 C 246.388 236.813,246.154 237.345,246.010 237.349 C 245.866 237.354,245.308 238.318,244.770 239.492 C 244.233 240.666,243.661 241.630,243.500 241.634 C 243.338 241.639,243.200 241.862,243.193 242.131 C 243.186 242.400,242.840 243.324,242.424 244.184 C 242.009 245.044,241.663 245.968,241.655 246.237 C 241.648 246.505,241.509 246.725,241.347 246.725 C 241.051 246.725,240.406 248.369,239.620 251.124 C 239.389 251.931,239.047 252.590,238.858 252.590 C 238.669 252.590,238.513 252.986,238.512 253.470 C 238.510 253.954,238.263 254.822,237.962 255.399 C 237.661 255.976,237.290 257.032,237.137 257.745 C 236.985 258.458,236.725 259.218,236.559 259.433 C 236.394 259.648,236.130 260.440,235.973 261.193 C 235.815 261.945,235.551 262.737,235.385 262.952 C 235.219 263.167,234.960 264.091,234.809 265.005 C 234.659 265.919,234.375 266.667,234.179 266.667 C 233.983 266.667,233.821 267.151,233.820 267.742 C 233.818 268.333,233.572 269.287,233.273 269.861 C 232.974 270.434,232.603 271.666,232.449 272.598 C 232.295 273.529,232.033 274.467,231.867 274.682 C 231.700 274.897,231.439 275.997,231.288 277.126 C 231.136 278.254,230.873 279.264,230.703 279.369 C 230.533 279.474,230.269 280.574,230.116 281.813 C 229.962 283.052,229.702 284.242,229.537 284.457 C 229.372 284.673,229.120 285.885,228.978 287.151 C 228.541 291.039,227.626 293.282,225.729 295.112 L 224.007 296.774 196.865 296.774 C 163.090 296.774,165.746 297.653,163.791 285.826 C 163.560 284.428,163.217 282.933,163.028 282.502 C 162.840 282.072,162.508 280.841,162.292 279.765 C 161.590 276.286,160.902 273.519,160.640 273.115 C 160.499 272.899,160.257 272.019,160.102 271.160 C 159.947 270.302,159.683 269.423,159.515 269.208 C 159.347 268.993,159.083 268.113,158.928 267.253 C 158.773 266.393,158.514 265.513,158.352 265.298 C 158.190 265.083,157.928 264.291,157.771 263.539 C 157.614 262.786,157.350 261.994,157.185 261.779 C 157.019 261.564,156.755 260.772,156.598 260.020 C 156.441 259.267,156.177 258.475,156.012 258.260 C 155.846 258.045,155.586 257.285,155.434 256.572 C 155.281 255.858,154.910 254.803,154.609 254.226 C 154.308 253.649,154.060 252.781,154.059 252.297 C 154.058 251.813,153.895 251.417,153.697 251.417 C 153.499 251.417,153.212 250.851,153.061 250.159 C 152.909 249.468,152.637 248.632,152.457 248.302 C 151.799 247.100,150.538 244.020,150.538 243.619 C 150.538 243.392,150.376 243.206,150.178 243.206 C 149.980 243.206,149.702 242.678,149.560 242.033 C 149.418 241.388,149.154 240.860,148.974 240.860 C 148.793 240.860,148.529 240.332,148.387 239.687 C 148.245 239.042,148.006 238.514,147.855 238.514 C 147.704 238.514,147.373 238.030,147.118 237.439 C 146.600 236.233,145.890 235.094,145.161 234.299 C 144.892 234.006,144.673 233.515,144.673 233.208 C 144.673 232.900,144.497 232.649,144.282 232.649 C 144.066 232.649,143.891 232.398,143.891 232.090 C 143.891 231.783,143.664 231.299,143.387 231.015 C 143.110 230.731,142.456 229.795,141.933 228.935 C 140.981 227.367,140.598 226.836,139.687 225.821 C 139.418 225.521,139.198 225.115,139.198 224.917 C 139.198 224.720,138.847 224.241,138.416 223.851 C 137.986 223.462,137.634 222.988,137.634 222.797 C 137.634 222.606,137.455 222.237,137.236 221.978 C 135.657 220.105,135.288 219.568,135.288 219.141 C 135.288 218.875,135.024 218.555,134.702 218.431 C 134.379 218.308,134.115 217.952,134.115 217.640 C 134.115 217.329,133.983 217.015,133.822 216.944 C 133.377 216.746,131.769 214.360,131.769 213.897 C 131.769 213.673,131.605 213.490,131.405 213.490 C 131.204 213.490,130.916 213.094,130.765 212.610 C 130.614 212.126,130.383 211.642,130.250 211.534 C 130.118 211.427,129.685 210.723,129.289 209.970 C 128.892 209.218,128.328 208.162,128.034 207.625 C 127.741 207.087,127.129 205.767,126.674 204.692 C 126.220 203.617,125.596 202.183,125.289 201.505 C 124.982 200.827,124.731 199.939,124.731 199.530 C 124.731 199.122,124.565 198.621,124.363 198.416 C 123.975 198.026,123.360 195.847,122.712 192.571 C 122.499 191.496,122.160 190.068,121.958 189.399 C 120.852 185.731,120.844 166.041,121.947 163.894 C 122.130 163.537,122.403 162.282,122.553 161.105 C 122.704 159.927,122.968 158.783,123.141 158.563 C 123.314 158.343,123.568 157.540,123.705 156.779 C 123.950 155.418,125.781 150.345,126.897 147.937 C 127.211 147.259,127.468 146.512,127.468 146.275 C 127.468 146.039,127.600 145.844,127.761 145.842 C 127.923 145.839,128.484 144.872,129.009 143.691 C 129.534 142.510,130.106 141.544,130.280 141.544 C 130.454 141.544,130.596 141.374,130.596 141.165 C 130.596 140.814,134.192 135.275,135.088 134.247 C 135.306 133.997,135.924 133.207,136.461 132.492 C 138.412 129.898,141.642 126.497,144.897 123.608 C 148.473 120.435,148.774 120.190,150.733 118.865 C 151.808 118.138,152.747 117.401,152.819 117.227 C 152.890 117.053,153.095 116.911,153.273 116.911 C 153.451 116.911,154.533 116.295,155.675 115.543 C 156.818 114.790,157.963 114.174,158.219 114.174 C 158.474 114.174,158.742 114.033,158.814 113.861 C 158.994 113.428,164.546 110.655,165.232 110.655 C 165.537 110.655,165.787 110.521,165.787 110.358 C 165.787 110.195,166.975 109.653,168.426 109.154 C 169.878 108.655,171.417 108.088,171.848 107.894 C 172.608 107.551,173.625 107.279,178.495 106.119 C 182.676 105.122,184.627 104.790,186.466 104.762 C 187.458 104.747,188.622 104.580,189.052 104.390 C 190.063 103.945,202.499 104.160,206.957 104.700 M215.854 118.761 C 212.372 120.131,211.768 127.403,215.050 128.444 C 215.482 128.582,215.836 128.838,215.836 129.015 C 215.836 129.192,216.452 129.452,217.204 129.593 C 217.957 129.734,218.573 130.004,218.573 130.192 C 218.573 130.380,219.101 130.650,219.746 130.792 C 220.391 130.933,220.919 131.197,220.919 131.378 C 220.919 131.559,221.447 131.823,222.092 131.965 C 222.737 132.107,223.265 132.384,223.265 132.582 C 223.265 132.780,223.465 132.942,223.710 132.942 C 223.955 132.942,225.014 133.470,226.062 134.115 C 227.980 135.296,232.649 135.869,232.649 134.924 C 232.649 134.723,232.963 134.459,233.346 134.338 C 236.586 133.309,235.423 124.340,232.050 124.340 C 231.770 124.340,231.483 124.208,231.411 124.047 C 231.279 123.751,230.308 123.198,226.393 121.190 C 221.302 118.579,218.157 117.854,215.854 118.761 M239.883 135.960 C 236.400 137.651,236.000 143.233,239.161 146.032 C 239.922 146.705,243.206 151.825,243.206 152.337 C 243.206 152.602,243.338 152.877,243.500 152.949 C 243.872 153.115,245.552 156.536,245.552 157.130 C 245.552 157.375,245.726 157.576,245.939 157.576 C 246.151 157.576,246.438 158.280,246.575 159.140 C 246.713 160.000,246.968 160.704,247.142 160.704 C 247.317 160.704,247.583 161.540,247.733 162.561 C 247.884 163.583,248.143 164.507,248.309 164.615 C 249.281 165.250,250.264 180.275,249.460 182.215 C 248.554 184.403,248.768 190.081,249.809 191.468 C 252.706 195.329,259.166 193.682,259.857 188.906 C 260.001 187.911,260.279 186.894,260.476 186.646 C 261.027 185.952,261.302 173.423,260.843 169.892 C 260.122 164.340,259.525 161.095,259.227 161.095 C 259.067 161.095,258.817 160.307,258.673 159.344 C 258.528 158.382,258.260 157.501,258.076 157.387 C 257.892 157.274,257.623 156.478,257.478 155.619 C 257.333 154.760,257.053 154.057,256.857 154.057 C 256.661 154.057,256.495 153.837,256.487 153.568 C 256.480 153.299,256.134 152.375,255.718 151.515 C 255.303 150.655,254.957 149.746,254.950 149.495 C 254.942 149.244,254.804 148.980,254.643 148.908 C 254.482 148.837,253.910 147.901,253.372 146.830 C 252.835 145.759,252.219 144.690,252.004 144.455 C 251.789 144.221,251.265 143.382,250.840 142.591 C 250.414 141.800,249.931 141.153,249.764 141.153 C 249.598 141.153,249.462 140.898,249.462 140.586 C 249.462 140.274,249.241 139.879,248.970 139.707 C 248.699 139.535,248.039 138.739,247.504 137.938 C 246.916 137.059,246.103 136.387,245.455 136.245 C 244.863 136.115,244.379 135.846,244.379 135.648 C 244.379 135.098,241.205 135.317,239.883 135.960 M42.872 172.321 C 40.345 173.648,39.101 175.672,39.101 178.459 C 39.101 180.524,40.242 183.382,41.066 183.382 C 41.245 183.382,41.699 183.690,42.075 184.066 C 43.025 185.017,85.630 185.357,85.630 184.414 C 85.630 183.426,87.829 181.427,88.915 181.427 C 89.746 181.427,89.932 181.244,89.932 180.424 C 89.932 179.872,90.124 179.062,90.359 178.622 C 90.668 178.045,90.668 177.706,90.359 177.397 C 90.124 177.162,89.932 176.659,89.932 176.279 C 89.932 175.267,87.682 172.876,86.113 172.220 C 84.063 171.364,44.520 171.456,42.872 172.321 M307.554 172.000 C 307.435 172.191,306.895 172.459,306.352 172.595 C 305.174 172.891,303.812 173.986,303.812 174.639 C 303.812 174.896,303.610 175.173,303.362 175.256 C 301.193 175.979,303.186 182.735,305.980 184.131 C 308.474 185.377,349.491 185.249,351.146 183.991 C 355.295 180.838,354.676 174.593,349.989 172.302 C 348.495 171.572,307.996 171.284,307.554 172.000 M114.174 252.126 C 112.467 252.947,84.215 281.082,83.678 282.497 C 82.226 286.314,84.352 290.622,88.223 291.705 C 91.547 292.636,96.360 290.509,97.590 287.566 C 97.883 286.863,98.266 286.229,98.440 286.155 C 98.615 286.082,99.137 285.480,99.601 284.819 C 100.119 284.081,101.042 283.438,101.994 283.153 C 103.575 282.679,105.963 280.407,105.963 279.377 C 105.963 279.070,106.672 278.164,107.538 277.362 C 108.404 276.561,109.215 275.498,109.340 275.000 C 109.465 274.503,109.734 274.096,109.938 274.096 C 110.143 274.096,110.185 273.893,110.031 273.644 C 109.856 273.362,109.924 273.299,110.212 273.477 C 110.837 273.864,121.671 262.967,122.736 260.881 C 125.449 255.563,119.556 249.536,114.174 252.126 M275.073 251.790 C 270.888 252.833,268.724 256.292,269.868 260.109 C 270.694 262.867,299.354 291.170,301.673 291.518 C 305.719 292.124,308.277 290.625,309.505 286.929 C 310.719 283.275,310.733 283.294,294.514 267.075 C 278.669 251.230,278.344 250.975,275.073 251.790 M165.787 316.520 C 165.519 316.843,165.097 317.107,164.848 317.107 C 164.599 317.107,164.137 317.480,163.820 317.936 C 163.504 318.393,162.991 319.031,162.680 319.353 C 161.815 320.252,161.871 324.976,162.757 325.862 C 163.133 326.239,163.441 326.777,163.441 327.060 C 163.441 327.342,163.749 327.684,164.125 327.820 C 164.501 327.956,165.249 328.327,165.787 328.646 C 166.631 329.145,170.903 329.211,197.067 329.128 L 227.370 329.032 228.935 327.504 L 230.499 325.975 230.499 322.736 C 230.499 319.420,229.059 316.716,227.294 316.716 C 227.013 316.716,226.784 316.542,226.784 316.329 C 226.784 315.620,166.377 315.809,165.787 316.520 M170.283 335.463 C 165.316 337.704,165.287 344.565,170.236 347.034 C 172.139 347.983,221.133 347.878,222.903 346.921 C 224.662 345.970,225.549 345.057,225.840 343.897 C 225.977 343.352,226.245 342.809,226.436 342.691 C 228.192 341.606,225.418 336.505,222.458 335.374 C 219.703 334.322,172.635 334.402,170.283 335.463 M173.998 353.422 C 173.998 353.611,174.262 353.984,174.585 354.252 C 174.907 354.520,175.171 354.878,175.171 355.049 C 175.171 356.602,184.978 365.200,186.750 365.200 C 186.876 365.200,187.533 365.447,188.211 365.749 C 190.327 366.691,195.305 367.643,197.105 367.450 C 199.898 367.149,203.419 366.374,204.888 365.737 C 207.241 364.715,208.963 363.847,209.442 363.441 C 209.696 363.226,210.482 362.610,211.189 362.072 C 212.835 360.820,215.366 358.290,216.618 356.643 C 217.155 355.936,217.781 355.153,218.008 354.903 C 219.737 352.998,220.702 353.079,196.469 353.079 C 183.839 353.079,173.998 353.229,173.998 353.422 " stroke="none" fill="#040404" fill-rule="evenodd"></path><path id="path1" d="M189.052 104.390 C 188.622 104.580,187.458 104.747,186.466 104.762 C 184.627 104.790,182.676 105.122,178.495 106.119 C 173.625 107.279,172.608 107.551,171.848 107.894 C 171.417 108.088,169.878 108.655,168.426 109.154 C 166.975 109.653,165.787 110.195,165.787 110.358 C 165.787 110.521,165.537 110.655,165.232 110.655 C 164.546 110.655,158.994 113.428,158.814 113.861 C 158.742 114.033,158.474 114.174,158.219 114.174 C 157.963 114.174,156.818 114.790,155.675 115.543 C 154.533 116.295,153.451 116.911,153.273 116.911 C 153.095 116.911,152.890 117.053,152.819 117.227 C 152.747 117.401,151.808 118.138,150.733 118.865 C 148.774 120.190,148.473 120.435,144.897 123.608 C 141.642 126.497,138.412 129.898,136.461 132.492 C 135.924 133.207,135.306 133.997,135.088 134.247 C 134.192 135.275,130.596 140.814,130.596 141.165 C 130.596 141.374,130.454 141.544,130.280 141.544 C 130.106 141.544,129.534 142.510,129.009 143.691 C 128.484 144.872,127.923 145.839,127.761 145.842 C 127.600 145.844,127.468 146.039,127.468 146.275 C 127.468 146.512,127.211 147.259,126.897 147.937 C 125.781 150.345,123.950 155.418,123.705 156.779 C 123.568 157.540,123.314 158.343,123.141 158.563 C 122.968 158.783,122.704 159.927,122.553 161.105 C 122.403 162.282,122.130 163.537,121.947 163.894 C 120.844 166.041,120.852 185.731,121.958 189.399 C 122.160 190.068,122.499 191.496,122.712 192.571 C 123.360 195.847,123.975 198.026,124.363 198.416 C 124.565 198.621,124.731 199.122,124.731 199.530 C 124.731 199.939,124.982 200.827,125.289 201.505 C 125.596 202.183,126.220 203.617,126.674 204.692 C 127.129 205.767,127.741 207.087,128.034 207.625 C 128.328 208.162,128.892 209.218,129.289 209.970 C 129.685 210.723,130.118 211.427,130.250 211.534 C 130.383 211.642,130.614 212.126,130.765 212.610 C 130.916 213.094,131.204 213.490,131.405 213.490 C 131.605 213.490,131.769 213.673,131.769 213.897 C 131.769 214.360,133.377 216.746,133.822 216.944 C 133.983 217.015,134.115 217.329,134.115 217.640 C 134.115 217.952,134.379 218.308,134.702 218.431 C 135.024 218.555,135.288 218.875,135.288 219.141 C 135.288 219.568,135.657 220.105,137.236 221.978 C 137.455 222.237,137.634 222.606,137.634 222.797 C 137.634 222.988,137.986 223.462,138.416 223.851 C 138.847 224.241,139.198 224.720,139.198 224.917 C 139.198 225.115,139.418 225.521,139.687 225.821 C 140.598 226.836,140.981 227.367,141.933 228.935 C 142.456 229.795,143.110 230.731,143.387 231.015 C 143.664 231.299,143.891 231.783,143.891 232.090 C 143.891 232.398,144.066 232.649,144.282 232.649 C 144.497 232.649,144.673 232.900,144.673 233.208 C 144.673 233.515,144.892 234.006,145.161 234.299 C 145.890 235.094,146.600 236.233,147.118 237.439 C 147.373 238.030,147.704 238.514,147.855 238.514 C 148.006 238.514,148.245 239.042,148.387 239.687 C 148.529 240.332,148.793 240.860,148.974 240.860 C 149.154 240.860,149.418 241.388,149.560 242.033 C 149.702 242.678,149.980 243.206,150.178 243.206 C 150.376 243.206,150.538 243.392,150.538 243.619 C 150.538 244.020,151.799 247.100,152.457 248.302 C 152.637 248.632,152.909 249.468,153.061 250.159 C 153.212 250.851,153.499 251.417,153.697 251.417 C 153.895 251.417,154.058 251.813,154.059 252.297 C 154.060 252.781,154.308 253.649,154.609 254.226 C 154.910 254.803,155.281 255.858,155.434 256.572 C 155.586 257.285,155.846 258.045,156.012 258.260 C 156.177 258.475,156.441 259.267,156.598 260.020 C 156.755 260.772,157.019 261.564,157.185 261.779 C 157.350 261.994,157.614 262.786,157.771 263.539 C 157.928 264.291,158.190 265.083,158.352 265.298 C 158.514 265.513,158.773 266.393,158.928 267.253 C 159.083 268.113,159.347 268.993,159.515 269.208 C 159.683 269.423,159.947 270.302,160.102 271.160 C 160.257 272.019,160.499 272.899,160.640 273.115 C 160.902 273.519,161.590 276.286,162.292 279.765 C 162.508 280.841,162.840 282.072,163.028 282.502 C 163.217 282.933,163.560 284.428,163.791 285.826 C 164.609 290.777,165.013 292.209,166.058 293.860 C 167.998 296.927,166.379 296.774,196.865 296.774 L 224.007 296.774 225.729 295.112 C 227.626 293.282,228.541 291.039,228.978 287.151 C 229.120 285.885,229.372 284.673,229.537 284.457 C 229.702 284.242,229.962 283.052,230.116 281.813 C 230.269 280.574,230.533 279.474,230.703 279.369 C 230.873 279.264,231.136 278.254,231.288 277.126 C 231.439 275.997,231.700 274.897,231.867 274.682 C 232.033 274.467,232.295 273.529,232.449 272.598 C 232.603 271.666,232.974 270.434,233.273 269.861 C 233.572 269.287,233.818 268.333,233.820 267.742 C 233.821 267.151,233.983 266.667,234.179 266.667 C 234.375 266.667,234.659 265.919,234.809 265.005 C 234.960 264.091,235.219 263.167,235.385 262.952 C 235.551 262.737,235.815 261.945,235.973 261.193 C 236.130 260.440,236.394 259.648,236.559 259.433 C 236.725 259.218,236.985 258.458,237.137 257.745 C 237.290 257.032,237.661 255.976,237.962 255.399 C 238.263 254.822,238.510 253.954,238.512 253.470 C 238.513 252.986,238.669 252.590,238.858 252.590 C 239.047 252.590,239.389 251.931,239.620 251.124 C 240.406 248.369,241.051 246.725,241.347 246.725 C 241.509 246.725,241.648 246.505,241.655 246.237 C 241.663 245.968,242.009 245.044,242.424 244.184 C 242.840 243.324,243.186 242.400,243.193 242.131 C 243.200 241.862,243.338 241.639,243.500 241.634 C 243.661 241.630,244.233 240.666,244.770 239.492 C 245.308 238.318,245.866 237.354,246.010 237.349 C 246.154 237.345,246.388 236.813,246.530 236.168 C 246.672 235.523,246.909 234.995,247.058 234.995 C 247.207 234.995,247.761 234.203,248.289 233.236 C 248.818 232.268,249.386 231.476,249.552 231.476 C 249.718 231.476,249.853 231.225,249.853 230.917 C 249.853 230.610,250.080 230.126,250.357 229.842 C 250.634 229.558,251.287 228.622,251.808 227.761 C 252.330 226.901,252.939 225.999,253.162 225.757 C 253.385 225.514,253.832 224.922,254.154 224.441 C 254.477 223.959,255.049 223.162,255.425 222.669 C 255.802 222.176,256.109 221.600,256.109 221.388 C 256.109 221.176,256.373 220.901,256.696 220.777 C 257.019 220.654,257.283 220.283,257.283 219.954 C 257.283 219.624,257.455 219.355,257.666 219.355 C 257.877 219.355,258.160 218.915,258.295 218.377 C 258.430 217.840,258.672 217.400,258.833 217.400 C 259.174 217.400,261.975 213.177,261.975 212.663 C 261.975 212.473,262.147 212.317,262.358 212.317 C 262.569 212.317,262.852 211.877,262.987 211.339 C 263.122 210.802,263.375 210.362,263.550 210.362 C 263.725 210.362,263.983 209.834,264.125 209.189 C 264.267 208.543,264.526 208.016,264.700 208.016 C 264.875 208.016,265.139 207.534,265.287 206.944 C 265.435 206.355,265.675 205.783,265.822 205.674 C 265.968 205.564,266.494 204.418,266.991 203.128 C 267.488 201.838,268.046 200.496,268.231 200.146 C 268.417 199.796,268.691 198.828,268.841 197.995 C 268.992 197.162,269.260 196.297,269.437 196.071 C 269.771 195.647,270.346 192.857,271.005 188.465 C 271.215 187.067,271.556 185.173,271.763 184.256 C 271.971 183.339,272.141 179.867,272.141 176.540 C 272.141 173.212,271.971 169.740,271.763 168.823 C 271.556 167.906,271.214 166.012,271.003 164.614 C 270.254 159.644,270.072 158.901,268.327 153.666 C 267.075 149.908,262.858 141.153,262.301 141.153 C 262.122 141.153,261.975 140.950,261.975 140.702 C 261.975 140.112,258.027 134.115,257.638 134.115 C 257.474 134.115,257.283 133.873,257.213 133.577 C 256.801 131.823,245.497 120.511,243.753 120.108 C 243.452 120.039,243.206 119.847,243.206 119.683 C 243.206 119.295,237.210 115.347,236.620 115.347 C 236.371 115.347,236.168 115.192,236.168 115.003 C 236.168 114.553,226.015 109.477,225.122 109.480 C 224.746 109.481,224.438 109.326,224.438 109.134 C 224.438 108.943,223.830 108.673,223.086 108.533 C 222.342 108.394,221.243 108.023,220.642 107.710 C 220.042 107.397,219.231 107.140,218.842 107.138 C 218.452 107.137,217.308 106.892,216.300 106.593 C 213.182 105.670,210.533 105.134,206.957 104.700 C 202.499 104.160,190.063 103.945,189.052 104.390 M222.407 119.281 C 224.157 120.049,226.941 121.437,229.912 123.023 C 230.665 123.425,231.339 123.886,231.411 124.047 C 231.483 124.208,231.770 124.340,232.050 124.340 C 235.423 124.340,236.586 133.309,233.346 134.338 C 232.963 134.459,232.649 134.723,232.649 134.924 C 232.649 135.869,227.980 135.296,226.062 134.115 C 225.014 133.470,223.955 132.942,223.710 132.942 C 223.465 132.942,223.265 132.780,223.265 132.582 C 223.265 132.384,222.737 132.107,222.092 131.965 C 221.447 131.823,220.919 131.559,220.919 131.378 C 220.919 131.197,220.391 130.933,219.746 130.792 C 219.101 130.650,218.573 130.380,218.573 130.192 C 218.573 130.004,217.957 129.734,217.204 129.593 C 216.452 129.452,215.836 129.192,215.836 129.015 C 215.836 128.838,215.482 128.582,215.050 128.444 C 214.617 128.307,213.913 127.470,213.485 126.585 C 210.743 120.909,216.108 116.516,222.407 119.281 M244.379 135.648 C 244.379 135.846,244.863 136.115,245.455 136.245 C 246.103 136.387,246.916 137.059,247.504 137.938 C 248.039 138.739,248.699 139.535,248.970 139.707 C 249.241 139.879,249.462 140.274,249.462 140.586 C 249.462 140.898,249.598 141.153,249.764 141.153 C 249.931 141.153,250.414 141.800,250.840 142.591 C 251.265 143.382,251.789 144.221,252.004 144.455 C 252.219 144.690,252.835 145.759,253.372 146.830 C 253.910 147.901,254.482 148.837,254.643 148.908 C 254.804 148.980,254.942 149.244,254.950 149.495 C 254.957 149.746,255.303 150.655,255.718 151.515 C 256.134 152.375,256.480 153.299,256.487 153.568 C 256.495 153.837,256.661 154.057,256.857 154.057 C 257.053 154.057,257.333 154.760,257.478 155.619 C 257.623 156.478,257.892 157.274,258.076 157.387 C 258.260 157.501,258.528 158.382,258.673 159.344 C 258.817 160.307,259.067 161.095,259.227 161.095 C 259.525 161.095,260.122 164.340,260.843 169.892 C 261.302 173.423,261.027 185.952,260.476 186.646 C 260.279 186.894,260.001 187.911,259.857 188.906 C 259.166 193.682,252.706 195.329,249.809 191.468 C 248.768 190.081,248.554 184.403,249.460 182.215 C 250.264 180.275,249.281 165.250,248.309 164.615 C 248.143 164.507,247.884 163.583,247.733 162.561 C 247.583 161.540,247.317 160.704,247.142 160.704 C 246.968 160.704,246.713 160.000,246.575 159.140 C 246.438 158.280,246.151 157.576,245.939 157.576 C 245.726 157.576,245.552 157.375,245.552 157.130 C 245.552 156.536,243.872 153.115,243.500 152.949 C 243.338 152.877,243.206 152.602,243.206 152.337 C 243.206 151.825,239.922 146.705,239.161 146.032 C 236.000 143.233,236.400 137.651,239.883 135.960 C 241.205 135.317,244.379 135.098,244.379 135.648 " stroke="none" fill="#f40404" fill-rule="evenodd"></path></g></svg>