<svg id="svg" version="1.1" width="400" height="400" viewBox="0 0 400 400" xmlns="http://www.w3.org/2000/svg" xmlns:xlink="http://www.w3.org/1999/xlink" ><g id="svgg"><path id="path0" d="M230.212 78.699 C 228.459 78.775,226.906 79.028,226.761 79.262 C 226.617 79.496,224.901 79.878,222.949 80.109 C 220.997 80.341,219.268 80.750,219.106 81.018 C 218.945 81.287,217.814 81.631,216.594 81.784 C 215.373 81.936,213.885 82.316,213.287 82.628 C 212.689 82.940,211.615 83.307,210.900 83.442 C 210.185 83.578,209.600 83.849,209.600 84.045 C 209.600 84.240,209.328 84.400,208.995 84.400 C 208.662 84.400,208.077 84.565,207.695 84.766 C 206.047 85.636,203.776 86.561,203.489 86.480 C 203.318 86.432,203.073 86.664,202.946 86.996 C 202.819 87.328,202.398 87.600,202.011 87.600 C 201.624 87.600,200.879 87.935,200.354 88.345 C 199.829 88.755,198.950 89.227,198.400 89.395 C 197.850 89.562,197.078 90.037,196.684 90.450 C 196.291 90.862,195.616 91.200,195.184 91.200 C 194.753 91.200,194.400 91.450,194.400 91.757 C 194.400 92.063,193.950 92.426,193.400 92.564 C 192.850 92.702,192.400 92.974,192.400 93.168 C 192.400 93.362,191.815 93.895,191.100 94.351 C 187.187 96.850,187.099 96.925,181.587 102.400 C 178.818 105.150,175.485 108.840,174.181 110.600 C 172.876 112.360,171.672 113.860,171.504 113.933 C 171.337 114.007,171.200 114.320,171.200 114.630 C 171.200 114.940,170.840 115.418,170.400 115.693 C 169.960 115.968,169.600 116.474,169.600 116.819 C 169.600 117.163,169.150 118.055,168.600 118.800 C 168.050 119.545,167.600 120.368,167.600 120.629 C 167.600 120.889,167.342 121.317,167.026 121.579 C 166.710 121.841,166.333 122.595,166.188 123.255 C 166.043 123.914,165.672 124.551,165.362 124.670 C 165.053 124.788,164.800 125.137,164.800 125.445 C 164.800 125.752,164.350 126.937,163.800 128.077 C 163.250 129.217,162.800 130.476,162.800 130.875 C 162.800 131.274,162.659 131.600,162.487 131.600 C 162.315 131.600,161.929 132.455,161.629 133.500 C 161.329 134.545,160.955 135.580,160.797 135.800 C 160.640 136.020,160.409 136.866,160.284 137.680 C 160.159 138.493,159.785 139.753,159.453 140.480 C 159.121 141.206,158.727 143.240,158.578 145.000 C 158.429 146.760,158.080 148.470,157.801 148.800 C 157.470 149.192,157.198 151.579,157.013 155.697 L 156.731 161.994 157.766 162.387 C 158.334 162.603,158.800 163.055,158.800 163.390 C 158.800 163.726,159.115 164.002,159.500 164.004 C 160.658 164.011,168.000 171.559,168.000 172.743 C 168.000 172.994,168.250 173.200,168.557 173.200 C 168.863 173.200,169.226 173.650,169.364 174.200 C 169.502 174.750,169.796 175.200,170.018 175.200 C 170.239 175.200,170.591 175.652,170.801 176.203 C 171.197 177.245,172.800 176.586,172.800 175.381 C 172.800 175.138,173.250 174.517,173.800 174.000 C 174.350 173.483,174.800 172.816,174.800 172.518 C 174.800 172.219,175.070 171.871,175.400 171.745 C 175.730 171.618,176.000 171.338,176.000 171.123 C 176.000 169.913,190.992 155.206,192.230 155.202 C 192.467 155.201,193.083 154.750,193.600 154.200 C 194.117 153.650,194.738 153.200,194.981 153.200 C 195.224 153.200,195.730 152.840,196.107 152.400 C 196.484 151.960,197.064 151.600,197.396 151.600 C 197.728 151.600,198.000 151.432,198.000 151.227 C 198.000 151.022,198.339 150.746,198.752 150.615 C 199.166 150.484,199.920 150.017,200.426 149.577 C 200.933 149.138,201.809 148.665,202.374 148.528 C 202.938 148.390,203.490 148.170,203.600 148.038 C 203.996 147.566,205.602 146.800,206.195 146.800 C 206.528 146.800,206.800 146.654,206.800 146.475 C 206.800 146.296,207.430 145.902,208.200 145.600 C 208.970 145.298,209.600 144.920,209.600 144.761 C 209.600 144.601,210.310 144.350,211.177 144.204 C 212.044 144.057,212.959 143.690,213.210 143.388 C 213.460 143.086,214.475 142.718,215.465 142.569 C 216.454 142.421,217.351 142.071,217.458 141.793 C 217.565 141.514,218.676 141.160,219.926 141.006 C 221.177 140.852,222.474 140.482,222.809 140.184 C 223.144 139.885,224.674 139.518,226.209 139.368 C 227.744 139.218,229.270 138.869,229.600 138.592 C 229.930 138.315,231.371 138.018,232.802 137.932 L 235.404 137.775 238.116 134.987 C 239.608 133.454,240.932 131.795,241.058 131.300 C 241.184 130.805,241.537 130.400,241.843 130.400 C 242.150 130.400,242.400 130.137,242.400 129.816 C 242.400 129.494,242.745 128.909,243.168 128.516 C 243.590 128.122,244.059 127.305,244.211 126.700 C 244.363 126.095,244.626 125.600,244.797 125.600 C 244.967 125.600,245.207 125.285,245.329 124.900 C 245.451 124.515,245.820 123.750,246.149 123.200 C 246.478 122.650,246.983 121.615,247.271 120.900 C 247.559 120.185,247.908 119.600,248.047 119.600 C 248.185 119.600,248.420 118.835,248.569 117.900 C 248.718 116.965,249.092 115.816,249.399 115.346 C 249.707 114.876,250.082 113.123,250.234 111.449 C 250.395 109.676,250.737 108.218,251.055 107.954 C 251.843 107.300,251.836 95.150,251.046 93.886 C 250.742 93.399,250.373 91.748,250.227 90.217 C 250.081 88.687,249.822 87.247,249.652 87.017 C 249.483 86.788,249.113 85.790,248.830 84.800 C 248.547 83.810,247.974 82.308,247.558 81.462 C 247.141 80.616,246.800 79.691,246.800 79.405 C 246.800 78.394,241.987 78.190,230.212 78.699 M245.896 160.904 C 245.510 161.397,244.745 162.366,244.196 163.058 C 243.648 163.750,243.200 164.605,243.200 164.958 C 243.200 165.311,243.020 165.600,242.800 165.600 C 242.580 165.600,242.400 165.836,242.400 166.125 C 242.400 166.413,242.040 167.036,241.600 167.508 C 241.160 167.980,240.800 168.620,240.800 168.929 C 240.800 169.239,240.463 169.921,240.052 170.446 C 239.641 170.971,239.179 171.973,239.026 172.672 C 238.874 173.372,238.504 174.148,238.206 174.395 C 237.907 174.643,237.541 175.568,237.391 176.451 C 237.242 177.334,236.890 178.144,236.608 178.252 C 236.327 178.360,235.974 179.383,235.824 180.524 C 235.675 181.666,235.319 182.960,235.034 183.400 C 234.749 183.840,234.389 185.280,234.236 186.600 C 234.082 187.920,233.663 189.900,233.306 191.000 C 232.377 193.859,232.374 208.801,233.302 212.000 C 233.653 213.210,234.065 215.280,234.218 216.600 C 234.371 217.920,234.720 219.270,234.994 219.600 C 235.268 219.930,235.607 221.087,235.748 222.171 C 235.889 223.255,236.265 224.429,236.583 224.781 C 236.901 225.133,237.282 226.170,237.428 227.086 C 237.575 228.001,237.926 228.840,238.209 228.948 C 238.493 229.057,238.855 229.743,239.014 230.473 C 239.174 231.203,239.641 232.229,240.052 232.754 C 240.463 233.279,240.800 234.044,240.800 234.454 C 240.800 234.864,240.936 235.200,241.102 235.200 C 241.269 235.200,241.661 235.785,241.975 236.500 C 242.289 237.215,242.783 237.980,243.073 238.200 C 243.363 238.420,243.935 239.230,244.345 240.000 C 244.819 240.891,245.437 241.449,246.045 241.534 C 246.570 241.607,247.171 241.832,247.380 242.034 C 247.895 242.530,252.690 242.501,253.000 242.000 C 253.136 241.780,254.379 241.600,255.763 241.600 C 260.148 241.600,264.346 241.117,264.548 240.590 C 264.810 239.908,264.000 236.735,263.377 236.000 C 263.097 235.670,262.740 234.680,262.583 233.800 C 262.427 232.920,262.071 231.930,261.792 231.600 C 261.514 231.270,261.155 230.017,260.994 228.816 C 260.833 227.615,260.566 226.355,260.400 226.016 C 259.735 224.658,259.200 222.466,259.200 221.095 C 259.200 220.299,259.020 219.536,258.800 219.400 C 258.580 219.264,258.400 218.299,258.400 217.256 C 258.400 216.213,258.240 215.189,258.044 214.980 C 256.778 213.631,256.740 185.478,258.000 182.600 C 258.193 182.160,258.445 181.170,258.560 180.400 C 259.418 174.669,259.875 172.535,260.403 171.800 C 260.560 171.580,260.805 170.513,260.947 169.429 C 261.088 168.345,261.449 167.175,261.749 166.829 C 262.048 166.483,262.416 165.395,262.566 164.410 C 262.716 163.426,263.128 162.300,263.483 161.908 C 264.419 160.874,264.392 160.868,256.981 160.419 C 247.182 159.825,246.728 159.845,245.896 160.904 M215.600 167.600 C 215.600 167.820,215.264 168.000,214.854 168.000 C 214.444 168.000,213.679 168.335,213.154 168.745 C 212.629 169.155,211.750 169.631,211.200 169.802 C 210.650 169.974,209.965 170.449,209.677 170.857 C 209.390 171.266,208.935 171.600,208.666 171.600 C 208.398 171.600,207.870 171.960,207.493 172.400 C 207.116 172.840,206.538 173.200,206.207 173.200 C 205.877 173.200,205.382 173.560,205.107 174.000 C 204.832 174.440,204.456 174.800,204.271 174.800 C 203.772 174.800,194.596 184.084,194.289 184.900 C 194.144 185.285,193.861 185.600,193.661 185.600 C 193.461 185.600,193.073 186.140,192.800 186.800 C 192.527 187.460,192.140 188.000,191.942 188.000 C 191.743 188.000,191.407 188.455,191.196 189.010 C 190.985 189.566,190.539 190.125,190.206 190.253 C 189.873 190.381,189.600 190.791,189.600 191.165 C 189.600 191.539,189.150 192.455,188.600 193.200 C 188.050 193.945,187.600 194.861,187.600 195.235 C 187.600 195.609,187.340 196.014,187.022 196.136 C 186.704 196.258,186.324 196.999,186.177 197.783 C 186.030 198.567,185.750 199.307,185.555 199.428 C 185.085 199.718,185.097 202.689,185.569 202.981 C 185.772 203.106,186.059 203.759,186.207 204.432 C 186.355 205.104,186.728 205.751,187.038 205.870 C 187.347 205.988,187.600 206.402,187.600 206.789 C 187.600 207.176,187.949 207.936,188.375 208.478 C 188.802 209.020,189.272 209.949,189.421 210.542 C 189.570 211.136,190.031 211.803,190.446 212.025 C 190.861 212.247,191.200 212.697,191.200 213.027 C 191.200 213.356,191.470 213.729,191.800 213.855 C 192.130 213.982,192.400 214.308,192.400 214.579 C 192.400 215.629,205.202 228.800,206.223 228.800 C 206.540 228.800,206.800 228.959,206.800 229.154 C 206.800 229.349,207.441 229.813,208.224 230.185 C 209.007 230.556,209.742 231.106,209.858 231.406 C 209.973 231.706,210.604 232.069,211.260 232.213 C 211.917 232.357,212.547 232.717,212.660 233.013 C 212.774 233.309,213.437 233.675,214.133 233.826 C 214.830 233.977,215.532 234.303,215.694 234.550 C 215.883 234.839,215.990 234.765,215.994 234.343 C 215.997 233.981,215.740 233.586,215.422 233.464 C 215.104 233.342,214.734 232.558,214.600 231.721 C 214.466 230.884,214.186 229.887,213.978 229.505 C 213.770 229.123,213.600 228.536,213.600 228.200 C 213.600 227.864,213.436 227.277,213.235 226.895 C 213.035 226.513,212.656 225.120,212.393 223.800 C 212.131 222.480,211.764 221.040,211.579 220.600 C 211.394 220.160,211.142 218.945,211.021 217.900 C 210.480 213.250,210.291 212.171,209.939 211.737 C 209.458 211.144,209.555 192.475,210.040 192.175 C 210.238 192.053,210.400 190.984,210.400 189.800 C 210.400 188.616,210.580 187.536,210.800 187.400 C 211.020 187.264,211.200 186.184,211.200 185.000 C 211.200 183.816,211.360 182.748,211.556 182.627 C 211.892 182.420,212.128 181.407,212.658 177.897 C 212.782 177.071,213.045 176.295,213.242 176.174 C 213.439 176.052,213.600 175.524,213.600 175.000 C 213.600 174.476,213.756 173.951,213.946 173.833 C 214.136 173.716,214.399 172.963,214.529 172.160 C 214.659 171.357,215.020 170.408,215.331 170.050 C 215.994 169.286,216.444 167.200,215.945 167.200 C 215.755 167.200,215.600 167.380,215.600 167.600 M285.206 169.451 C 285.203 169.919,284.946 170.513,284.635 170.771 C 284.324 171.029,283.948 172.122,283.800 173.200 C 283.652 174.278,283.297 175.354,283.011 175.591 C 282.725 175.828,282.362 177.233,282.205 178.711 C 282.049 180.190,281.676 181.850,281.378 182.400 C 279.520 185.827,279.547 212.863,281.411 215.782 C 281.699 216.232,282.059 217.810,282.212 219.289 C 282.365 220.767,282.729 222.175,283.020 222.417 C 283.311 222.658,283.670 223.822,283.818 225.002 C 283.969 226.212,284.319 227.237,284.621 227.353 C 284.915 227.466,285.282 228.242,285.436 229.079 C 285.963 231.944,288.120 233.149,288.932 231.033 C 289.066 230.685,289.541 230.400,289.987 230.400 C 290.434 230.400,290.800 230.216,290.800 229.991 C 290.800 229.767,291.273 229.367,291.852 229.104 C 292.430 228.840,293.429 228.133,294.072 227.533 C 294.715 226.932,295.592 226.330,296.020 226.194 C 296.449 226.057,296.800 225.688,296.800 225.373 C 296.800 225.058,297.000 224.800,297.244 224.800 C 298.149 224.800,307.600 215.296,307.600 214.386 C 307.600 214.198,308.238 213.360,309.017 212.522 C 309.797 211.685,310.539 210.505,310.667 209.900 C 310.795 209.295,311.133 208.800,311.418 208.800 C 311.703 208.800,312.058 208.248,312.206 207.573 C 312.354 206.898,312.728 206.249,313.038 206.130 C 313.347 206.012,313.600 205.615,313.600 205.250 C 313.600 204.885,314.050 203.923,314.600 203.114 C 315.150 202.305,315.600 201.459,315.600 201.235 C 315.600 201.012,315.150 200.022,314.600 199.037 C 314.050 198.052,313.600 196.966,313.600 196.623 C 313.600 196.280,313.330 196.000,313.000 196.000 C 312.667 196.000,312.400 195.644,312.400 195.200 C 312.400 194.760,312.066 194.066,311.658 193.658 C 311.250 193.250,310.807 192.484,310.675 191.956 C 310.542 191.428,309.802 190.367,309.030 189.598 C 308.257 188.829,307.620 188.044,307.613 187.854 C 307.589 187.198,297.822 177.200,297.206 177.200 C 297.030 177.200,296.782 176.930,296.655 176.600 C 296.529 176.270,296.193 176.000,295.910 176.000 C 295.626 176.000,294.816 175.370,294.110 174.600 C 293.403 173.830,292.547 173.200,292.208 173.200 C 291.869 173.200,291.284 172.840,290.907 172.400 C 290.530 171.960,289.999 171.600,289.725 171.600 C 289.452 171.600,289.043 171.255,288.817 170.833 C 288.591 170.410,287.820 169.938,287.103 169.782 C 286.386 169.627,285.668 169.297,285.506 169.050 C 285.332 168.783,285.210 168.946,285.206 169.451 M128.227 176.756 C 128.076 177.000,127.164 177.200,126.200 177.200 C 125.236 177.200,124.336 177.380,124.200 177.600 C 124.064 177.820,123.423 178.000,122.776 178.000 C 122.129 178.000,121.600 178.152,121.600 178.337 C 121.600 178.522,120.880 178.889,120.000 179.153 C 119.120 179.416,118.400 179.805,118.400 180.016 C 118.400 180.227,118.201 180.400,117.958 180.400 C 117.715 180.400,116.981 180.850,116.327 181.400 C 115.673 181.950,114.882 182.400,114.569 182.400 C 114.256 182.400,114.000 182.687,114.000 183.037 C 114.000 183.388,113.640 183.769,113.200 183.884 C 112.760 183.999,112.400 184.329,112.400 184.618 C 112.400 184.907,112.104 185.439,111.742 185.800 C 110.611 186.932,109.335 189.006,109.035 190.202 C 108.877 190.834,108.504 191.542,108.206 191.775 C 107.909 192.009,107.472 193.370,107.236 194.800 C 106.999 196.230,106.615 198.355,106.381 199.522 C 106.046 201.191,106.081 202.086,106.543 203.722 C 106.866 204.865,107.254 206.758,107.406 207.928 C 107.558 209.099,107.914 210.146,108.197 210.254 C 108.479 210.362,108.819 210.994,108.952 211.658 C 109.084 212.322,109.555 213.325,109.996 213.886 C 110.438 214.448,110.800 215.154,110.800 215.454 C 110.800 215.754,111.070 216.000,111.400 216.000 C 111.730 216.000,112.000 216.252,112.000 216.560 C 112.000 217.238,114.690 220.000,115.351 220.000 C 115.610 220.000,116.130 220.360,116.507 220.800 C 116.884 221.240,117.445 221.600,117.753 221.600 C 118.062 221.600,118.414 221.860,118.536 222.178 C 118.658 222.496,119.385 222.873,120.151 223.017 C 120.918 223.161,121.635 223.515,121.746 223.805 C 121.871 224.129,122.994 224.431,124.674 224.591 C 126.173 224.735,127.785 225.040,128.256 225.270 C 128.726 225.500,129.896 225.596,130.856 225.484 C 135.814 224.906,138.598 224.345,139.197 223.803 C 139.563 223.471,140.140 223.200,140.478 223.200 C 140.816 223.200,141.550 222.840,142.109 222.400 C 142.669 221.960,143.297 221.600,143.505 221.600 C 143.713 221.600,144.345 221.195,144.909 220.700 C 145.472 220.205,146.406 219.403,146.982 218.917 C 148.479 217.655,151.044 214.325,151.403 213.177 C 151.570 212.639,151.838 212.110,151.998 212.000 C 152.620 211.571,154.000 206.853,154.000 205.153 C 154.000 204.167,154.200 203.160,154.445 202.915 C 154.724 202.636,154.792 201.820,154.627 200.735 C 154.483 199.781,154.266 198.010,154.147 196.800 C 154.027 195.590,153.765 194.429,153.565 194.220 C 153.364 194.011,153.200 193.508,153.200 193.102 C 153.200 192.696,152.750 191.518,152.200 190.485 C 151.650 189.452,151.200 188.386,151.200 188.117 C 151.200 187.848,150.840 187.435,150.400 187.200 C 149.960 186.965,149.600 186.534,149.600 186.244 C 149.600 185.510,146.121 182.000,145.394 182.000 C 145.067 182.000,144.800 181.769,144.800 181.488 C 144.800 181.206,144.305 180.756,143.700 180.487 C 143.095 180.219,142.060 179.700,141.400 179.335 C 139.387 178.220,138.840 178.000,138.085 178.000 C 137.686 178.000,137.189 177.838,136.980 177.641 C 136.229 176.931,128.596 176.159,128.227 176.756 M170.803 225.793 C 170.592 226.347,170.255 226.800,170.053 226.800 C 169.852 226.800,169.574 227.250,169.436 227.800 C 169.298 228.350,168.918 228.800,168.592 228.800 C 168.267 228.800,168.000 229.006,168.000 229.257 C 168.000 230.290,160.702 237.988,159.714 237.996 C 159.447 237.998,159.035 238.360,158.800 238.800 C 158.565 239.240,158.127 239.600,157.829 239.600 C 156.637 239.600,156.619 252.162,157.809 253.352 C 158.081 253.624,158.435 255.366,158.597 257.223 C 158.758 259.080,159.004 260.780,159.142 261.000 C 159.633 261.782,160.388 264.213,160.394 265.033 C 160.397 265.492,160.523 265.990,160.674 266.141 C 161.073 266.539,161.987 269.282,161.994 270.100 C 161.997 270.485,162.180 270.800,162.400 270.800 C 162.620 270.800,162.800 271.072,162.800 271.405 C 162.800 272.014,162.936 272.345,164.143 274.662 C 164.504 275.356,164.800 276.137,164.800 276.399 C 164.800 276.660,165.160 277.331,165.600 277.891 C 166.040 278.450,166.400 279.161,166.400 279.471 C 166.400 279.780,166.583 280.251,166.806 280.517 C 167.699 281.581,169.137 283.971,169.417 284.859 C 169.581 285.376,170.049 286.035,170.457 286.323 C 170.866 286.610,171.200 287.105,171.200 287.423 C 171.200 287.740,171.358 288.000,171.550 288.000 C 171.743 288.000,172.148 288.508,172.450 289.128 C 174.087 292.485,187.268 305.840,190.446 307.361 C 190.861 307.560,191.200 307.875,191.200 308.061 C 191.200 308.248,191.388 308.400,191.617 308.400 C 192.034 308.400,192.579 308.784,194.029 310.100 C 194.453 310.485,195.072 310.800,195.404 310.800 C 195.736 310.800,196.316 311.160,196.693 311.600 C 197.070 312.040,197.584 312.400,197.835 312.400 C 198.086 312.400,198.736 312.749,199.278 313.175 C 199.820 313.602,200.758 314.075,201.364 314.227 C 201.969 314.379,202.553 314.732,202.660 315.012 C 202.767 315.292,203.455 315.634,204.188 315.771 C 204.920 315.909,205.740 316.286,206.009 316.611 C 206.278 316.935,206.764 317.200,207.089 317.200 C 207.644 317.200,209.743 318.015,211.295 318.834 C 211.677 319.035,212.341 319.200,212.771 319.200 C 213.201 319.200,213.664 319.380,213.800 319.600 C 213.936 319.820,214.566 320.000,215.200 320.000 C 215.834 320.000,216.464 320.180,216.600 320.400 C 216.736 320.620,217.362 320.800,217.990 320.800 C 218.619 320.800,219.193 320.969,219.267 321.177 C 219.340 321.384,220.840 321.677,222.600 321.828 C 224.376 321.981,226.084 322.350,226.438 322.658 C 227.741 323.790,246.800 323.912,246.800 322.788 C 246.800 322.570,247.137 321.628,247.549 320.696 C 247.961 319.763,248.520 318.190,248.791 317.200 C 249.061 316.210,249.435 315.212,249.622 314.983 C 249.808 314.753,250.081 313.313,250.227 311.783 C 250.373 310.252,250.742 308.601,251.046 308.114 C 251.843 306.839,251.843 294.700,251.046 294.038 C 250.721 293.768,250.375 292.334,250.210 290.565 C 250.054 288.907,249.675 287.067,249.366 286.476 C 249.057 285.884,248.693 284.815,248.558 284.100 C 248.422 283.385,248.151 282.800,247.955 282.800 C 247.760 282.800,247.600 282.528,247.600 282.195 C 247.600 281.549,247.329 280.914,246.236 279.000 C 245.859 278.340,245.451 277.485,245.329 277.100 C 245.207 276.715,244.967 276.400,244.797 276.400 C 244.626 276.400,244.363 275.906,244.211 275.303 C 244.060 274.700,243.684 273.935,243.376 273.603 C 241.694 271.793,240.800 270.638,240.800 270.275 C 240.800 270.051,240.526 269.582,240.191 269.234 C 239.856 268.885,238.653 267.632,237.517 266.448 C 235.505 264.350,235.388 264.291,232.827 264.097 C 231.382 263.988,229.930 263.675,229.600 263.402 C 229.270 263.128,227.744 262.782,226.209 262.632 C 224.674 262.482,223.144 262.115,222.809 261.816 C 222.474 261.518,221.165 261.146,219.900 260.991 C 218.635 260.835,217.600 260.577,217.600 260.417 C 217.600 260.257,216.835 259.910,215.900 259.645 C 214.228 259.171,212.876 258.651,211.505 257.953 C 211.123 257.759,210.538 257.600,210.205 257.600 C 209.872 257.600,209.600 257.434,209.600 257.232 C 209.600 257.029,209.048 256.742,208.373 256.594 C 207.698 256.446,207.056 256.089,206.945 255.802 C 206.835 255.514,206.118 255.161,205.351 255.017 C 204.585 254.873,203.865 254.513,203.751 254.217 C 203.638 253.921,202.918 253.561,202.151 253.417 C 201.385 253.273,200.661 252.903,200.542 252.593 C 200.423 252.284,199.941 251.908,199.471 251.759 C 198.671 251.505,196.446 250.096,196.000 249.560 C 195.890 249.428,195.372 249.094,194.850 248.819 C 193.727 248.227,190.374 245.739,189.796 245.068 C 189.574 244.811,188.224 243.615,186.796 242.411 C 185.368 241.207,184.056 239.992,183.880 239.711 C 183.704 239.430,183.299 239.200,182.980 239.200 C 182.661 239.200,182.400 238.992,182.400 238.739 C 182.400 238.485,181.545 237.355,180.500 236.229 C 176.924 232.373,174.803 229.800,174.802 229.314 C 174.801 229.047,174.452 228.642,174.027 228.414 C 173.602 228.187,173.134 227.623,172.988 227.161 C 172.425 225.388,171.239 224.645,170.803 225.793 " stroke="none" fill="#f9bc07" fill-rule="evenodd"></path><path id="path1" d="M225.000 56.047 C 223.460 56.250,221.255 56.519,220.100 56.645 C 218.945 56.771,218.000 57.018,218.000 57.195 C 218.000 57.498,217.459 57.617,213.300 58.232 C 212.365 58.371,211.600 58.645,211.600 58.842 C 211.600 59.039,211.161 59.200,210.624 59.200 C 210.087 59.200,209.552 59.354,209.435 59.543 C 209.319 59.731,208.297 59.995,207.166 60.130 C 206.034 60.264,204.904 60.630,204.654 60.944 C 204.404 61.258,203.345 61.635,202.300 61.782 C 201.124 61.947,200.400 62.251,200.400 62.579 C 200.400 62.901,199.692 63.215,198.600 63.379 C 197.519 63.541,196.800 63.859,196.800 64.173 C 196.800 64.477,196.119 64.807,195.185 64.956 C 194.296 65.098,193.474 65.463,193.357 65.768 C 193.240 66.072,192.518 66.439,191.751 66.583 C 190.985 66.727,190.258 67.104,190.136 67.422 C 190.014 67.740,189.596 68.000,189.206 68.000 C 188.817 68.000,188.274 68.270,188.000 68.600 C 187.726 68.930,187.254 69.200,186.951 69.200 C 186.648 69.200,186.400 69.380,186.400 69.600 C 186.400 69.820,186.040 70.000,185.600 70.000 C 185.160 70.000,184.800 70.180,184.800 70.400 C 184.800 70.620,184.480 70.800,184.088 70.800 C 183.697 70.800,183.117 71.160,182.800 71.600 C 182.483 72.040,181.913 72.400,181.534 72.400 C 181.155 72.400,180.602 72.747,180.305 73.172 C 180.007 73.596,179.294 74.061,178.720 74.206 C 178.146 74.350,177.585 74.813,177.475 75.234 C 177.358 75.681,176.926 76.000,176.437 76.000 C 175.977 76.000,175.600 76.249,175.600 76.553 C 175.600 76.858,175.240 77.201,174.800 77.316 C 174.360 77.431,174.000 77.812,174.000 78.163 C 174.000 78.515,173.671 78.800,173.262 78.800 C 172.856 78.800,171.502 79.790,170.253 81.000 C 169.004 82.210,167.892 83.200,167.783 83.200 C 167.414 83.200,161.600 89.238,161.600 89.621 C 161.600 89.830,161.330 90.000,161.000 90.000 C 160.670 90.000,160.400 90.205,160.400 90.456 C 160.400 90.707,159.590 91.700,158.600 92.662 C 157.610 93.624,156.800 94.660,156.800 94.963 C 156.800 95.266,156.530 95.618,156.200 95.745 C 155.870 95.871,155.600 96.251,155.600 96.587 C 155.600 96.924,155.330 97.200,155.000 97.200 C 154.670 97.200,154.400 97.494,154.400 97.854 C 154.400 98.214,153.950 98.925,153.400 99.435 C 152.850 99.945,152.400 100.730,152.400 101.181 C 152.400 101.638,152.138 102.000,151.808 102.000 C 151.482 102.000,151.101 102.455,150.962 103.011 C 150.822 103.566,150.369 104.203,149.954 104.425 C 149.539 104.647,149.200 105.182,149.200 105.614 C 149.200 106.046,149.020 106.400,148.800 106.400 C 148.580 106.400,148.400 106.760,148.400 107.200 C 148.400 107.640,148.220 108.000,148.000 108.000 C 147.780 108.000,147.600 108.236,147.600 108.525 C 147.600 108.813,147.240 109.436,146.800 109.908 C 146.360 110.380,146.000 111.010,146.000 111.307 C 146.000 111.604,145.736 112.196,145.413 112.624 C 145.090 113.051,144.820 113.696,144.813 114.057 C 144.806 114.419,144.556 114.808,144.257 114.923 C 143.958 115.037,143.601 115.697,143.462 116.389 C 143.324 117.081,142.955 117.902,142.642 118.215 C 142.329 118.528,141.949 119.520,141.797 120.420 C 141.645 121.320,141.277 122.149,140.979 122.263 C 140.682 122.377,140.317 123.279,140.169 124.267 C 140.021 125.255,139.668 126.152,139.386 126.261 C 139.096 126.372,138.752 127.491,138.597 128.829 C 138.445 130.133,138.159 131.200,137.961 131.200 C 137.762 131.200,137.600 131.740,137.600 132.400 C 137.600 133.060,137.438 133.600,137.240 133.600 C 137.042 133.600,136.778 134.365,136.653 135.300 C 136.097 139.451,135.894 140.400,135.558 140.400 C 135.361 140.400,135.200 141.379,135.200 142.576 C 135.200 143.773,135.020 144.864,134.800 145.000 C 134.580 145.136,134.400 146.407,134.400 147.824 C 134.400 149.275,134.225 150.400,134.000 150.400 C 133.780 150.400,133.600 151.030,133.600 151.800 L 133.600 153.200 129.000 153.200 C 126.470 153.200,124.400 153.364,124.400 153.565 C 124.400 153.935,123.230 154.171,119.100 154.634 C 117.658 154.796,116.800 155.080,116.800 155.395 C 116.800 155.695,116.002 156.003,114.817 156.160 C 113.726 156.305,112.591 156.666,112.294 156.963 C 111.998 157.260,111.180 157.629,110.477 157.783 C 109.772 157.938,109.200 158.318,109.200 158.632 C 109.200 158.944,108.912 159.200,108.560 159.200 C 107.936 159.200,105.398 160.274,104.600 160.876 C 104.380 161.042,103.679 161.632,103.042 162.189 C 102.404 162.745,101.752 163.200,101.592 163.200 C 101.115 163.200,98.400 165.821,98.400 166.282 C 98.400 166.515,98.040 166.801,97.600 166.916 C 97.160 167.031,96.800 167.391,96.800 167.716 C 96.800 168.041,96.440 168.401,96.000 168.516 C 95.560 168.631,95.200 169.012,95.200 169.363 C 95.200 169.713,94.926 170.000,94.590 170.000 C 94.255 170.000,93.809 170.450,93.600 171.000 C 93.391 171.550,93.080 172.001,92.910 172.003 C 92.739 172.004,92.270 172.585,91.867 173.293 C 91.175 174.509,91.109 174.537,90.699 173.791 C 90.190 172.866,88.826 171.600,88.339 171.600 C 88.152 171.600,88.000 171.342,88.000 171.027 C 88.000 170.712,87.640 170.340,87.200 170.200 C 86.760 170.060,86.397 169.643,86.393 169.273 C 86.389 168.903,85.939 168.176,85.393 167.658 C 84.847 167.140,84.400 166.375,84.400 165.958 C 84.400 165.541,84.126 165.200,83.790 165.200 C 83.432 165.200,83.081 164.704,82.940 164.000 C 82.808 163.340,82.468 162.800,82.185 162.800 C 81.896 162.800,81.552 162.098,81.400 161.200 C 81.247 160.294,80.905 159.600,80.610 159.600 C 80.301 159.600,79.981 158.867,79.819 157.785 C 79.487 155.571,78.660 153.513,77.823 152.819 C 77.480 152.535,77.200 152.152,77.200 151.969 C 77.200 151.409,75.201 149.600,74.582 149.600 C 74.262 149.600,74.000 149.436,74.000 149.235 C 74.000 149.034,73.235 148.742,72.300 148.586 C 71.365 148.430,70.472 148.099,70.315 147.851 C 69.948 147.271,66.062 147.261,65.685 147.838 C 65.528 148.079,64.680 148.389,63.800 148.526 C 62.918 148.664,61.902 149.140,61.536 149.588 C 61.171 150.035,60.702 150.400,60.494 150.400 C 59.982 150.400,58.000 152.829,58.000 153.457 C 58.000 153.734,57.685 154.137,57.300 154.352 C 56.284 154.921,56.243 164.257,57.254 164.822 C 57.626 165.031,58.024 165.965,58.178 166.994 C 58.341 168.079,58.658 168.800,58.973 168.800 C 59.277 168.800,59.607 169.481,59.756 170.415 C 59.898 171.304,60.276 172.131,60.596 172.254 C 60.916 172.377,61.293 173.090,61.434 173.839 C 61.574 174.587,61.925 175.200,62.213 175.200 C 62.501 175.200,62.855 175.739,62.999 176.398 C 63.144 177.056,63.473 177.731,63.731 177.898 C 64.290 178.258,65.131 179.526,65.458 180.500 C 65.588 180.885,65.852 181.200,66.047 181.200 C 66.241 181.200,66.400 181.430,66.400 181.712 C 66.400 181.993,66.760 182.483,67.200 182.800 C 67.640 183.117,68.000 183.607,68.000 183.888 C 68.000 184.170,68.168 184.400,68.373 184.400 C 68.578 184.400,68.860 184.760,69.000 185.200 C 69.140 185.640,69.493 186.000,69.784 186.000 C 70.076 186.000,70.418 186.270,70.545 186.600 C 70.671 186.930,71.030 187.200,71.341 187.200 C 71.652 187.200,72.001 187.560,72.116 188.000 C 72.231 188.440,72.591 188.800,72.916 188.800 C 73.241 188.800,73.601 189.160,73.716 189.600 C 73.831 190.040,74.212 190.400,74.563 190.400 C 74.913 190.400,75.200 190.676,75.200 191.013 C 75.200 191.349,75.470 191.729,75.800 191.855 C 76.130 191.982,76.400 192.333,76.400 192.635 C 76.400 192.937,76.895 193.307,77.500 193.456 C 78.105 193.606,78.891 194.059,79.247 194.464 C 79.603 194.869,80.088 195.200,80.324 195.200 C 80.561 195.200,80.990 195.527,81.277 195.926 C 81.565 196.326,82.115 196.770,82.500 196.914 C 83.098 197.137,83.199 197.714,83.194 200.887 C 83.187 205.175,83.034 205.491,80.400 206.675 C 80.070 206.823,79.509 207.272,79.153 207.672 C 78.797 208.073,78.301 208.400,78.049 208.400 C 77.471 208.400,75.200 210.549,75.200 211.097 C 75.200 211.322,74.840 211.601,74.400 211.716 C 73.960 211.831,73.600 212.191,73.600 212.516 C 73.600 212.841,73.240 213.201,72.800 213.316 C 72.360 213.431,72.000 213.791,72.000 214.116 C 72.000 214.441,71.640 214.801,71.200 214.916 C 70.760 215.031,70.400 215.412,70.400 215.763 C 70.400 216.113,70.124 216.400,69.787 216.400 C 69.451 216.400,69.058 216.715,68.915 217.100 C 68.772 217.485,68.328 218.091,67.928 218.447 C 67.527 218.803,67.200 219.232,67.200 219.400 C 67.200 219.568,66.885 220.000,66.500 220.359 C 65.773 221.037,64.987 222.168,64.528 223.200 C 64.381 223.530,64.029 223.940,63.746 224.111 C 63.464 224.282,63.115 225.047,62.972 225.811 C 62.823 226.604,62.473 227.200,62.155 227.200 C 61.850 227.200,61.600 227.562,61.600 228.004 C 61.600 228.446,61.235 229.120,60.789 229.502 C 60.343 229.884,59.870 230.872,59.738 231.698 C 59.602 232.548,59.270 233.200,58.973 233.200 C 58.658 233.200,58.340 233.924,58.176 235.020 C 58.026 236.021,57.610 237.133,57.252 237.491 C 56.288 238.454,56.291 247.083,57.255 247.623 C 57.616 247.825,58.023 248.436,58.159 248.981 C 58.507 250.364,60.749 252.470,62.500 253.058 C 62.885 253.188,63.200 253.452,63.200 253.647 C 63.200 253.841,63.623 254.000,64.140 254.000 C 64.657 254.000,65.656 254.201,66.359 254.446 C 67.700 254.913,72.400 254.191,72.400 253.517 C 72.400 253.343,72.760 253.200,73.200 253.200 C 73.640 253.200,74.000 253.020,74.000 252.800 C 74.000 252.580,74.294 252.400,74.654 252.400 C 75.338 252.400,77.200 250.633,77.200 249.983 C 77.200 249.776,77.560 249.382,78.000 249.107 C 78.440 248.832,78.800 248.301,78.800 247.927 C 78.800 247.553,78.959 247.149,79.153 247.029 C 79.348 246.909,79.630 245.818,79.782 244.605 C 79.959 243.188,80.246 242.400,80.584 242.400 C 80.874 242.400,81.229 241.770,81.374 241.000 C 81.519 240.225,81.876 239.600,82.174 239.600 C 82.471 239.600,82.828 238.975,82.974 238.200 C 83.131 237.362,83.470 236.800,83.818 236.800 C 84.138 236.800,84.400 236.472,84.400 236.072 C 84.400 235.672,84.850 234.953,85.400 234.475 C 85.950 233.997,86.400 233.409,86.400 233.168 C 86.400 232.928,87.363 231.801,88.539 230.665 C 89.715 229.529,90.763 228.337,90.867 228.016 C 90.998 227.612,91.289 227.828,91.814 228.716 C 92.231 229.422,92.692 230.000,92.838 230.000 C 92.984 230.000,93.327 230.540,93.600 231.200 C 93.873 231.860,94.326 232.400,94.606 232.400 C 94.886 232.400,95.218 232.670,95.345 233.000 C 95.471 233.330,95.851 233.600,96.187 233.600 C 96.524 233.600,96.800 233.887,96.800 234.237 C 96.800 234.588,97.160 234.969,97.600 235.084 C 98.040 235.199,98.400 235.548,98.400 235.859 C 98.400 236.170,98.670 236.529,99.000 236.655 C 99.330 236.782,99.600 237.114,99.600 237.394 C 99.600 237.674,100.140 238.127,100.800 238.400 C 101.460 238.673,102.000 239.027,102.000 239.186 C 102.000 239.344,102.630 239.813,103.400 240.228 C 104.170 240.643,104.800 241.087,104.800 241.216 C 104.800 241.345,105.430 241.698,106.200 242.000 C 106.970 242.302,107.600 242.696,107.600 242.875 C 107.600 243.054,107.960 243.200,108.400 243.200 C 108.840 243.200,109.200 243.366,109.200 243.568 C 109.200 243.771,109.775 244.063,110.477 244.217 C 111.180 244.371,111.998 244.740,112.294 245.037 C 112.591 245.334,113.726 245.695,114.817 245.840 C 116.002 245.997,116.800 246.305,116.800 246.605 C 116.800 246.920,117.658 247.204,119.100 247.366 C 123.230 247.829,124.400 248.065,124.400 248.435 C 124.400 248.636,126.470 248.800,129.000 248.800 L 133.600 248.800 133.600 250.120 C 133.600 250.846,133.765 251.611,133.966 251.820 C 134.168 252.029,134.434 253.280,134.558 254.600 C 135.094 260.297,135.295 261.600,135.637 261.600 C 135.837 261.600,136.000 262.309,136.000 263.176 C 136.000 264.043,136.180 264.864,136.400 265.000 C 136.620 265.136,136.800 265.957,136.800 266.824 C 136.800 267.691,136.980 268.400,137.200 268.400 C 137.420 268.400,137.600 268.940,137.600 269.600 C 137.600 270.260,137.757 270.800,137.948 270.800 C 138.140 270.800,138.417 271.863,138.564 273.163 C 138.722 274.555,139.051 275.611,139.366 275.731 C 139.659 275.844,140.021 276.745,140.169 277.733 C 140.317 278.721,140.682 279.623,140.979 279.737 C 141.277 279.851,141.646 280.689,141.800 281.600 C 141.954 282.511,142.332 283.352,142.640 283.471 C 142.948 283.589,143.200 284.206,143.200 284.843 C 143.200 285.479,143.560 286.360,144.000 286.800 C 144.440 287.240,144.800 287.798,144.800 288.040 C 144.800 288.657,146.071 291.299,146.659 291.902 C 146.928 292.179,147.262 292.764,147.401 293.202 C 147.540 293.641,147.822 294.000,148.027 294.000 C 148.232 294.000,148.400 294.360,148.400 294.800 C 148.400 295.240,148.558 295.600,148.750 295.600 C 148.942 295.600,149.208 296.140,149.340 296.800 C 149.474 297.469,149.836 298.000,150.158 298.000 C 150.476 298.000,150.855 298.540,151.000 299.200 C 151.145 299.860,151.519 300.400,151.832 300.400 C 152.144 300.400,152.400 300.756,152.400 301.191 C 152.400 301.626,152.850 302.276,153.400 302.637 C 153.950 302.997,154.400 303.631,154.400 304.046 C 154.400 304.461,154.670 304.800,155.000 304.800 C 155.330 304.800,155.600 305.076,155.600 305.413 C 155.600 305.749,155.870 306.129,156.200 306.255 C 156.530 306.382,156.800 306.735,156.800 307.040 C 156.800 307.346,157.610 308.417,158.600 309.421 C 159.590 310.425,160.400 311.416,160.400 311.624 C 160.400 311.831,160.670 312.000,161.000 312.000 C 161.330 312.000,161.600 312.187,161.600 312.415 C 161.600 312.962,167.429 318.800,167.976 318.800 C 168.209 318.800,168.400 319.070,168.400 319.400 C 168.400 319.730,168.573 320.000,168.785 320.000 C 168.996 320.000,170.003 320.810,171.021 321.800 C 172.040 322.790,173.108 323.600,173.394 323.600 C 173.680 323.600,174.018 323.870,174.145 324.200 C 174.271 324.530,174.651 324.800,174.987 324.800 C 175.324 324.800,175.600 325.070,175.600 325.400 C 175.600 325.742,175.960 326.000,176.437 326.000 C 176.930 326.000,177.359 326.320,177.478 326.777 C 177.596 327.229,178.167 327.661,178.841 327.809 C 179.478 327.949,180.000 328.305,180.000 328.600 C 180.000 328.895,180.540 329.255,181.200 329.400 C 181.860 329.545,182.400 329.924,182.400 330.242 C 182.400 330.564,182.931 330.926,183.600 331.060 C 184.260 331.192,184.800 331.527,184.800 331.805 C 184.800 332.083,185.434 332.430,186.209 332.575 C 186.984 332.721,187.837 333.191,188.105 333.620 C 188.373 334.049,188.783 334.400,189.016 334.400 C 189.677 334.400,191.593 335.365,191.597 335.700 C 191.599 335.865,191.849 336.000,192.154 336.000 C 192.459 336.000,193.224 336.269,193.854 336.598 C 194.484 336.926,195.405 337.196,195.900 337.198 C 196.415 337.199,196.800 337.446,196.800 337.775 C 196.800 338.151,197.426 338.445,198.600 338.621 C 199.692 338.785,200.400 339.099,200.400 339.421 C 200.400 339.749,201.124 340.053,202.300 340.218 C 203.345 340.365,204.400 340.736,204.644 341.043 C 204.888 341.349,205.968 341.712,207.044 341.848 C 208.120 341.985,209.186 342.327,209.414 342.608 C 209.788 343.068,212.345 343.667,216.500 344.267 C 217.325 344.387,218.000 344.628,218.000 344.805 C 218.000 345.113,219.671 345.357,225.100 345.844 C 226.475 345.967,227.600 346.233,227.600 346.434 C 227.600 346.647,232.771 346.800,240.000 346.800 C 248.000 346.800,252.400 346.658,252.400 346.400 C 252.400 346.175,253.525 346.000,254.976 346.000 C 256.393 346.000,257.664 345.820,257.800 345.600 C 257.936 345.380,258.499 345.200,259.052 345.200 C 260.087 345.200,261.200 344.386,261.200 343.629 C 261.200 343.393,261.380 343.200,261.600 343.200 C 261.820 343.200,262.000 342.930,262.000 342.600 C 262.000 342.270,262.180 342.000,262.400 342.000 C 262.620 342.000,262.800 341.640,262.800 341.200 C 262.800 340.760,262.977 340.400,263.192 340.400 C 263.408 340.400,263.694 339.963,263.828 339.429 C 263.963 338.895,264.316 338.364,264.614 338.250 C 264.912 338.136,265.276 337.403,265.422 336.621 C 265.579 335.789,265.923 335.200,266.255 335.200 C 266.566 335.200,266.931 334.646,267.067 333.966 C 267.203 333.287,267.545 332.643,267.827 332.534 C 268.109 332.426,268.462 331.619,268.610 330.741 C 268.758 329.863,269.128 329.049,269.431 328.933 C 269.740 328.814,270.098 327.852,270.244 326.752 C 270.388 325.668,270.662 324.685,270.853 324.567 C 271.044 324.449,271.200 323.913,271.200 323.376 C 271.200 322.839,271.360 322.400,271.556 322.400 C 271.752 322.400,272.022 321.770,272.156 321.000 C 272.290 320.230,272.510 318.970,272.644 318.200 C 272.778 317.430,273.031 316.800,273.207 316.800 C 273.567 316.800,273.903 314.042,274.244 308.300 C 274.371 306.155,274.638 304.400,274.837 304.400 C 275.037 304.400,275.200 303.050,275.200 301.400 C 275.200 299.667,275.031 298.400,274.800 298.400 C 274.560 298.400,274.400 296.808,274.400 294.424 C 274.400 292.204,274.223 290.338,274.000 290.200 C 273.780 290.064,273.600 289.063,273.600 287.976 C 273.600 286.889,273.420 286.000,273.200 286.000 C 272.980 286.000,272.800 285.280,272.800 284.400 C 272.800 283.520,272.620 282.800,272.400 282.800 C 272.180 282.800,272.000 282.080,272.000 281.200 C 272.000 280.320,271.820 279.600,271.600 279.600 C 271.380 279.600,271.200 279.161,271.200 278.624 C 271.200 278.087,271.041 277.549,270.846 277.429 C 270.652 277.308,270.371 276.398,270.222 275.405 C 270.059 274.321,269.742 273.600,269.427 273.600 C 269.127 273.600,268.796 272.934,268.653 272.044 C 268.517 271.188,268.156 270.392,267.853 270.276 C 267.549 270.159,267.181 269.424,267.034 268.643 C 266.888 267.861,266.509 267.077,266.192 266.899 C 265.875 266.722,265.499 265.997,265.358 265.288 L 265.100 264.000 266.926 264.000 C 267.931 264.000,268.848 263.847,268.964 263.659 C 269.079 263.472,270.376 263.206,271.845 263.069 C 273.314 262.932,274.805 262.559,275.158 262.240 C 275.511 261.921,276.925 261.534,278.300 261.379 C 279.914 261.197,280.800 260.916,280.800 260.586 C 280.800 260.275,281.595 259.966,282.828 259.796 C 283.944 259.643,284.950 259.274,285.064 258.978 C 285.178 258.681,286.065 258.319,287.035 258.174 C 288.080 258.017,288.800 257.697,288.800 257.390 C 288.800 257.095,289.494 256.753,290.400 256.600 C 291.280 256.451,292.000 256.166,292.000 255.965 C 292.000 255.764,292.360 255.600,292.800 255.600 C 293.240 255.600,293.600 255.420,293.600 255.200 C 293.600 254.980,293.960 254.800,294.400 254.800 C 294.840 254.800,295.200 254.620,295.200 254.400 C 295.200 254.180,295.478 254.000,295.817 254.000 C 296.156 254.000,296.810 253.649,297.271 253.220 C 297.731 252.791,298.624 252.327,299.254 252.188 C 299.884 252.050,300.400 251.761,300.400 251.547 C 300.400 251.333,300.940 250.970,301.600 250.740 C 302.260 250.510,302.800 250.089,302.800 249.805 C 302.800 249.521,303.430 249.171,304.200 249.026 C 305.028 248.871,305.600 248.529,305.600 248.189 C 305.600 247.874,306.050 247.502,306.600 247.364 C 307.150 247.226,307.600 246.863,307.600 246.557 C 307.600 246.250,307.771 246.000,307.979 246.000 C 308.188 246.000,308.844 245.550,309.438 245.000 C 310.031 244.450,310.748 244.000,311.031 244.000 C 311.315 244.000,311.660 243.640,311.800 243.200 C 311.940 242.760,312.272 242.400,312.539 242.400 C 312.805 242.400,313.283 242.040,313.600 241.600 C 313.917 241.160,314.407 240.800,314.688 240.800 C 314.970 240.800,315.200 240.641,315.200 240.447 C 315.200 240.252,315.560 239.999,316.000 239.884 C 316.440 239.769,316.800 239.400,316.800 239.064 C 316.800 238.729,317.160 238.340,317.600 238.200 C 318.040 238.060,318.400 237.700,318.400 237.400 C 318.400 237.100,318.760 236.740,319.200 236.600 C 319.640 236.460,320.000 236.107,320.000 235.816 C 320.000 235.524,320.270 235.182,320.600 235.055 C 320.930 234.929,321.200 234.593,321.200 234.309 C 321.200 234.025,321.560 233.568,322.000 233.293 C 322.440 233.018,322.800 232.525,322.800 232.197 C 322.800 231.868,323.070 231.600,323.400 231.600 C 323.730 231.600,324.000 231.419,324.000 231.197 C 324.000 230.976,324.450 230.403,325.000 229.925 C 325.550 229.447,326.000 228.825,326.000 228.542 C 326.000 228.259,326.360 227.835,326.800 227.600 C 327.240 227.365,327.600 226.908,327.600 226.586 C 327.600 226.264,327.870 226.000,328.200 226.000 C 328.530 226.000,328.800 225.662,328.800 225.249 C 328.800 224.836,329.070 224.274,329.400 224.000 C 329.730 223.726,330.000 223.254,330.000 222.951 C 330.000 222.648,330.180 222.400,330.400 222.400 C 330.620 222.400,330.800 222.164,330.800 221.875 C 330.800 221.587,331.160 220.964,331.600 220.492 C 332.040 220.020,332.400 219.356,332.400 219.017 C 332.400 218.678,332.567 218.400,332.772 218.400 C 332.977 218.400,333.202 217.995,333.272 217.500 C 333.354 216.922,333.722 216.554,334.300 216.472 C 334.795 216.402,335.200 216.103,335.200 215.807 C 335.200 215.493,335.862 215.158,336.800 215.000 C 337.725 214.844,338.400 214.506,338.400 214.200 C 338.400 213.894,339.075 213.556,340.000 213.400 C 340.908 213.247,341.600 212.905,341.600 212.609 C 341.600 212.323,342.230 211.971,343.000 211.826 C 343.789 211.678,344.400 211.325,344.400 211.017 C 344.400 210.691,345.046 210.361,346.000 210.200 C 346.880 210.051,347.600 209.766,347.600 209.565 C 347.600 209.364,347.960 209.200,348.400 209.200 C 348.840 209.200,349.201 209.065,349.203 208.900 C 349.206 208.586,351.106 207.600,351.708 207.600 C 351.900 207.600,352.322 207.335,352.647 207.011 C 352.971 206.686,353.929 206.234,354.777 206.006 C 355.624 205.778,356.412 205.346,356.527 205.046 C 356.642 204.746,357.381 204.380,358.168 204.232 C 358.956 204.085,359.600 203.727,359.600 203.439 C 359.600 203.144,360.344 202.757,361.295 202.556 C 364.004 201.985,363.785 199.896,360.960 199.366 C 360.212 199.226,359.600 198.951,359.600 198.755 C 359.600 198.560,359.330 198.400,359.000 198.400 C 358.670 198.400,358.400 198.220,358.400 198.000 C 358.400 197.780,358.074 197.600,357.675 197.600 C 357.277 197.600,356.602 197.285,356.175 196.900 C 355.454 196.249,353.694 195.445,351.800 194.902 C 351.360 194.776,350.860 194.438,350.689 194.152 C 350.518 193.866,349.766 193.517,349.017 193.377 C 348.268 193.236,347.562 192.879,347.449 192.583 C 347.335 192.287,346.603 191.924,345.821 191.778 C 345.030 191.629,344.400 191.273,344.400 190.974 C 344.400 190.676,343.775 190.319,343.000 190.174 C 342.230 190.029,341.600 189.677,341.600 189.391 C 341.600 189.095,340.908 188.753,340.000 188.600 C 339.120 188.451,338.400 188.166,338.400 187.965 C 338.400 187.764,338.040 187.600,337.600 187.600 C 337.160 187.600,336.800 187.420,336.800 187.200 C 336.800 186.980,336.440 186.800,336.000 186.800 C 335.560 186.800,335.200 186.620,335.200 186.400 C 335.200 186.180,334.836 186.000,334.390 186.000 C 333.810 186.000,333.512 185.659,333.340 184.800 C 333.208 184.140,332.943 183.600,332.750 183.600 C 332.558 183.600,332.400 183.330,332.400 183.000 C 332.400 182.670,332.264 182.400,332.098 182.400 C 331.931 182.400,331.541 181.815,331.230 181.100 C 330.919 180.385,330.556 179.710,330.423 179.600 C 329.862 179.135,328.800 177.181,328.800 176.614 C 328.800 176.276,328.542 176.000,328.227 176.000 C 327.912 176.000,327.545 175.657,327.412 175.237 C 327.279 174.817,326.906 174.373,326.585 174.250 C 326.263 174.126,326.000 173.754,326.000 173.422 C 326.000 173.090,325.550 172.524,325.000 172.163 C 324.450 171.803,324.000 171.259,324.000 170.954 C 324.000 170.649,323.730 170.400,323.400 170.400 C 323.070 170.400,322.800 170.132,322.800 169.803 C 322.800 169.475,322.440 168.982,322.000 168.707 C 321.560 168.432,321.200 167.975,321.200 167.691 C 321.200 167.407,320.930 167.071,320.600 166.945 C 320.270 166.818,320.000 166.464,320.000 166.157 C 320.000 165.851,319.826 165.600,319.613 165.600 C 319.110 165.600,316.400 162.890,316.400 162.387 C 316.400 162.174,316.130 162.000,315.800 162.000 C 315.470 162.000,315.200 161.820,315.200 161.600 C 315.200 161.380,314.996 161.200,314.747 161.200 C 314.498 161.200,314.003 160.873,313.647 160.472 C 313.291 160.072,312.685 159.628,312.300 159.485 C 311.915 159.342,311.600 158.949,311.600 158.613 C 311.600 158.276,311.356 158.000,311.058 158.000 C 310.761 158.000,310.031 157.550,309.438 157.000 C 308.844 156.450,308.188 156.000,307.979 156.000 C 307.771 156.000,307.600 155.730,307.600 155.400 C 307.600 155.070,307.356 154.800,307.058 154.800 C 306.761 154.800,306.031 154.350,305.438 153.800 C 304.844 153.250,304.074 152.800,303.726 152.800 C 303.378 152.800,302.803 152.484,302.447 152.097 C 302.091 151.711,301.260 151.126,300.600 150.798 C 299.940 150.470,299.310 150.111,299.200 150.001 C 298.685 149.484,296.408 148.400,295.838 148.400 C 295.487 148.400,295.200 148.146,295.200 147.835 C 295.200 147.488,294.584 147.166,293.600 147.000 C 292.675 146.844,292.000 146.506,292.000 146.200 C 292.000 145.894,291.325 145.556,290.400 145.400 C 289.494 145.247,288.800 144.905,288.800 144.610 C 288.800 144.300,288.065 143.981,286.977 143.817 C 285.974 143.667,285.060 143.302,284.947 143.005 C 284.833 142.709,283.854 142.345,282.770 142.196 C 281.687 142.047,280.800 141.762,280.800 141.562 C 280.800 141.363,280.170 141.200,279.400 141.200 C 278.630 141.200,278.000 141.040,278.000 140.845 C 278.000 140.510,277.112 140.258,274.100 139.737 C 273.385 139.614,272.800 139.352,272.800 139.156 C 272.800 138.960,272.001 138.800,271.024 138.800 C 270.047 138.800,269.136 138.620,269.000 138.400 C 268.864 138.180,267.931 138.000,266.926 138.000 L 265.100 138.000 265.358 136.712 C 265.499 136.003,265.868 135.282,266.176 135.109 C 266.485 134.937,266.853 134.271,266.993 133.631 C 267.134 132.990,267.598 132.063,268.025 131.572 C 268.451 131.080,268.800 130.255,268.800 129.739 C 268.800 129.211,269.040 128.800,269.347 128.800 C 269.842 128.800,270.259 127.518,271.069 123.500 C 271.191 122.895,271.450 122.400,271.645 122.400 C 271.840 122.400,272.000 121.680,272.000 120.800 C 272.000 119.920,272.180 119.200,272.400 119.200 C 272.620 119.200,272.800 118.570,272.800 117.800 C 272.800 117.030,272.980 116.400,273.200 116.400 C 273.420 116.400,273.600 115.421,273.600 114.224 C 273.600 113.027,273.780 111.936,274.000 111.800 C 274.221 111.663,274.400 109.863,274.400 107.776 C 274.400 105.525,274.562 104.000,274.800 104.000 C 275.033 104.000,275.200 102.667,275.200 100.800 C 275.200 99.040,275.032 97.600,274.827 97.600 C 274.623 97.600,274.360 95.935,274.243 93.900 C 273.906 88.018,273.557 85.200,273.164 85.200 C 272.964 85.200,272.800 84.671,272.800 84.024 C 272.800 83.377,272.620 82.736,272.400 82.600 C 272.180 82.464,272.000 81.733,272.000 80.976 C 272.000 80.219,271.820 79.600,271.600 79.600 C 271.380 79.600,271.200 79.161,271.200 78.624 C 271.200 78.087,271.041 77.549,270.846 77.429 C 270.652 77.308,270.371 76.398,270.222 75.405 C 270.073 74.412,269.781 73.600,269.574 73.600 C 269.367 73.600,268.980 72.790,268.716 71.800 C 268.451 70.810,268.105 70.000,267.948 70.000 C 267.791 70.000,267.448 69.325,267.187 68.500 C 266.926 67.675,266.498 66.820,266.237 66.600 C 265.976 66.380,265.524 65.615,265.233 64.900 C 264.941 64.185,264.548 63.600,264.359 63.600 C 264.170 63.600,263.902 63.150,263.764 62.600 C 263.626 62.050,263.353 61.600,263.157 61.600 C 262.960 61.600,262.800 61.280,262.800 60.888 C 262.800 60.497,262.440 59.917,262.000 59.600 C 261.560 59.283,261.200 58.780,261.200 58.483 C 261.200 57.642,260.154 56.800,259.109 56.800 C 258.587 56.800,257.942 56.582,257.676 56.316 C 257.073 55.713,229.272 55.484,225.000 56.047 M246.167 78.643 C 246.515 78.776,246.800 79.119,246.800 79.405 C 246.800 79.691,247.141 80.616,247.558 81.462 C 247.974 82.308,248.547 83.810,248.830 84.800 C 249.113 85.790,249.483 86.788,249.652 87.017 C 249.822 87.247,250.081 88.687,250.227 90.217 C 250.373 91.748,250.742 93.399,251.046 93.886 C 251.836 95.150,251.843 107.300,251.055 107.954 C 250.737 108.218,250.395 109.676,250.234 111.449 C 250.082 113.123,249.707 114.876,249.399 115.346 C 249.092 115.816,248.718 116.965,248.569 117.900 C 248.420 118.835,248.185 119.600,248.047 119.600 C 247.908 119.600,247.559 120.185,247.271 120.900 C 246.983 121.615,246.478 122.650,246.149 123.200 C 245.820 123.750,245.451 124.515,245.329 124.900 C 245.207 125.285,244.967 125.600,244.797 125.600 C 244.626 125.600,244.363 126.095,244.211 126.700 C 244.059 127.305,243.590 128.122,243.168 128.516 C 242.745 128.909,242.400 129.494,242.400 129.816 C 242.400 130.137,242.150 130.400,241.843 130.400 C 241.537 130.400,241.184 130.805,241.058 131.300 C 240.932 131.795,239.608 133.454,238.116 134.987 L 235.404 137.775 232.802 137.932 C 231.371 138.018,229.930 138.315,229.600 138.592 C 229.270 138.869,227.744 139.218,226.209 139.368 C 224.674 139.518,223.144 139.885,222.809 140.184 C 222.474 140.482,221.177 140.852,219.926 141.006 C 218.676 141.160,217.565 141.514,217.458 141.793 C 217.351 142.071,216.454 142.421,215.465 142.569 C 214.475 142.718,213.460 143.086,213.210 143.388 C 212.959 143.690,212.044 144.057,211.177 144.204 C 210.310 144.350,209.600 144.601,209.600 144.761 C 209.600 144.920,208.970 145.298,208.200 145.600 C 207.430 145.902,206.800 146.296,206.800 146.475 C 206.800 146.654,206.528 146.800,206.195 146.800 C 205.602 146.800,203.996 147.566,203.600 148.038 C 203.490 148.170,202.938 148.390,202.374 148.528 C 201.809 148.665,200.933 149.138,200.426 149.577 C 199.920 150.017,199.166 150.484,198.752 150.615 C 198.339 150.746,198.000 151.022,198.000 151.227 C 198.000 151.432,197.728 151.600,197.396 151.600 C 197.064 151.600,196.484 151.960,196.107 152.400 C 195.730 152.840,195.224 153.200,194.981 153.200 C 194.738 153.200,194.117 153.650,193.600 154.200 C 193.083 154.750,192.467 155.201,192.230 155.202 C 190.992 155.206,176.000 169.913,176.000 171.123 C 176.000 171.338,175.730 171.618,175.400 171.745 C 175.070 171.871,174.800 172.219,174.800 172.518 C 174.800 172.816,174.350 173.483,173.800 174.000 C 173.250 174.517,172.800 175.138,172.800 175.381 C 172.800 176.586,171.197 177.245,170.801 176.203 C 170.591 175.652,170.239 175.200,170.018 175.200 C 169.796 175.200,169.502 174.750,169.364 174.200 C 169.226 173.650,168.863 173.200,168.557 173.200 C 168.250 173.200,168.000 172.994,168.000 172.743 C 168.000 171.559,160.658 164.011,159.500 164.004 C 159.115 164.002,158.800 163.726,158.800 163.390 C 158.800 163.055,158.334 162.603,157.766 162.387 L 156.731 161.994 157.013 155.697 C 157.198 151.579,157.470 149.192,157.801 148.800 C 158.080 148.470,158.429 146.760,158.578 145.000 C 158.727 143.240,159.121 141.206,159.453 140.480 C 159.785 139.753,160.159 138.493,160.284 137.680 C 160.409 136.866,160.640 136.020,160.797 135.800 C 160.955 135.580,161.329 134.545,161.629 133.500 C 161.929 132.455,162.315 131.600,162.487 131.600 C 162.659 131.600,162.800 131.274,162.800 130.875 C 162.800 130.476,163.250 129.217,163.800 128.077 C 164.350 126.937,164.800 125.752,164.800 125.445 C 164.800 125.137,165.053 124.788,165.362 124.670 C 165.672 124.551,166.043 123.914,166.188 123.255 C 166.333 122.595,166.710 121.841,167.026 121.579 C 167.342 121.317,167.600 120.889,167.600 120.629 C 167.600 120.368,168.050 119.545,168.600 118.800 C 169.150 118.055,169.600 117.163,169.600 116.819 C 169.600 116.474,169.960 115.968,170.400 115.693 C 170.840 115.418,171.200 114.940,171.200 114.630 C 171.200 114.320,171.337 114.007,171.504 113.933 C 171.672 113.860,172.876 112.360,174.181 110.600 C 175.485 108.840,178.818 105.150,181.587 102.400 C 187.099 96.925,187.187 96.850,191.100 94.351 C 191.815 93.895,192.400 93.362,192.400 93.168 C 192.400 92.974,192.850 92.702,193.400 92.564 C 193.950 92.426,194.400 92.063,194.400 91.757 C 194.400 91.450,194.753 91.200,195.184 91.200 C 195.616 91.200,196.291 90.862,196.684 90.450 C 197.078 90.037,197.850 89.562,198.400 89.395 C 198.950 89.227,199.829 88.755,200.354 88.345 C 200.879 87.935,201.624 87.600,202.011 87.600 C 202.398 87.600,202.819 87.328,202.946 86.996 C 203.073 86.664,203.318 86.432,203.489 86.480 C 203.776 86.561,206.047 85.636,207.695 84.766 C 208.077 84.565,208.662 84.400,208.995 84.400 C 209.328 84.400,209.600 84.240,209.600 84.045 C 209.600 83.849,210.185 83.578,210.900 83.442 C 211.615 83.307,212.689 82.940,213.287 82.628 C 213.885 82.316,215.373 81.936,216.594 81.784 C 217.814 81.631,218.945 81.287,219.106 81.018 C 219.268 80.750,220.997 80.341,222.949 80.109 C 224.901 79.878,226.617 79.496,226.761 79.262 C 226.906 79.028,228.459 78.775,230.212 78.699 C 236.330 78.434,245.539 78.402,246.167 78.643 M256.981 160.419 C 264.392 160.868,264.419 160.874,263.483 161.908 C 263.128 162.300,262.716 163.426,262.566 164.410 C 262.416 165.395,262.048 166.483,261.749 166.829 C 261.449 167.175,261.088 168.345,260.947 169.429 C 260.805 170.513,260.560 171.580,260.403 171.800 C 259.875 172.535,259.418 174.669,258.560 180.400 C 258.445 181.170,258.193 182.160,258.000 182.600 C 256.740 185.478,256.778 213.631,258.044 214.980 C 258.240 215.189,258.400 216.213,258.400 217.256 C 258.400 218.299,258.580 219.264,258.800 219.400 C 259.020 219.536,259.200 220.299,259.200 221.095 C 259.200 222.466,259.735 224.658,260.400 226.016 C 260.566 226.355,260.833 227.615,260.994 228.816 C 261.155 230.017,261.514 231.270,261.792 231.600 C 262.071 231.930,262.427 232.920,262.583 233.800 C 262.740 234.680,263.097 235.670,263.377 236.000 C 264.000 236.735,264.810 239.908,264.548 240.590 C 264.346 241.117,260.148 241.600,255.763 241.600 C 254.379 241.600,253.136 241.780,253.000 242.000 C 252.690 242.501,247.895 242.530,247.380 242.034 C 247.171 241.832,246.570 241.607,246.045 241.534 C 245.437 241.449,244.819 240.891,244.345 240.000 C 243.935 239.230,243.363 238.420,243.073 238.200 C 242.783 237.980,242.289 237.215,241.975 236.500 C 241.661 235.785,241.269 235.200,241.102 235.200 C 240.936 235.200,240.800 234.864,240.800 234.454 C 240.800 234.044,240.463 233.279,240.052 232.754 C 239.641 232.229,239.174 231.203,239.014 230.473 C 238.855 229.743,238.493 229.057,238.209 228.948 C 237.926 228.840,237.575 228.001,237.428 227.086 C 237.282 226.170,236.901 225.133,236.583 224.781 C 236.265 224.429,235.889 223.255,235.748 222.171 C 235.607 221.087,235.268 219.930,234.994 219.600 C 234.720 219.270,234.371 217.920,234.218 216.600 C 234.065 215.280,233.653 213.210,233.302 212.000 C 232.374 208.801,232.377 193.859,233.306 191.000 C 233.663 189.900,234.082 187.920,234.236 186.600 C 234.389 185.280,234.749 183.840,235.034 183.400 C 235.319 182.960,235.675 181.666,235.824 180.524 C 235.974 179.383,236.327 178.360,236.608 178.252 C 236.890 178.144,237.242 177.334,237.391 176.451 C 237.541 175.568,237.907 174.643,238.206 174.395 C 238.504 174.148,238.874 173.372,239.026 172.672 C 239.179 171.973,239.641 170.971,240.052 170.446 C 240.463 169.921,240.800 169.239,240.800 168.929 C 240.800 168.620,241.160 167.980,241.600 167.508 C 242.040 167.036,242.400 166.413,242.400 166.125 C 242.400 165.836,242.580 165.600,242.800 165.600 C 243.020 165.600,243.200 165.311,243.200 164.958 C 243.200 164.605,243.648 163.750,244.196 163.058 C 244.745 162.366,245.510 161.397,245.896 160.904 C 246.728 159.845,247.182 159.825,256.981 160.419 M216.092 168.300 C 215.984 168.905,215.641 169.693,215.331 170.050 C 215.020 170.408,214.659 171.357,214.529 172.160 C 214.399 172.963,214.136 173.716,213.946 173.833 C 213.756 173.951,213.600 174.476,213.600 175.000 C 213.600 175.524,213.439 176.052,213.242 176.174 C 213.045 176.295,212.782 177.071,212.658 177.897 C 212.128 181.407,211.892 182.420,211.556 182.627 C 211.360 182.748,211.200 183.816,211.200 185.000 C 211.200 186.184,211.020 187.264,210.800 187.400 C 210.580 187.536,210.400 188.616,210.400 189.800 C 210.400 190.984,210.238 192.053,210.040 192.175 C 209.555 192.475,209.458 211.144,209.939 211.737 C 210.291 212.171,210.480 213.250,211.021 217.900 C 211.142 218.945,211.394 220.160,211.579 220.600 C 211.764 221.040,212.131 222.480,212.393 223.800 C 212.656 225.120,213.035 226.513,213.235 226.895 C 213.436 227.277,213.600 227.864,213.600 228.200 C 213.600 228.536,213.770 229.123,213.978 229.505 C 214.186 229.887,214.466 230.884,214.600 231.721 C 214.734 232.558,215.104 233.342,215.422 233.464 C 215.740 233.586,215.997 233.981,215.994 234.343 C 215.990 234.765,215.883 234.839,215.694 234.550 C 215.532 234.303,214.830 233.977,214.133 233.826 C 213.437 233.675,212.774 233.309,212.660 233.013 C 212.547 232.717,211.917 232.357,211.260 232.213 C 210.604 232.069,209.973 231.706,209.858 231.406 C 209.742 231.106,209.007 230.556,208.224 230.185 C 207.441 229.813,206.800 229.349,206.800 229.154 C 206.800 228.959,206.540 228.800,206.223 228.800 C 205.202 228.800,192.400 215.629,192.400 214.579 C 192.400 214.308,192.130 213.982,191.800 213.855 C 191.470 213.729,191.200 213.356,191.200 213.027 C 191.200 212.697,190.861 212.247,190.446 212.025 C 190.031 211.803,189.570 211.136,189.421 210.542 C 189.272 209.949,188.802 209.020,188.375 208.478 C 187.949 207.936,187.600 207.176,187.600 206.789 C 187.600 206.402,187.347 205.988,187.038 205.870 C 186.728 205.751,186.355 205.104,186.207 204.432 C 186.059 203.759,185.772 203.106,185.569 202.981 C 185.097 202.689,185.085 199.718,185.555 199.428 C 185.750 199.307,186.030 198.567,186.177 197.783 C 186.324 196.999,186.704 196.258,187.022 196.136 C 187.340 196.014,187.600 195.609,187.600 195.235 C 187.600 194.861,188.050 193.945,188.600 193.200 C 189.150 192.455,189.600 191.539,189.600 191.165 C 189.600 190.791,189.873 190.381,190.206 190.253 C 190.539 190.125,190.985 189.566,191.196 189.010 C 191.407 188.455,191.743 188.000,191.942 188.000 C 192.140 188.000,192.527 187.460,192.800 186.800 C 193.073 186.140,193.461 185.600,193.661 185.600 C 193.861 185.600,194.144 185.285,194.289 184.900 C 194.596 184.084,203.772 174.800,204.271 174.800 C 204.456 174.800,204.832 174.440,205.107 174.000 C 205.382 173.560,205.877 173.200,206.207 173.200 C 206.538 173.200,207.116 172.840,207.493 172.400 C 207.870 171.960,208.398 171.600,208.666 171.600 C 208.935 171.600,209.390 171.266,209.677 170.857 C 209.965 170.449,210.650 169.974,211.200 169.802 C 211.750 169.631,212.629 169.155,213.154 168.745 C 213.679 168.335,214.444 168.000,214.854 168.000 C 215.264 168.000,215.600 167.820,215.600 167.600 C 215.600 167.380,215.755 167.200,215.945 167.200 C 216.134 167.200,216.201 167.695,216.092 168.300 M287.103 169.782 C 287.820 169.938,288.591 170.410,288.817 170.833 C 289.043 171.255,289.452 171.600,289.725 171.600 C 289.999 171.600,290.530 171.960,290.907 172.400 C 291.284 172.840,291.869 173.200,292.208 173.200 C 292.547 173.200,293.403 173.830,294.110 174.600 C 294.816 175.370,295.626 176.000,295.910 176.000 C 296.193 176.000,296.529 176.270,296.655 176.600 C 296.782 176.930,297.030 177.200,297.206 177.200 C 297.822 177.200,307.589 187.198,307.613 187.854 C 307.620 188.044,308.257 188.829,309.030 189.598 C 309.802 190.367,310.542 191.428,310.675 191.956 C 310.807 192.484,311.250 193.250,311.658 193.658 C 312.066 194.066,312.400 194.760,312.400 195.200 C 312.400 195.644,312.667 196.000,313.000 196.000 C 313.330 196.000,313.600 196.280,313.600 196.623 C 313.600 196.966,314.050 198.052,314.600 199.037 C 315.150 200.022,315.600 201.012,315.600 201.235 C 315.600 201.459,315.150 202.305,314.600 203.114 C 314.050 203.923,313.600 204.885,313.600 205.250 C 313.600 205.615,313.347 206.012,313.038 206.130 C 312.728 206.249,312.354 206.898,312.206 207.573 C 312.058 208.248,311.703 208.800,311.418 208.800 C 311.133 208.800,310.795 209.295,310.667 209.900 C 310.539 210.505,309.797 211.685,309.017 212.522 C 308.238 213.360,307.600 214.198,307.600 214.386 C 307.600 215.296,298.149 224.800,297.244 224.800 C 297.000 224.800,296.800 225.058,296.800 225.373 C 296.800 225.688,296.449 226.057,296.020 226.194 C 295.592 226.330,294.715 226.932,294.072 227.533 C 293.429 228.133,292.430 228.840,291.852 229.104 C 291.273 229.367,290.800 229.767,290.800 229.991 C 290.800 230.216,290.434 230.400,289.987 230.400 C 289.541 230.400,289.066 230.685,288.932 231.033 C 288.120 233.149,285.963 231.944,285.436 229.079 C 285.282 228.242,284.915 227.466,284.621 227.353 C 284.319 227.237,283.969 226.212,283.818 225.002 C 283.670 223.822,283.311 222.658,283.020 222.417 C 282.729 222.175,282.365 220.767,282.212 219.289 C 282.059 217.810,281.699 216.232,281.411 215.782 C 279.547 212.863,279.520 185.827,281.378 182.400 C 281.676 181.850,282.049 180.190,282.205 178.711 C 282.362 177.233,282.725 175.828,283.011 175.591 C 283.297 175.354,283.652 174.278,283.800 173.200 C 283.948 172.122,284.324 171.029,284.635 170.771 C 284.946 170.513,285.203 169.919,285.206 169.451 C 285.210 168.946,285.332 168.783,285.506 169.050 C 285.668 169.297,286.386 169.627,287.103 169.782 M134.800 177.040 C 135.790 177.173,136.771 177.444,136.980 177.641 C 137.189 177.838,137.686 178.000,138.085 178.000 C 138.840 178.000,139.387 178.220,141.400 179.335 C 142.060 179.700,143.095 180.219,143.700 180.487 C 144.305 180.756,144.800 181.206,144.800 181.488 C 144.800 181.769,145.067 182.000,145.394 182.000 C 146.121 182.000,149.600 185.510,149.600 186.244 C 149.600 186.534,149.960 186.965,150.400 187.200 C 150.840 187.435,151.200 187.848,151.200 188.117 C 151.200 188.386,151.650 189.452,152.200 190.485 C 152.750 191.518,153.200 192.696,153.200 193.102 C 153.200 193.508,153.364 194.011,153.565 194.220 C 153.765 194.429,154.027 195.590,154.147 196.800 C 154.266 198.010,154.483 199.781,154.627 200.735 C 154.792 201.820,154.724 202.636,154.445 202.915 C 154.200 203.160,154.000 204.167,154.000 205.153 C 154.000 206.853,152.620 211.571,151.998 212.000 C 151.838 212.110,151.570 212.639,151.403 213.177 C 151.044 214.325,148.479 217.655,146.982 218.917 C 146.406 219.403,145.472 220.205,144.909 220.700 C 144.345 221.195,143.713 221.600,143.505 221.600 C 143.297 221.600,142.669 221.960,142.109 222.400 C 141.550 222.840,140.816 223.200,140.478 223.200 C 140.140 223.200,139.563 223.471,139.197 223.803 C 138.598 224.345,135.814 224.906,130.856 225.484 C 129.896 225.596,128.726 225.500,128.256 225.270 C 127.785 225.040,126.173 224.735,124.674 224.591 C 122.994 224.431,121.871 224.129,121.746 223.805 C 121.635 223.515,120.918 223.161,120.151 223.017 C 119.385 222.873,118.658 222.496,118.536 222.178 C 118.414 221.860,118.062 221.600,117.753 221.600 C 117.445 221.600,116.884 221.240,116.507 220.800 C 116.130 220.360,115.610 220.000,115.351 220.000 C 114.690 220.000,112.000 217.238,112.000 216.560 C 112.000 216.252,111.730 216.000,111.400 216.000 C 111.070 216.000,110.800 215.754,110.800 215.454 C 110.800 215.154,110.438 214.448,109.996 213.886 C 109.555 213.325,109.084 212.322,108.952 211.658 C 108.819 210.994,108.479 210.362,108.197 210.254 C 107.914 210.146,107.558 209.099,107.406 207.928 C 107.254 206.758,106.866 204.865,106.543 203.722 C 106.081 202.086,106.046 201.191,106.381 199.522 C 106.615 198.355,106.999 196.230,107.236 194.800 C 107.472 193.370,107.909 192.009,108.206 191.775 C 108.504 191.542,108.877 190.834,109.035 190.202 C 109.335 189.006,110.611 186.932,111.742 185.800 C 112.104 185.439,112.400 184.907,112.400 184.618 C 112.400 184.329,112.760 183.999,113.200 183.884 C 113.640 183.769,114.000 183.388,114.000 183.037 C 114.000 182.687,114.256 182.400,114.569 182.400 C 114.882 182.400,115.673 181.950,116.327 181.400 C 116.981 180.850,117.715 180.400,117.958 180.400 C 118.201 180.400,118.400 180.227,118.400 180.016 C 118.400 179.805,119.120 179.416,120.000 179.153 C 120.880 178.889,121.600 178.522,121.600 178.337 C 121.600 178.152,122.129 178.000,122.776 178.000 C 123.423 178.000,124.064 177.820,124.200 177.600 C 124.336 177.380,125.236 177.200,126.200 177.200 C 127.164 177.200,128.076 177.000,128.227 176.756 C 128.492 176.327,129.978 176.392,134.800 177.040 M172.988 227.161 C 173.134 227.623,173.602 228.187,174.027 228.414 C 174.452 228.642,174.801 229.047,174.802 229.314 C 174.803 229.800,176.924 232.373,180.500 236.229 C 181.545 237.355,182.400 238.485,182.400 238.739 C 182.400 238.992,182.661 239.200,182.980 239.200 C 183.299 239.200,183.704 239.430,183.880 239.711 C 184.056 239.992,185.368 241.207,186.796 242.411 C 188.224 243.615,189.574 244.811,189.796 245.068 C 190.374 245.739,193.727 248.227,194.850 248.819 C 195.372 249.094,195.890 249.428,196.000 249.560 C 196.446 250.096,198.671 251.505,199.471 251.759 C 199.941 251.908,200.423 252.284,200.542 252.593 C 200.661 252.903,201.385 253.273,202.151 253.417 C 202.918 253.561,203.638 253.921,203.751 254.217 C 203.865 254.513,204.585 254.873,205.351 255.017 C 206.118 255.161,206.835 255.514,206.945 255.802 C 207.056 256.089,207.698 256.446,208.373 256.594 C 209.048 256.742,209.600 257.029,209.600 257.232 C 209.600 257.434,209.872 257.600,210.205 257.600 C 210.538 257.600,211.123 257.759,211.505 257.953 C 212.876 258.651,214.228 259.171,215.900 259.645 C 216.835 259.910,217.600 260.257,217.600 260.417 C 217.600 260.577,218.635 260.835,219.900 260.991 C 221.165 261.146,222.474 261.518,222.809 261.816 C 223.144 262.115,224.674 262.482,226.209 262.632 C 227.744 262.782,229.270 263.128,229.600 263.402 C 229.930 263.675,231.382 263.988,232.827 264.097 C 235.388 264.291,235.505 264.350,237.517 266.448 C 238.653 267.632,239.856 268.885,240.191 269.234 C 240.526 269.582,240.800 270.051,240.800 270.275 C 240.800 270.638,241.694 271.793,243.376 273.603 C 243.684 273.935,244.060 274.700,244.211 275.303 C 244.363 275.906,244.626 276.400,244.797 276.400 C 244.967 276.400,245.207 276.715,245.329 277.100 C 245.451 277.485,245.859 278.340,246.236 279.000 C 247.329 280.914,247.600 281.549,247.600 282.195 C 247.600 282.528,247.760 282.800,247.955 282.800 C 248.151 282.800,248.422 283.385,248.558 284.100 C 248.693 284.815,249.057 285.884,249.366 286.476 C 249.675 287.067,250.054 288.907,250.210 290.565 C 250.375 292.334,250.721 293.768,251.046 294.038 C 251.843 294.700,251.843 306.839,251.046 308.114 C 250.742 308.601,250.373 310.252,250.227 311.783 C 250.081 313.313,249.808 314.753,249.622 314.983 C 249.435 315.212,249.061 316.210,248.791 317.200 C 248.520 318.190,247.961 319.763,247.549 320.696 C 247.137 321.628,246.800 322.570,246.800 322.788 C 246.800 323.912,227.741 323.790,226.438 322.658 C 226.084 322.350,224.376 321.981,222.600 321.828 C 220.840 321.677,219.340 321.384,219.267 321.177 C 219.193 320.969,218.619 320.800,217.990 320.800 C 217.362 320.800,216.736 320.620,216.600 320.400 C 216.464 320.180,215.834 320.000,215.200 320.000 C 214.566 320.000,213.936 319.820,213.800 319.600 C 213.664 319.380,213.201 319.200,212.771 319.200 C 212.341 319.200,211.677 319.035,211.295 318.834 C 209.743 318.015,207.644 317.200,207.089 317.200 C 206.764 317.200,206.278 316.935,206.009 316.611 C 205.740 316.286,204.920 315.909,204.188 315.771 C 203.455 315.634,202.767 315.292,202.660 315.012 C 202.553 314.732,201.969 314.379,201.364 314.227 C 200.758 314.075,199.820 313.602,199.278 313.175 C 198.736 312.749,198.086 312.400,197.835 312.400 C 197.584 312.400,197.070 312.040,196.693 311.600 C 196.316 311.160,195.736 310.800,195.404 310.800 C 195.072 310.800,194.453 310.485,194.029 310.100 C 192.579 308.784,192.034 308.400,191.617 308.400 C 191.388 308.400,191.200 308.248,191.200 308.061 C 191.200 307.875,190.861 307.560,190.446 307.361 C 187.268 305.840,174.087 292.485,172.450 289.128 C 172.148 288.508,171.743 288.000,171.550 288.000 C 171.358 288.000,171.200 287.740,171.200 287.423 C 171.200 287.105,170.866 286.610,170.457 286.323 C 170.049 286.035,169.581 285.376,169.417 284.859 C 169.137 283.971,167.699 281.581,166.806 280.517 C 166.583 280.251,166.400 279.780,166.400 279.471 C 166.400 279.161,166.040 278.450,165.600 277.891 C 165.160 277.331,164.800 276.660,164.800 276.399 C 164.800 276.137,164.504 275.356,164.143 274.662 C 162.936 272.345,162.800 272.014,162.800 271.405 C 162.800 271.072,162.620 270.800,162.400 270.800 C 162.180 270.800,161.997 270.485,161.994 270.100 C 161.987 269.282,161.073 266.539,160.674 266.141 C 160.523 265.990,160.397 265.492,160.394 265.033 C 160.388 264.213,159.633 261.782,159.142 261.000 C 159.004 260.780,158.758 259.080,158.597 257.223 C 158.435 255.366,158.081 253.624,157.809 253.352 C 156.619 252.162,156.637 239.600,157.829 239.600 C 158.127 239.600,158.565 239.240,158.800 238.800 C 159.035 238.360,159.447 237.998,159.714 237.996 C 160.702 237.988,168.000 230.290,168.000 229.257 C 168.000 229.006,168.267 228.800,168.592 228.800 C 168.918 228.800,169.298 228.350,169.436 227.800 C 169.574 227.250,169.852 226.800,170.053 226.800 C 170.255 226.800,170.592 226.347,170.803 225.793 C 171.239 224.645,172.425 225.388,172.988 227.161 " stroke="none" fill="#040404" fill-rule="evenodd"></path></g></svg>