<svg id="svg" version="1.1" width="400" height="400" viewBox="0 0 400 400" xmlns="http://www.w3.org/2000/svg" xmlns:xlink="http://www.w3.org/1999/xlink" ><g id="svgg"><path id="path0" d="M153.750 76.671 C 153.503 76.852,153.176 77.573,153.025 78.272 C 152.873 78.972,152.510 79.743,152.218 79.985 C 151.926 80.228,151.561 81.275,151.408 82.313 C 151.254 83.351,150.884 84.474,150.585 84.809 C 150.286 85.144,149.921 86.674,149.774 88.209 C 149.627 89.744,149.258 91.399,148.954 91.886 C 148.157 93.161,148.157 105.300,148.954 105.962 C 149.283 106.235,149.624 107.678,149.792 109.511 C 149.948 111.210,150.310 112.870,150.595 113.200 C 150.880 113.530,151.238 114.565,151.392 115.500 C 151.545 116.435,151.806 117.200,151.971 117.200 C 152.137 117.200,152.514 117.965,152.811 118.900 C 153.107 119.835,153.676 121.078,154.075 121.662 C 154.474 122.246,154.800 122.921,154.800 123.162 C 154.800 123.403,154.960 123.600,155.157 123.600 C 155.353 123.600,155.615 124.005,155.740 124.500 C 155.970 125.412,156.668 126.446,158.300 128.297 C 158.795 128.858,159.200 129.500,159.200 129.725 C 159.200 129.949,159.474 130.418,159.809 130.766 C 160.144 131.115,161.347 132.368,162.483 133.552 C 164.495 135.650,164.612 135.709,167.173 135.903 C 168.618 136.012,170.070 136.325,170.400 136.598 C 170.730 136.872,172.256 137.218,173.791 137.368 C 175.326 137.518,176.856 137.885,177.191 138.184 C 177.526 138.482,178.823 138.852,180.074 139.006 C 181.332 139.161,182.436 139.516,182.545 139.801 C 182.654 140.085,183.656 140.443,184.772 140.596 C 185.887 140.750,186.800 141.038,186.800 141.238 C 186.800 141.437,187.149 141.600,187.576 141.600 C 188.003 141.600,188.464 141.780,188.600 142.000 C 188.736 142.220,189.197 142.400,189.624 142.400 C 190.051 142.400,190.400 142.544,190.400 142.720 C 190.400 142.895,191.030 143.267,191.800 143.546 C 192.570 143.824,193.200 144.200,193.200 144.381 C 193.200 144.563,193.839 144.831,194.621 144.978 C 195.403 145.124,196.135 145.487,196.249 145.783 C 196.362 146.079,197.082 146.439,197.849 146.583 C 198.615 146.727,199.337 147.092,199.453 147.394 C 199.569 147.697,200.190 148.127,200.832 148.351 C 201.474 148.575,202.000 148.928,202.000 149.136 C 202.000 149.343,202.450 149.626,203.000 149.764 C 203.550 149.902,204.000 150.189,204.000 150.402 C 204.000 150.615,204.630 151.052,205.400 151.374 C 206.170 151.696,206.800 152.153,206.800 152.389 C 206.800 152.626,207.234 152.985,207.764 153.186 C 208.680 153.535,209.927 154.574,214.617 158.900 C 215.750 159.945,216.885 160.800,217.139 160.800 C 217.392 160.800,217.600 161.008,217.600 161.261 C 217.600 161.515,218.455 162.647,219.500 163.776 C 223.174 167.746,225.200 170.114,225.200 170.437 C 225.200 170.617,225.650 171.214,226.200 171.764 C 226.750 172.314,227.200 173.002,227.200 173.293 C 227.200 174.508,228.740 175.260,229.255 174.297 C 229.514 173.813,229.968 173.175,230.263 172.880 C 230.558 172.584,230.800 172.086,230.800 171.771 C 230.800 171.457,231.070 171.200,231.400 171.200 C 231.730 171.200,232.000 170.994,232.000 170.743 C 232.000 169.559,239.342 162.011,240.500 162.004 C 240.885 162.002,241.200 161.726,241.200 161.390 C 241.200 161.055,241.669 160.602,242.242 160.384 L 243.284 159.988 243.003 153.694 C 242.821 149.620,242.535 147.105,242.194 146.565 C 241.904 146.105,241.538 144.256,241.381 142.456 C 241.224 140.655,240.939 139.086,240.748 138.968 C 240.556 138.849,240.400 138.324,240.400 137.800 C 240.400 137.276,240.220 136.736,240.000 136.600 C 239.780 136.464,239.600 135.834,239.600 135.200 C 239.600 134.566,239.420 133.936,239.200 133.800 C 238.980 133.664,238.800 133.124,238.800 132.600 C 238.800 132.076,238.620 131.536,238.400 131.400 C 238.180 131.264,238.000 130.803,238.000 130.376 C 238.000 129.949,237.820 129.600,237.600 129.600 C 237.380 129.600,237.200 129.177,237.200 128.660 C 237.200 128.142,236.750 126.873,236.200 125.838 C 235.650 124.804,235.200 123.771,235.200 123.542 C 235.200 123.313,234.840 122.669,234.400 122.109 C 233.960 121.550,233.600 120.839,233.600 120.529 C 233.600 120.220,233.417 119.749,233.194 119.483 C 232.301 118.419,230.863 116.029,230.583 115.141 C 230.419 114.624,229.951 113.965,229.543 113.677 C 229.134 113.390,228.800 112.895,228.800 112.577 C 228.800 112.260,228.620 112.000,228.400 112.000 C 228.180 112.000,228.000 111.730,228.000 111.400 C 228.000 111.070,227.848 110.800,227.661 110.800 C 227.475 110.800,227.160 110.461,226.961 110.046 C 225.566 107.132,212.468 94.034,209.554 92.639 C 209.139 92.440,208.800 92.125,208.800 91.939 C 208.800 91.752,208.612 91.600,208.383 91.600 C 207.966 91.600,207.421 91.216,205.971 89.900 C 205.547 89.515,204.928 89.200,204.596 89.200 C 204.264 89.200,203.684 88.840,203.307 88.400 C 202.930 87.960,202.416 87.600,202.165 87.600 C 201.914 87.600,201.264 87.251,200.722 86.825 C 200.180 86.398,199.242 85.925,198.636 85.773 C 198.031 85.621,197.441 85.250,197.325 84.949 C 197.209 84.647,196.853 84.400,196.532 84.400 C 196.212 84.400,194.927 83.935,193.675 83.368 C 192.424 82.800,190.950 82.149,190.400 81.921 C 189.850 81.693,189.087 81.348,188.705 81.153 C 188.323 80.959,187.736 80.800,187.400 80.800 C 187.064 80.800,186.477 80.639,186.095 80.443 C 185.713 80.246,184.410 79.860,183.200 79.586 C 181.990 79.311,180.906 78.943,180.792 78.768 C 180.677 78.593,179.147 78.326,177.392 78.174 C 175.597 78.018,173.917 77.651,173.552 77.334 C 172.812 76.690,154.559 76.079,153.750 76.671 M147.400 157.984 C 146.960 158.182,145.502 158.356,144.160 158.372 C 138.921 158.432,135.644 158.881,135.500 159.557 C 135.306 160.468,136.019 163.287,136.623 164.000 C 136.903 164.330,137.260 165.320,137.417 166.200 C 137.573 167.080,137.932 168.070,138.214 168.400 C 138.496 168.730,138.853 170.030,139.008 171.288 C 139.163 172.546,139.526 173.773,139.815 174.013 C 140.105 174.253,140.456 175.653,140.597 177.125 C 140.737 178.596,141.010 180.160,141.203 180.600 C 141.565 181.424,141.701 182.296,142.478 188.800 C 143.263 195.376,142.890 217.600,141.994 217.600 C 141.821 217.600,141.582 218.365,141.461 219.300 C 140.699 225.215,140.273 227.471,139.818 228.000 C 139.534 228.330,139.210 229.462,139.098 230.516 C 138.986 231.570,138.627 232.740,138.300 233.116 C 137.974 233.492,137.584 234.605,137.434 235.590 C 137.284 236.574,136.872 237.700,136.517 238.092 C 136.162 238.484,135.961 238.894,136.071 239.004 C 136.555 239.489,153.358 240.126,153.512 239.665 C 153.597 239.409,153.922 239.200,154.233 239.200 C 154.545 239.200,154.800 238.944,154.800 238.631 C 154.800 238.318,155.250 237.527,155.800 236.873 C 156.350 236.219,156.800 235.395,156.800 235.042 C 156.800 234.689,156.980 234.400,157.200 234.400 C 157.420 234.400,157.600 234.164,157.600 233.875 C 157.600 233.587,157.960 232.964,158.400 232.492 C 158.840 232.020,159.200 231.429,159.200 231.178 C 159.200 230.928,159.538 230.246,159.950 229.662 C 160.363 229.078,160.824 228.027,160.976 227.328 C 161.127 226.628,161.491 225.856,161.784 225.613 C 162.077 225.370,162.430 224.566,162.569 223.826 C 162.708 223.086,163.066 222.277,163.366 222.028 C 163.666 221.780,164.032 220.604,164.181 219.416 C 164.329 218.228,164.686 217.060,164.974 216.821 C 165.262 216.582,165.625 215.085,165.781 213.493 C 165.936 211.902,166.353 209.987,166.706 209.239 C 167.642 207.259,167.642 189.553,166.707 187.544 C 166.363 186.805,165.954 185.030,165.798 183.600 C 165.642 182.170,165.288 180.730,165.011 180.400 C 164.734 180.070,164.393 178.913,164.252 177.829 C 164.111 176.745,163.735 175.571,163.417 175.219 C 163.099 174.867,162.718 173.830,162.572 172.914 C 162.425 171.999,162.074 171.160,161.791 171.052 C 161.507 170.943,161.146 170.257,160.988 169.527 C 160.830 168.797,160.363 167.722,159.950 167.138 C 159.538 166.554,159.200 165.789,159.200 165.438 C 159.200 165.087,159.054 164.800,158.875 164.800 C 158.696 164.800,158.305 164.177,158.007 163.417 C 157.708 162.656,157.224 161.941,156.932 161.829 C 156.639 161.717,156.394 161.394,156.386 161.113 C 156.360 160.194,154.628 158.511,153.400 158.212 C 151.393 157.722,148.247 157.602,147.400 157.984 M184.006 165.657 C 184.003 166.019,184.260 166.414,184.578 166.536 C 184.896 166.658,185.269 167.442,185.407 168.279 C 185.545 169.116,185.806 170.160,185.988 170.600 C 186.650 172.199,187.124 173.849,187.599 176.200 C 187.866 177.520,188.236 178.960,188.421 179.400 C 188.606 179.840,188.861 181.100,188.987 182.200 C 189.508 186.756,189.695 187.819,190.039 188.180 C 190.545 188.713,190.508 207.486,190.000 207.800 C 189.780 207.936,189.600 209.016,189.600 210.200 C 189.600 211.384,189.420 212.464,189.200 212.600 C 188.980 212.736,188.800 213.816,188.800 215.000 C 188.800 216.184,188.620 217.264,188.400 217.400 C 188.180 217.536,188.000 218.256,188.000 219.000 C 188.000 219.744,187.844 220.449,187.653 220.567 C 187.462 220.685,187.219 221.558,187.112 222.507 C 187.005 223.456,186.643 224.855,186.309 225.616 C 185.974 226.377,185.491 227.765,185.234 228.700 C 184.978 229.635,184.616 230.400,184.429 230.400 C 184.243 230.400,184.012 230.940,183.915 231.600 C 183.818 232.260,183.887 232.800,184.069 232.800 C 184.251 232.800,184.400 232.620,184.400 232.400 C 184.400 232.180,184.736 232.000,185.146 232.000 C 185.556 232.000,186.321 231.665,186.846 231.255 C 187.371 230.845,188.250 230.369,188.800 230.198 C 189.350 230.026,190.035 229.551,190.323 229.143 C 190.610 228.734,191.065 228.400,191.334 228.400 C 191.602 228.400,192.130 228.040,192.507 227.600 C 192.884 227.160,193.464 226.800,193.796 226.800 C 194.128 226.800,197.280 223.920,200.800 220.400 C 204.320 216.880,207.200 213.728,207.200 213.396 C 207.200 213.064,207.560 212.484,208.000 212.107 C 208.440 211.730,208.800 211.202,208.800 210.934 C 208.800 210.665,209.134 210.210,209.543 209.923 C 209.951 209.635,210.426 208.950,210.598 208.400 C 210.769 207.850,211.245 206.971,211.655 206.446 C 212.065 205.921,212.400 205.171,212.400 204.779 C 212.400 204.387,212.601 204.000,212.846 203.918 C 213.996 203.535,215.361 197.594,214.431 197.019 C 214.228 196.894,213.941 196.241,213.793 195.568 C 213.645 194.896,213.272 194.249,212.962 194.130 C 212.653 194.012,212.400 193.598,212.400 193.211 C 212.400 192.824,212.065 192.079,211.655 191.554 C 211.245 191.029,210.769 190.150,210.598 189.600 C 210.426 189.050,209.951 188.365,209.543 188.077 C 209.134 187.790,208.800 187.289,208.800 186.965 C 208.800 186.640,208.530 186.271,208.200 186.145 C 207.870 186.018,207.600 185.692,207.600 185.421 C 207.600 184.368,194.797 171.200,193.774 171.200 C 193.454 171.200,192.884 170.840,192.507 170.400 C 192.130 169.960,191.602 169.600,191.334 169.600 C 191.065 169.600,190.602 169.253,190.305 168.828 C 190.007 168.404,189.263 167.931,188.650 167.777 C 188.037 167.623,187.445 167.261,187.334 166.973 C 187.224 166.685,186.563 166.325,185.867 166.174 C 185.170 166.023,184.468 165.697,184.306 165.450 C 184.117 165.161,184.010 165.235,184.006 165.657 M112.400 167.895 C 112.070 168.022,111.565 168.458,111.277 168.863 C 110.990 169.268,110.535 169.600,110.266 169.600 C 109.998 169.600,109.470 169.960,109.093 170.400 C 108.716 170.840,108.144 171.200,107.822 171.200 C 107.500 171.200,106.795 171.605,106.256 172.100 C 104.703 173.526,102.712 175.200,102.568 175.200 C 102.496 175.200,102.014 175.605,101.499 176.100 C 100.983 176.595,99.940 177.565,99.181 178.255 C 98.421 178.944,96.990 180.461,96.000 181.625 C 95.010 182.789,93.795 184.102,93.300 184.543 C 92.805 184.984,92.400 185.482,92.400 185.650 C 92.400 185.818,91.766 186.640,90.991 187.478 C 90.216 188.315,89.470 189.431,89.333 189.958 C 89.196 190.485,88.750 191.250,88.342 191.658 C 87.934 192.066,87.600 192.745,87.600 193.167 C 87.600 193.588,87.450 193.993,87.267 194.067 C 87.084 194.140,86.352 195.268,85.640 196.574 L 84.346 198.947 85.669 201.474 C 86.396 202.863,87.128 204.000,87.296 204.000 C 87.463 204.000,87.600 204.360,87.600 204.800 C 87.600 205.240,87.934 205.934,88.342 206.342 C 88.750 206.750,89.193 207.516,89.325 208.044 C 89.458 208.572,90.198 209.633,90.970 210.402 C 91.743 211.171,92.384 211.980,92.396 212.200 C 92.408 212.420,93.586 213.770,95.013 215.200 C 96.441 216.630,97.709 218.115,97.831 218.500 C 97.954 218.885,98.227 219.200,98.437 219.200 C 98.648 219.200,99.631 220.010,100.621 221.000 C 101.611 221.990,102.506 222.800,102.611 222.800 C 102.820 222.800,103.453 223.327,105.734 225.404 C 106.578 226.172,107.525 226.800,107.838 226.800 C 108.152 226.800,108.716 227.160,109.093 227.600 C 109.470 228.040,109.998 228.400,110.266 228.400 C 110.535 228.400,110.998 228.747,111.295 229.172 C 111.593 229.596,112.368 230.074,113.018 230.233 C 113.668 230.393,114.332 230.720,114.494 230.962 C 114.665 231.217,114.790 231.044,114.794 230.549 C 114.797 230.081,115.054 229.487,115.365 229.229 C 115.676 228.971,116.052 227.878,116.200 226.800 C 116.348 225.722,116.703 224.646,116.989 224.409 C 117.275 224.172,117.631 222.840,117.780 221.451 C 117.929 220.061,118.291 218.461,118.584 217.895 C 118.878 217.329,119.239 214.916,119.386 212.533 C 119.533 210.150,119.935 206.601,120.278 204.646 C 120.846 201.415,120.845 200.741,120.269 197.246 C 119.921 195.131,119.521 191.523,119.381 189.229 C 119.238 186.887,118.894 184.695,118.596 184.229 C 118.304 183.773,117.941 182.190,117.788 180.711 C 117.635 179.233,117.271 177.825,116.980 177.583 C 116.689 177.342,116.330 176.178,116.182 174.998 C 116.035 173.818,115.681 172.763,115.395 172.653 C 115.109 172.544,114.753 171.857,114.604 171.127 C 114.285 169.566,113.491 167.587,113.202 167.632 C 113.091 167.649,112.730 167.767,112.400 167.895 M267.509 174.624 C 267.386 174.747,266.075 175.020,264.596 175.229 C 262.013 175.595,261.246 175.864,258.600 177.333 C 257.940 177.699,256.905 178.219,256.300 178.487 C 255.695 178.756,255.200 179.206,255.200 179.488 C 255.200 179.769,254.933 180.000,254.606 180.000 C 253.888 180.000,250.522 183.385,250.186 184.445 C 250.054 184.860,249.790 185.200,249.599 185.200 C 249.408 185.200,249.024 185.830,248.746 186.600 C 248.467 187.370,248.095 188.000,247.920 188.000 C 247.744 188.000,247.600 188.349,247.600 188.776 C 247.600 189.203,247.420 189.664,247.200 189.800 C 246.980 189.936,246.800 190.476,246.800 191.000 C 246.800 191.524,246.646 192.048,246.459 192.164 C 246.167 192.344,245.514 197.391,245.549 199.200 C 245.591 201.432,246.168 205.657,246.454 205.834 C 246.645 205.951,246.800 206.476,246.800 207.000 C 246.800 207.524,246.980 208.064,247.200 208.200 C 247.420 208.336,247.600 208.797,247.600 209.224 C 247.600 209.651,247.760 210.000,247.957 210.000 C 248.153 210.000,248.418 210.417,248.546 210.926 C 248.674 211.436,249.098 212.229,249.489 212.689 C 249.880 213.149,250.470 213.933,250.800 214.432 C 251.777 215.908,254.025 218.000,254.634 218.000 C 254.945 218.000,255.200 218.231,255.200 218.512 C 255.200 218.794,255.695 219.244,256.300 219.513 C 256.905 219.781,257.940 220.300,258.600 220.665 C 260.613 221.780,261.160 222.000,261.915 222.000 C 262.314 222.000,262.811 222.162,263.020 222.359 C 263.771 223.069,271.404 223.841,271.773 223.244 C 271.924 223.000,272.836 222.800,273.800 222.800 C 274.764 222.800,275.664 222.620,275.800 222.400 C 275.936 222.180,276.577 222.000,277.224 222.000 C 277.871 222.000,278.400 221.840,278.400 221.645 C 278.400 221.449,279.039 221.169,279.821 221.022 C 280.603 220.876,281.342 220.496,281.464 220.178 C 281.586 219.860,281.910 219.600,282.184 219.600 C 282.459 219.600,283.169 219.150,283.762 218.600 C 284.356 218.050,285.004 217.600,285.202 217.600 C 285.760 217.600,287.507 215.722,287.796 214.813 C 287.938 214.366,288.312 214.000,288.627 214.000 C 288.942 214.000,289.200 213.754,289.200 213.454 C 289.200 213.154,289.562 212.448,290.004 211.886 C 290.445 211.325,290.916 210.322,291.048 209.658 C 291.181 208.994,291.525 208.361,291.813 208.250 C 292.110 208.136,292.457 207.046,292.616 205.725 C 292.771 204.446,293.145 202.793,293.448 202.051 C 293.752 201.309,294.000 199.936,294.000 199.000 C 294.000 198.064,293.752 196.691,293.448 195.949 C 293.145 195.207,292.771 193.554,292.616 192.275 C 292.457 190.954,292.110 189.864,291.813 189.750 C 291.525 189.639,291.181 189.006,291.048 188.342 C 290.916 187.678,290.445 186.675,290.004 186.114 C 289.562 185.552,289.200 184.936,289.200 184.746 C 289.200 184.556,288.885 184.052,288.500 183.627 C 286.045 180.914,285.076 180.000,284.655 180.000 C 284.393 180.000,283.870 179.640,283.493 179.200 C 283.116 178.760,282.555 178.400,282.247 178.400 C 281.938 178.400,281.588 178.147,281.470 177.838 C 281.351 177.528,280.657 177.146,279.927 176.987 C 279.197 176.829,278.491 176.529,278.359 176.321 C 278.045 175.829,275.404 175.222,273.524 175.210 C 272.712 175.204,271.936 175.020,271.800 174.800 C 271.542 174.383,267.900 174.233,267.509 174.624 M227.951 223.534 C 227.594 223.900,227.176 224.605,227.024 225.100 C 226.871 225.596,226.398 226.187,225.973 226.414 C 225.548 226.642,225.200 227.067,225.200 227.359 C 225.200 228.753,209.254 244.785,207.845 244.807 C 207.600 244.811,206.976 245.261,206.458 245.807 C 205.940 246.353,205.305 246.800,205.047 246.800 C 204.789 246.800,204.270 247.160,203.893 247.600 C 203.516 248.040,202.936 248.400,202.604 248.400 C 202.272 248.400,202.000 248.589,202.000 248.821 C 202.000 249.052,201.474 249.425,200.832 249.649 C 200.190 249.873,199.569 250.303,199.453 250.606 C 199.337 250.908,198.615 251.273,197.849 251.417 C 197.082 251.561,196.362 251.921,196.249 252.217 C 196.135 252.513,195.403 252.876,194.621 253.022 C 193.839 253.169,193.200 253.415,193.200 253.570 C 193.200 253.724,192.570 254.098,191.800 254.400 C 191.030 254.702,190.400 255.096,190.400 255.275 C 190.400 255.454,190.078 255.600,189.685 255.600 C 189.291 255.600,188.256 255.964,187.385 256.410 C 186.513 256.855,185.110 257.331,184.266 257.466 C 183.422 257.602,182.645 257.938,182.539 258.214 C 182.434 258.489,181.324 258.840,180.074 258.994 C 178.823 259.148,177.526 259.518,177.191 259.816 C 176.856 260.115,175.326 260.482,173.791 260.632 C 172.256 260.782,170.730 261.128,170.400 261.402 C 170.070 261.675,168.613 261.989,167.163 262.098 L 164.526 262.298 161.849 265.049 C 160.376 266.562,159.068 268.205,158.942 268.700 C 158.816 269.195,158.463 269.600,158.157 269.600 C 157.850 269.600,157.600 269.842,157.600 270.139 C 157.600 270.435,157.235 271.098,156.789 271.613 C 156.343 272.127,155.874 272.964,155.746 273.474 C 155.618 273.983,155.353 274.400,155.157 274.400 C 154.960 274.400,154.800 274.597,154.800 274.838 C 154.800 275.079,154.466 275.754,154.058 276.338 C 153.650 276.922,153.200 277.882,153.058 278.472 C 152.915 279.062,152.544 279.799,152.233 280.110 C 151.922 280.421,151.543 281.507,151.390 282.525 C 151.238 283.542,150.874 284.573,150.582 284.815 C 150.274 285.071,149.934 286.589,149.774 288.422 C 149.609 290.314,149.277 291.770,148.949 292.042 C 148.157 292.700,148.161 304.845,148.954 306.114 C 149.258 306.601,149.627 308.256,149.774 309.791 C 149.921 311.326,150.282 312.856,150.577 313.191 C 150.872 313.526,151.243 314.595,151.403 315.567 C 151.562 316.538,152.031 317.888,152.445 318.567 C 152.859 319.245,153.198 320.112,153.199 320.492 C 153.201 321.600,154.763 321.740,164.075 321.469 C 170.560 321.281,173.035 321.070,173.702 320.649 C 174.196 320.337,175.981 319.960,177.669 319.810 C 179.601 319.638,180.812 319.345,180.937 319.019 C 181.049 318.728,182.161 318.373,183.468 318.212 C 184.751 318.053,185.980 317.798,186.200 317.645 C 186.420 317.492,187.320 317.137,188.200 316.856 C 189.080 316.575,190.520 316.016,191.400 315.614 C 194.987 313.975,195.951 313.600,196.573 313.600 C 196.932 313.600,197.324 313.341,197.446 313.024 C 197.567 312.708,198.177 312.337,198.800 312.200 C 199.423 312.063,200.024 311.715,200.134 311.427 C 200.245 311.139,200.845 310.775,201.468 310.619 C 202.090 310.463,202.922 309.990,203.316 309.568 C 203.709 309.145,204.294 308.800,204.616 308.800 C 204.937 308.800,205.547 308.485,205.971 308.100 C 207.338 306.860,207.959 306.397,209.393 305.551 C 210.167 305.094,210.800 304.559,210.800 304.360 C 210.800 304.162,210.978 304.000,211.195 304.000 C 212.612 304.000,225.281 291.011,227.289 287.500 C 227.761 286.675,228.294 286.000,228.474 286.000 C 228.653 286.000,228.800 285.732,228.800 285.403 C 228.800 285.075,229.160 284.582,229.600 284.307 C 230.040 284.032,230.400 283.526,230.400 283.181 C 230.400 282.837,230.850 281.945,231.400 281.200 C 231.950 280.455,232.400 279.604,232.400 279.310 C 232.400 279.016,232.670 278.671,233.000 278.545 C 233.330 278.418,233.600 277.998,233.600 277.611 C 233.600 277.224,233.960 276.450,234.400 275.891 C 234.840 275.331,235.200 274.687,235.200 274.458 C 235.200 274.229,235.650 273.196,236.200 272.162 C 236.750 271.127,237.200 269.858,237.200 269.340 C 237.200 268.823,237.380 268.400,237.600 268.400 C 237.820 268.400,238.000 268.051,238.000 267.624 C 238.000 267.197,238.180 266.736,238.400 266.600 C 238.620 266.464,238.800 265.924,238.800 265.400 C 238.800 264.876,238.980 264.336,239.200 264.200 C 239.420 264.064,239.600 263.434,239.600 262.800 C 239.600 262.166,239.780 261.536,240.000 261.400 C 240.220 261.264,240.400 260.724,240.400 260.200 C 240.400 259.676,240.556 259.151,240.748 259.032 C 240.939 258.914,241.222 257.329,241.377 255.509 C 241.532 253.689,241.892 251.838,242.176 251.395 C 242.505 250.884,242.802 248.294,242.989 244.301 L 243.284 238.012 242.242 237.616 C 241.669 237.398,241.200 236.945,241.200 236.610 C 241.200 236.274,240.885 235.998,240.500 235.996 C 239.342 235.989,232.000 228.441,232.000 227.257 C 232.000 227.006,231.730 226.800,231.400 226.800 C 231.070 226.800,230.800 226.558,230.800 226.261 C 230.800 225.965,230.485 225.350,230.100 224.895 C 229.715 224.440,229.220 223.798,229.000 223.468 C 228.648 222.940,228.522 222.948,227.951 223.534 " stroke="none" fill="#f9bc07" fill-rule="evenodd"></path><path id="path1" d="M147.600 53.600 C 147.600 53.825,146.475 54.000,145.024 54.000 C 143.607 54.000,142.336 54.180,142.200 54.400 C 142.064 54.620,141.501 54.800,140.948 54.800 C 139.913 54.800,138.800 55.614,138.800 56.371 C 138.800 56.607,138.628 56.800,138.418 56.800 C 138.208 56.800,137.918 57.430,137.774 58.200 C 137.625 58.991,137.273 59.600,136.963 59.600 C 136.662 59.600,136.306 60.037,136.172 60.571 C 136.037 61.105,135.684 61.636,135.386 61.750 C 135.088 61.864,134.724 62.597,134.578 63.379 C 134.428 64.174,134.073 64.800,133.771 64.800 C 133.474 64.800,133.037 65.520,132.800 66.400 C 132.563 67.280,132.217 68.000,132.032 68.000 C 131.847 68.000,131.491 68.810,131.242 69.800 C 130.992 70.790,130.619 71.600,130.412 71.600 C 130.206 71.600,129.928 72.275,129.796 73.100 C 129.664 73.925,129.386 74.913,129.178 75.295 C 128.970 75.677,128.800 76.352,128.800 76.795 C 128.800 77.238,128.640 77.600,128.444 77.600 C 128.248 77.600,127.978 78.230,127.844 79.000 C 127.710 79.770,127.490 81.030,127.356 81.800 C 127.222 82.570,126.968 83.200,126.792 83.200 C 126.461 83.200,126.290 84.553,125.634 92.400 C 125.215 97.406,125.511 109.498,126.060 109.837 C 126.247 109.953,126.400 110.937,126.400 112.024 C 126.400 113.111,126.580 114.000,126.800 114.000 C 127.020 114.000,127.200 114.720,127.200 115.600 C 127.200 116.480,127.380 117.200,127.600 117.200 C 127.820 117.200,128.000 117.920,128.000 118.800 C 128.000 119.680,128.180 120.400,128.400 120.400 C 128.620 120.400,128.800 120.762,128.800 121.205 C 128.800 121.648,128.970 122.323,129.178 122.705 C 129.386 123.087,129.664 124.075,129.796 124.900 C 129.946 125.836,130.255 126.400,130.618 126.400 C 130.996 126.400,131.200 126.815,131.200 127.584 C 131.200 128.236,131.539 129.091,131.953 129.484 C 132.368 129.878,132.832 130.784,132.985 131.498 C 133.137 132.211,133.515 132.937,133.824 133.109 C 134.132 133.282,134.501 134.003,134.642 134.712 L 134.900 136.000 133.074 136.000 C 132.069 136.000,131.136 136.180,131.000 136.400 C 130.864 136.620,129.953 136.800,128.976 136.800 C 127.999 136.800,127.200 136.960,127.200 137.155 C 127.200 137.530,126.251 137.771,121.900 138.497 C 120.286 138.766,119.200 139.144,119.200 139.436 C 119.200 139.718,118.367 140.039,117.230 140.196 C 116.146 140.345,115.167 140.709,115.053 141.005 C 114.940 141.302,114.026 141.667,113.023 141.817 C 111.935 141.981,111.200 142.300,111.200 142.610 C 111.200 142.905,110.506 143.247,109.600 143.400 C 108.675 143.556,108.000 143.894,108.000 144.200 C 108.000 144.506,107.325 144.844,106.400 145.000 C 105.520 145.149,104.800 145.434,104.800 145.635 C 104.800 145.836,104.522 146.000,104.183 146.000 C 103.844 146.000,103.180 146.360,102.708 146.800 C 102.236 147.240,101.613 147.600,101.325 147.600 C 101.036 147.600,100.800 147.740,100.800 147.910 C 100.800 148.081,99.992 148.576,99.004 149.010 C 98.016 149.445,97.206 150.003,97.204 150.250 C 97.202 150.498,96.660 150.808,96.000 150.940 C 95.331 151.074,94.800 151.436,94.800 151.758 C 94.800 152.076,94.260 152.455,93.600 152.600 C 92.940 152.745,92.400 153.119,92.400 153.432 C 92.400 153.744,92.265 154.000,92.100 154.000 C 91.935 154.001,91.277 154.451,90.638 155.000 C 89.999 155.550,89.246 156.000,88.965 156.000 C 88.684 156.000,88.340 156.360,88.200 156.800 C 88.060 157.240,87.728 157.600,87.461 157.600 C 87.195 157.600,86.717 157.960,86.400 158.400 C 86.083 158.840,85.593 159.200,85.312 159.200 C 85.030 159.200,84.800 159.380,84.800 159.600 C 84.800 159.820,84.513 160.000,84.163 160.000 C 83.812 160.000,83.433 160.354,83.319 160.787 C 83.206 161.219,82.773 161.682,82.357 161.814 C 81.941 161.946,81.600 162.300,81.600 162.600 C 81.600 162.900,81.240 163.260,80.800 163.400 C 80.360 163.540,80.000 163.893,80.000 164.184 C 80.000 164.476,79.730 164.818,79.400 164.945 C 79.070 165.071,78.800 165.407,78.800 165.691 C 78.800 165.975,78.440 166.432,78.000 166.707 C 77.560 166.982,77.200 167.475,77.200 167.803 C 77.200 168.132,76.942 168.400,76.627 168.400 C 76.312 168.400,75.940 168.760,75.800 169.200 C 75.660 169.641,75.198 170.187,74.773 170.414 C 74.348 170.642,74.000 171.085,74.000 171.400 C 74.000 171.715,73.640 172.165,73.200 172.400 C 72.760 172.635,72.400 173.092,72.400 173.414 C 72.400 173.736,72.220 174.000,72.000 174.000 C 71.780 174.000,71.600 174.317,71.600 174.704 C 71.600 175.091,71.240 175.632,70.800 175.907 C 70.360 176.182,70.000 176.660,70.000 176.970 C 70.000 177.280,69.865 177.593,69.700 177.667 C 69.227 177.877,68.000 180.256,68.000 180.962 C 68.000 181.313,67.743 181.600,67.428 181.600 C 67.113 181.600,66.798 182.005,66.728 182.500 C 66.646 183.078,66.278 183.446,65.700 183.528 C 65.205 183.598,64.800 183.897,64.800 184.193 C 64.800 184.507,64.138 184.842,63.200 185.000 C 62.275 185.156,61.600 185.494,61.600 185.800 C 61.600 186.106,60.925 186.444,60.000 186.600 C 59.092 186.753,58.400 187.095,58.400 187.391 C 58.400 187.677,57.770 188.029,57.000 188.174 C 56.211 188.322,55.600 188.675,55.600 188.983 C 55.600 189.309,54.954 189.639,54.000 189.800 C 53.016 189.966,52.400 190.288,52.400 190.635 C 52.400 190.946,52.085 191.201,51.700 191.202 C 51.315 191.204,50.484 191.474,49.854 191.802 C 49.224 192.131,48.459 192.400,48.154 192.400 C 47.849 192.400,47.600 192.558,47.600 192.751 C 47.600 192.945,47.015 193.340,46.300 193.629 C 45.585 193.918,44.910 194.255,44.800 194.377 C 44.372 194.854,42.915 195.511,41.687 195.781 C 40.979 195.936,40.400 196.297,40.400 196.582 C 40.400 196.867,39.850 197.210,39.177 197.345 C 36.209 197.938,36.209 200.062,39.177 200.655 C 39.850 200.790,40.400 201.133,40.400 201.418 C 40.400 201.703,40.979 202.064,41.687 202.219 C 42.915 202.489,44.372 203.146,44.800 203.623 C 44.910 203.745,45.585 204.082,46.300 204.371 C 47.015 204.660,47.600 205.055,47.600 205.249 C 47.600 205.442,47.849 205.600,48.154 205.600 C 48.459 205.600,49.224 205.869,49.854 206.198 C 50.484 206.526,51.296 206.796,51.657 206.798 C 52.019 206.799,52.414 207.060,52.536 207.378 C 52.658 207.696,53.397 208.076,54.179 208.222 C 54.970 208.371,55.600 208.727,55.600 209.026 C 55.600 209.324,56.225 209.681,57.000 209.826 C 57.770 209.971,58.400 210.323,58.400 210.609 C 58.400 210.905,59.092 211.247,60.000 211.400 C 60.925 211.556,61.600 211.894,61.600 212.200 C 61.600 212.506,62.275 212.844,63.200 213.000 C 64.080 213.149,64.800 213.434,64.800 213.635 C 64.800 213.836,65.165 214.000,65.610 214.000 C 66.190 214.000,66.488 214.341,66.660 215.200 C 66.792 215.860,67.147 216.400,67.450 216.400 C 67.752 216.400,68.000 216.598,68.000 216.840 C 68.000 217.364,69.202 219.980,69.787 220.729 C 70.014 221.019,70.515 221.604,70.900 222.029 C 71.285 222.453,71.600 223.070,71.600 223.400 C 71.600 223.730,71.780 224.000,72.000 224.000 C 72.220 224.000,72.400 224.264,72.400 224.586 C 72.400 224.908,72.760 225.365,73.200 225.600 C 73.640 225.835,74.000 226.285,74.000 226.600 C 74.000 226.915,74.348 227.358,74.773 227.586 C 75.198 227.813,75.660 228.359,75.800 228.800 C 75.940 229.240,76.312 229.600,76.627 229.600 C 76.942 229.600,77.200 229.868,77.200 230.197 C 77.200 230.525,77.560 231.018,78.000 231.293 C 78.440 231.568,78.800 232.025,78.800 232.309 C 78.800 232.593,79.070 232.929,79.400 233.055 C 79.730 233.182,80.000 233.524,80.000 233.816 C 80.000 234.107,80.360 234.460,80.800 234.600 C 81.240 234.740,81.600 235.100,81.600 235.400 C 81.600 235.700,81.951 236.057,82.380 236.194 C 82.808 236.330,83.270 236.792,83.406 237.220 C 83.543 237.649,83.912 238.000,84.227 238.000 C 84.542 238.000,84.800 238.180,84.800 238.400 C 84.800 238.620,85.004 238.800,85.253 238.800 C 85.502 238.800,85.997 239.127,86.353 239.528 C 86.709 239.928,87.315 240.372,87.700 240.515 C 88.085 240.658,88.400 241.051,88.400 241.387 C 88.400 241.724,88.642 242.000,88.938 242.000 C 89.234 242.000,89.999 242.450,90.638 243.000 C 91.277 243.549,91.935 243.999,92.100 244.000 C 92.265 244.000,92.400 244.256,92.400 244.568 C 92.400 244.881,92.940 245.255,93.600 245.400 C 94.260 245.545,94.800 245.924,94.800 246.242 C 94.800 246.564,95.331 246.926,96.000 247.060 C 96.660 247.192,97.200 247.457,97.200 247.650 C 97.200 247.843,97.470 248.000,97.800 248.000 C 98.130 248.000,98.400 248.150,98.400 248.332 C 98.400 248.515,98.895 248.920,99.500 249.232 C 100.105 249.544,100.690 249.889,100.800 249.999 C 101.194 250.395,103.413 251.654,104.100 251.871 C 104.485 251.993,104.800 252.236,104.800 252.411 C 104.800 252.586,105.520 252.851,106.400 253.000 C 107.325 253.156,108.000 253.494,108.000 253.800 C 108.000 254.106,108.675 254.444,109.600 254.600 C 110.506 254.753,111.200 255.095,111.200 255.390 C 111.200 255.700,111.935 256.019,113.023 256.183 C 114.026 256.333,114.940 256.698,115.053 256.995 C 115.167 257.291,116.146 257.655,117.230 257.804 C 118.528 257.983,119.200 258.267,119.200 258.638 C 119.200 258.956,119.590 259.197,120.100 259.193 C 121.518 259.182,127.200 260.537,127.200 260.886 C 127.200 261.059,127.999 261.200,128.976 261.200 C 129.953 261.200,130.864 261.380,131.000 261.600 C 131.136 261.820,132.069 262.000,133.074 262.000 L 134.900 262.000 134.642 263.288 C 134.501 263.997,134.132 264.718,133.824 264.891 C 133.515 265.063,133.137 265.789,132.985 266.502 C 132.832 267.216,132.368 268.122,131.953 268.516 C 131.539 268.909,131.200 269.764,131.200 270.416 C 131.200 271.185,130.996 271.600,130.618 271.600 C 130.255 271.600,129.946 272.164,129.796 273.100 C 129.664 273.925,129.386 274.913,129.178 275.295 C 128.970 275.677,128.800 276.352,128.800 276.795 C 128.800 277.238,128.620 277.600,128.400 277.600 C 128.180 277.600,128.000 278.320,128.000 279.200 C 128.000 280.080,127.820 280.800,127.600 280.800 C 127.380 280.800,127.200 281.419,127.200 282.176 C 127.200 282.933,127.020 283.664,126.800 283.800 C 126.580 283.936,126.400 284.926,126.400 286.000 C 126.400 287.074,126.247 288.047,126.060 288.163 C 124.867 288.900,125.621 314.800,126.836 314.800 C 127.036 314.800,127.200 315.329,127.200 315.976 C 127.200 316.623,127.380 317.264,127.600 317.400 C 127.820 317.536,128.000 318.267,128.000 319.024 C 128.000 319.781,128.180 320.400,128.400 320.400 C 128.620 320.400,128.800 320.839,128.800 321.376 C 128.800 321.913,128.959 322.451,129.154 322.571 C 129.348 322.692,129.629 323.602,129.778 324.595 C 129.927 325.588,130.215 326.400,130.419 326.400 C 130.622 326.400,130.992 327.210,131.242 328.200 C 131.491 329.190,131.847 330.000,132.032 330.000 C 132.217 330.000,132.566 330.729,132.806 331.621 C 133.046 332.512,133.486 333.335,133.785 333.450 C 134.083 333.564,134.449 334.140,134.596 334.729 C 134.744 335.318,135.210 336.122,135.632 336.516 C 136.055 336.909,136.400 337.494,136.400 337.816 C 136.400 338.137,136.670 338.400,137.000 338.400 C 137.330 338.400,137.600 338.747,137.600 339.171 C 137.600 339.596,137.870 340.213,138.200 340.543 C 138.530 340.873,138.800 341.349,138.800 341.600 C 138.800 342.367,139.889 343.200,140.891 343.200 C 141.413 343.200,142.055 343.415,142.317 343.677 C 142.991 344.351,168.844 344.619,174.000 344.006 C 176.090 343.758,178.835 343.459,180.100 343.342 C 181.365 343.225,182.400 342.989,182.400 342.817 C 182.400 342.534,183.129 342.364,187.100 341.722 C 187.815 341.607,188.400 341.352,188.400 341.156 C 188.400 340.960,188.839 340.800,189.376 340.800 C 189.913 340.800,190.448 340.646,190.565 340.457 C 190.681 340.269,191.703 340.005,192.834 339.870 C 193.966 339.736,195.096 339.370,195.346 339.056 C 195.596 338.742,196.655 338.365,197.700 338.218 C 198.962 338.041,199.600 337.758,199.600 337.375 C 199.600 337.047,199.986 336.798,200.500 336.795 C 202.027 336.785,203.200 336.333,203.200 335.753 C 203.200 335.405,203.645 335.200,204.400 335.200 C 205.060 335.200,205.942 334.858,206.359 334.441 C 206.777 334.023,207.675 333.559,208.355 333.410 C 209.035 333.261,209.694 332.972,209.819 332.769 C 209.945 332.566,210.307 332.400,210.624 332.400 C 210.941 332.400,211.547 332.085,211.971 331.700 C 213.508 330.305,213.977 330.000,214.583 330.000 C 214.922 330.000,215.200 329.843,215.200 329.650 C 215.200 329.457,215.740 329.192,216.400 329.060 C 217.060 328.928,217.600 328.568,217.600 328.260 C 217.600 327.952,218.140 327.592,218.800 327.460 C 219.469 327.326,220.000 326.964,220.000 326.642 C 220.000 326.324,220.522 325.949,221.159 325.809 C 221.833 325.661,222.404 325.229,222.522 324.777 C 222.641 324.320,223.070 324.000,223.563 324.000 C 224.023 324.000,224.400 323.751,224.400 323.447 C 224.400 323.142,224.760 322.799,225.200 322.684 C 225.640 322.569,226.000 322.188,226.000 321.837 C 226.000 321.471,226.333 321.200,226.782 321.200 C 227.213 321.200,228.563 320.210,229.783 319.000 C 231.002 317.790,232.097 316.800,232.215 316.800 C 232.624 316.800,238.400 310.846,238.400 310.424 C 238.400 310.191,238.670 310.000,239.000 310.000 C 239.330 310.000,239.600 309.827,239.600 309.615 C 239.600 309.404,240.410 308.397,241.400 307.379 C 242.390 306.360,243.200 305.292,243.200 305.006 C 243.200 304.720,243.470 304.382,243.800 304.255 C 244.130 304.129,244.400 303.749,244.400 303.413 C 244.400 303.076,244.670 302.800,245.000 302.800 C 245.330 302.800,245.600 302.506,245.600 302.146 C 245.600 301.786,246.050 301.075,246.600 300.565 C 247.150 300.055,247.600 299.270,247.600 298.819 C 247.600 298.362,247.862 298.000,248.192 298.000 C 248.518 298.000,248.899 297.545,249.038 296.989 C 249.178 296.434,249.631 295.797,250.046 295.575 C 250.461 295.353,250.800 294.818,250.800 294.386 C 250.800 293.954,251.050 293.600,251.355 293.600 C 251.668 293.600,252.020 293.018,252.160 292.270 C 252.298 291.539,252.768 290.556,253.205 290.087 C 253.642 289.617,254.000 288.956,254.000 288.617 C 254.000 288.278,254.360 287.640,254.800 287.200 C 255.240 286.760,255.600 286.141,255.600 285.824 C 255.600 285.507,255.780 285.136,256.000 285.000 C 256.220 284.864,256.400 284.416,256.400 284.005 C 256.400 283.594,256.662 282.995,256.983 282.674 C 257.303 282.354,257.782 281.216,258.046 280.146 C 258.311 279.076,258.758 278.062,259.040 277.893 C 259.322 277.725,259.676 276.765,259.827 275.761 C 259.977 274.758,260.332 273.848,260.614 273.739 C 260.904 273.628,261.248 272.509,261.403 271.171 C 261.587 269.592,261.858 268.800,262.215 268.800 C 262.587 268.800,262.837 267.936,263.028 265.991 C 263.181 264.446,263.461 263.086,263.653 262.968 C 263.844 262.849,264.000 262.043,264.000 261.176 C 264.000 260.309,264.163 259.600,264.363 259.600 C 264.719 259.600,265.005 257.674,265.445 252.300 C 265.566 250.815,265.831 249.600,266.033 249.600 C 266.235 249.600,266.400 248.970,266.400 248.200 L 266.400 246.800 271.000 246.800 C 273.530 246.800,275.600 246.636,275.600 246.435 C 275.600 246.065,276.770 245.829,280.900 245.366 C 282.469 245.190,283.200 244.932,283.200 244.554 C 283.200 244.212,283.636 244.000,284.340 244.000 C 285.703 244.000,288.000 243.250,288.000 242.805 C 288.000 242.631,288.630 242.371,289.400 242.226 C 290.238 242.069,290.800 241.730,290.800 241.382 C 290.800 241.062,291.088 240.800,291.440 240.800 C 292.064 240.800,294.602 239.726,295.400 239.124 C 295.620 238.958,296.300 238.387,296.911 237.855 C 297.522 237.323,298.557 236.666,299.211 236.395 C 299.865 236.125,300.400 235.667,300.400 235.378 C 300.400 235.090,300.760 234.740,301.200 234.600 C 301.640 234.460,302.000 234.107,302.000 233.816 C 302.000 233.524,302.270 233.182,302.600 233.055 C 302.930 232.929,303.200 232.570,303.200 232.259 C 303.200 231.948,303.560 231.599,304.000 231.484 C 304.440 231.369,304.800 230.988,304.800 230.637 C 304.800 230.287,305.064 230.000,305.386 230.000 C 305.708 230.000,306.183 229.606,306.440 229.125 C 306.698 228.644,307.070 228.059,307.268 227.825 C 307.465 227.591,307.872 227.047,308.170 226.615 C 308.689 225.866,308.806 225.925,310.755 227.915 C 311.877 229.062,312.977 230.000,313.198 230.000 C 313.419 230.000,313.600 230.278,313.600 230.617 C 313.600 230.957,314.050 231.720,314.600 232.313 C 315.150 232.907,315.600 233.709,315.600 234.096 C 315.600 234.483,315.856 234.800,316.168 234.800 C 316.481 234.800,316.855 235.340,317.000 236.000 C 317.145 236.660,317.503 237.200,317.797 237.200 C 318.107 237.200,318.443 237.869,318.600 238.800 C 318.756 239.721,319.094 240.400,319.398 240.400 C 319.727 240.400,320.029 241.153,320.201 242.410 C 320.354 243.516,320.730 244.673,321.039 244.982 C 321.348 245.290,321.600 245.804,321.600 246.122 C 321.600 246.441,321.870 246.926,322.200 247.200 C 322.530 247.474,322.800 247.848,322.800 248.031 C 322.800 248.591,324.799 250.400,325.418 250.400 C 325.738 250.400,326.000 250.580,326.000 250.800 C 326.000 251.020,326.360 251.200,326.800 251.200 C 327.240 251.200,327.600 251.343,327.600 251.517 C 327.600 252.191,332.300 252.913,333.641 252.446 C 334.344 252.201,335.343 252.000,335.860 252.000 C 336.377 252.000,336.800 251.820,336.800 251.600 C 336.800 251.380,337.068 251.200,337.397 251.200 C 337.725 251.200,338.218 250.840,338.493 250.400 C 338.768 249.960,339.193 249.600,339.438 249.600 C 340.001 249.600,342.000 247.215,342.000 246.543 C 342.000 246.266,342.315 245.863,342.700 245.647 C 343.714 245.078,343.755 235.742,342.745 235.177 C 342.374 234.970,341.976 234.034,341.822 233.006 C 341.659 231.921,341.342 231.200,341.027 231.200 C 340.723 231.200,340.393 230.519,340.244 229.585 C 340.102 228.696,339.730 227.871,339.417 227.751 C 339.105 227.631,338.734 227.008,338.593 226.367 C 338.452 225.725,338.081 225.200,337.768 225.200 C 337.456 225.200,337.200 224.912,337.200 224.560 C 337.200 223.573,335.919 221.060,335.118 220.477 C 334.723 220.190,334.400 219.735,334.400 219.466 C 334.400 219.197,334.047 218.722,333.615 218.411 C 333.183 218.099,332.719 217.340,332.583 216.722 C 332.447 216.105,332.100 215.600,331.811 215.600 C 331.522 215.600,331.182 215.330,331.055 215.000 C 330.929 214.670,330.570 214.400,330.259 214.400 C 329.948 214.400,329.599 214.040,329.484 213.600 C 329.369 213.160,329.009 212.800,328.684 212.800 C 328.359 212.800,327.999 212.440,327.884 212.000 C 327.769 211.560,327.388 211.200,327.037 211.200 C 326.687 211.200,326.400 210.924,326.400 210.587 C 326.400 210.251,326.130 209.871,325.800 209.745 C 325.470 209.618,325.200 209.276,325.200 208.984 C 325.200 208.693,324.840 208.340,324.400 208.200 C 323.960 208.060,323.600 207.692,323.600 207.381 C 323.600 207.070,323.105 206.693,322.500 206.544 C 321.895 206.394,321.109 205.941,320.753 205.536 C 320.397 205.131,319.912 204.800,319.676 204.800 C 319.439 204.800,319.010 204.473,318.723 204.074 C 318.435 203.674,317.885 203.230,317.500 203.086 C 316.902 202.863,316.801 202.286,316.806 199.113 C 316.813 194.825,316.966 194.509,319.600 193.325 C 319.930 193.177,320.491 192.728,320.847 192.328 C 321.203 191.927,321.706 191.600,321.965 191.600 C 322.224 191.600,322.886 191.150,323.436 190.600 C 323.986 190.050,324.608 189.600,324.818 189.600 C 325.028 189.600,325.200 189.349,325.200 189.043 C 325.200 188.736,325.470 188.382,325.800 188.255 C 326.130 188.129,326.400 187.749,326.400 187.413 C 326.400 187.076,326.687 186.800,327.037 186.800 C 327.388 186.800,327.769 186.440,327.884 186.000 C 327.999 185.560,328.359 185.200,328.684 185.200 C 329.009 185.200,329.369 184.840,329.484 184.400 C 329.599 183.960,329.902 183.600,330.158 183.600 C 330.733 183.600,332.800 181.290,332.800 180.647 C 332.800 180.388,333.160 179.917,333.600 179.600 C 334.040 179.283,334.400 178.803,334.400 178.534 C 334.400 178.265,334.723 177.810,335.118 177.523 C 335.919 176.940,337.200 174.427,337.200 173.440 C 337.200 173.088,337.470 172.800,337.800 172.800 C 338.134 172.800,338.400 172.444,338.400 171.996 C 338.400 171.554,338.765 170.880,339.211 170.498 C 339.657 170.116,340.130 169.128,340.262 168.302 C 340.398 167.452,340.730 166.800,341.027 166.800 C 341.342 166.800,341.659 166.079,341.822 164.994 C 341.976 163.966,342.374 163.030,342.745 162.823 C 343.719 162.278,343.719 152.924,342.745 152.378 C 342.384 152.176,341.970 151.534,341.824 150.952 C 341.559 149.898,340.164 148.439,339.396 148.413 C 339.174 148.406,338.768 148.040,338.493 147.600 C 338.218 147.160,337.725 146.800,337.397 146.800 C 337.068 146.800,336.800 146.620,336.800 146.400 C 336.800 146.180,336.377 146.000,335.860 146.000 C 335.343 146.000,334.344 145.799,333.641 145.554 C 332.300 145.087,327.600 145.809,327.600 146.483 C 327.600 146.657,327.240 146.800,326.800 146.800 C 326.360 146.800,326.000 146.980,326.000 147.200 C 326.000 147.420,325.738 147.600,325.418 147.600 C 324.799 147.600,322.800 149.409,322.800 149.969 C 322.800 150.152,322.530 150.526,322.200 150.800 C 321.870 151.074,321.600 151.617,321.600 152.006 C 321.600 152.396,321.353 152.809,321.050 152.925 C 320.727 153.049,320.385 154.059,320.221 155.368 C 320.042 156.806,319.755 157.600,319.416 157.600 C 319.126 157.600,318.771 158.230,318.626 159.000 C 318.481 159.775,318.124 160.400,317.826 160.400 C 317.529 160.400,317.172 161.025,317.026 161.800 C 316.869 162.638,316.530 163.200,316.182 163.200 C 315.862 163.200,315.600 163.517,315.600 163.904 C 315.600 164.291,315.150 165.093,314.600 165.687 C 314.050 166.280,313.600 167.043,313.600 167.383 C 313.600 167.722,313.419 168.000,313.198 168.000 C 312.977 168.000,311.877 168.938,310.755 170.085 C 308.806 172.075,308.689 172.134,308.170 171.385 C 307.872 170.953,307.465 170.409,307.268 170.175 C 307.070 169.941,306.698 169.356,306.440 168.875 C 306.183 168.394,305.729 168.000,305.433 168.000 C 305.136 168.000,304.799 167.640,304.684 167.200 C 304.569 166.760,304.188 166.400,303.837 166.400 C 303.487 166.400,303.200 166.124,303.200 165.787 C 303.200 165.451,302.930 165.071,302.600 164.945 C 302.270 164.818,302.000 164.476,302.000 164.184 C 302.000 163.893,301.640 163.540,301.200 163.400 C 300.760 163.260,300.400 162.910,300.400 162.622 C 300.400 162.333,299.860 161.873,299.200 161.600 C 298.540 161.327,298.000 160.973,298.000 160.814 C 298.000 160.656,297.370 160.187,296.600 159.772 C 295.830 159.357,295.200 158.913,295.200 158.784 C 295.200 158.655,294.570 158.302,293.800 158.000 C 293.030 157.698,292.400 157.304,292.400 157.125 C 292.400 156.946,292.040 156.800,291.600 156.800 C 291.160 156.800,290.800 156.628,290.800 156.418 C 290.800 156.208,290.170 155.918,289.400 155.774 C 288.630 155.629,288.000 155.369,288.000 155.195 C 288.000 154.750,285.703 154.000,284.340 154.000 C 283.636 154.000,283.200 153.788,283.200 153.446 C 283.200 153.068,282.469 152.810,280.900 152.634 C 276.770 152.171,275.600 151.935,275.600 151.565 C 275.600 151.364,273.530 151.200,271.000 151.200 L 266.400 151.200 266.400 149.800 C 266.400 149.030,266.235 148.400,266.033 148.400 C 265.831 148.400,265.566 147.185,265.445 145.700 C 265.005 140.326,264.719 138.400,264.363 138.400 C 264.163 138.400,264.000 137.691,264.000 136.824 C 264.000 135.957,263.844 135.151,263.653 135.032 C 263.461 134.914,263.181 133.554,263.028 132.009 C 262.840 130.100,262.584 129.200,262.227 129.200 C 261.885 129.200,261.611 128.383,261.436 126.837 C 261.278 125.445,260.949 124.389,260.634 124.269 C 260.341 124.156,259.975 123.229,259.822 122.209 C 259.669 121.188,259.300 120.260,259.002 120.145 C 258.704 120.031,258.338 119.219,258.190 118.341 C 258.042 117.463,257.668 116.648,257.360 116.529 C 257.052 116.411,256.799 115.929,256.798 115.457 C 256.796 114.986,256.526 114.084,256.198 113.454 C 255.869 112.824,255.600 112.059,255.600 111.754 C 255.600 111.449,255.454 111.200,255.275 111.200 C 255.096 111.200,254.702 110.570,254.400 109.800 C 254.098 109.030,253.738 108.400,253.599 108.400 C 253.258 108.400,252.000 105.716,252.000 104.986 C 252.000 104.664,251.753 104.400,251.450 104.400 C 251.148 104.400,250.792 103.860,250.660 103.200 C 250.526 102.531,250.164 102.000,249.842 102.000 C 249.524 102.000,249.145 101.460,249.000 100.800 C 248.855 100.140,248.500 99.600,248.212 99.600 C 247.923 99.600,247.575 99.155,247.439 98.612 C 247.302 98.068,246.833 97.432,246.395 97.197 C 245.958 96.963,245.600 96.418,245.600 95.986 C 245.600 95.554,245.330 95.200,245.000 95.200 C 244.670 95.200,244.400 94.924,244.400 94.587 C 244.400 94.251,244.130 93.871,243.800 93.745 C 243.470 93.618,243.200 93.280,243.200 92.994 C 243.200 92.708,242.390 91.640,241.400 90.621 C 240.410 89.603,239.600 88.596,239.600 88.385 C 239.600 88.173,239.330 88.000,239.000 88.000 C 238.670 88.000,238.400 87.805,238.400 87.568 C 238.400 87.004,232.596 81.200,232.032 81.200 C 231.795 81.200,231.600 80.930,231.600 80.600 C 231.600 80.270,231.431 80.000,231.224 80.000 C 231.016 80.000,230.025 79.190,229.021 78.200 C 228.017 77.210,226.946 76.400,226.640 76.400 C 226.335 76.400,225.982 76.130,225.855 75.800 C 225.729 75.470,225.349 75.200,225.013 75.200 C 224.676 75.200,224.400 74.930,224.400 74.600 C 224.400 74.258,224.040 74.000,223.563 74.000 C 223.070 74.000,222.641 73.680,222.522 73.223 C 222.404 72.771,221.833 72.339,221.159 72.191 C 220.522 72.051,220.000 71.695,220.000 71.400 C 220.000 71.105,219.460 70.745,218.800 70.600 C 218.140 70.455,217.600 70.076,217.600 69.758 C 217.600 69.436,217.069 69.074,216.400 68.940 C 215.740 68.808,215.200 68.543,215.200 68.350 C 215.200 68.158,214.922 68.000,214.583 68.000 C 213.977 68.000,213.508 67.695,211.971 66.300 C 211.547 65.915,210.941 65.600,210.624 65.600 C 210.307 65.600,209.945 65.434,209.819 65.231 C 209.694 65.028,209.035 64.739,208.355 64.590 C 207.675 64.441,206.777 63.977,206.359 63.559 C 205.942 63.142,205.060 62.800,204.400 62.800 C 203.645 62.800,203.200 62.595,203.200 62.247 C 203.200 61.667,202.027 61.215,200.500 61.205 C 199.986 61.202,199.600 60.953,199.600 60.625 C 199.600 60.242,198.962 59.959,197.700 59.782 C 196.655 59.635,195.600 59.264,195.356 58.957 C 195.112 58.651,194.032 58.288,192.956 58.152 C 191.880 58.015,190.820 57.682,190.600 57.412 C 190.244 56.974,187.430 56.281,183.700 55.711 C 182.985 55.602,182.400 55.368,182.400 55.192 C 182.400 54.892,181.285 54.739,174.900 54.159 C 173.525 54.034,172.400 53.767,172.400 53.566 C 172.400 53.353,167.229 53.200,160.000 53.200 C 152.000 53.200,147.600 53.342,147.600 53.600 M173.552 77.334 C 173.917 77.651,175.597 78.018,177.392 78.174 C 179.147 78.326,180.677 78.593,180.792 78.768 C 180.906 78.943,181.990 79.311,183.200 79.586 C 184.410 79.860,185.713 80.246,186.095 80.443 C 186.477 80.639,187.064 80.800,187.400 80.800 C 187.736 80.800,188.323 80.959,188.705 81.153 C 189.087 81.348,189.850 81.693,190.400 81.921 C 190.950 82.149,192.424 82.800,193.675 83.368 C 194.927 83.935,196.212 84.400,196.532 84.400 C 196.853 84.400,197.209 84.647,197.325 84.949 C 197.441 85.250,198.031 85.621,198.636 85.773 C 199.242 85.925,200.180 86.398,200.722 86.825 C 201.264 87.251,201.914 87.600,202.165 87.600 C 202.416 87.600,202.930 87.960,203.307 88.400 C 203.684 88.840,204.264 89.200,204.596 89.200 C 204.928 89.200,205.547 89.515,205.971 89.900 C 207.421 91.216,207.966 91.600,208.383 91.600 C 208.612 91.600,208.800 91.752,208.800 91.939 C 208.800 92.125,209.139 92.440,209.554 92.639 C 212.468 94.034,225.566 107.132,226.961 110.046 C 227.160 110.461,227.475 110.800,227.661 110.800 C 227.848 110.800,228.000 111.070,228.000 111.400 C 228.000 111.730,228.180 112.000,228.400 112.000 C 228.620 112.000,228.800 112.260,228.800 112.577 C 228.800 112.895,229.134 113.390,229.543 113.677 C 229.951 113.965,230.419 114.624,230.583 115.141 C 230.863 116.029,232.301 118.419,233.194 119.483 C 233.417 119.749,233.600 120.220,233.600 120.529 C 233.600 120.839,233.960 121.550,234.400 122.109 C 234.840 122.669,235.200 123.313,235.200 123.542 C 235.200 123.771,235.650 124.804,236.200 125.838 C 236.750 126.873,237.200 128.142,237.200 128.660 C 237.200 129.177,237.380 129.600,237.600 129.600 C 237.820 129.600,238.000 129.949,238.000 130.376 C 238.000 130.803,238.180 131.264,238.400 131.400 C 238.620 131.536,238.800 132.076,238.800 132.600 C 238.800 133.124,238.980 133.664,239.200 133.800 C 239.420 133.936,239.600 134.566,239.600 135.200 C 239.600 135.834,239.780 136.464,240.000 136.600 C 240.220 136.736,240.400 137.276,240.400 137.800 C 240.400 138.324,240.556 138.849,240.748 138.968 C 240.939 139.086,241.224 140.655,241.381 142.456 C 241.538 144.256,241.904 146.105,242.194 146.565 C 242.535 147.105,242.821 149.620,243.003 153.694 L 243.284 159.988 242.242 160.384 C 241.669 160.602,241.200 161.055,241.200 161.390 C 241.200 161.726,240.885 162.002,240.500 162.004 C 239.342 162.011,232.000 169.559,232.000 170.743 C 232.000 170.994,231.730 171.200,231.400 171.200 C 231.070 171.200,230.800 171.457,230.800 171.771 C 230.800 172.086,230.558 172.584,230.263 172.880 C 229.968 173.175,229.514 173.813,229.255 174.297 C 228.740 175.260,227.200 174.508,227.200 173.293 C 227.200 173.002,226.750 172.314,226.200 171.764 C 225.650 171.214,225.200 170.617,225.200 170.437 C 225.200 170.114,223.174 167.746,219.500 163.776 C 218.455 162.647,217.600 161.515,217.600 161.261 C 217.600 161.008,217.392 160.800,217.139 160.800 C 216.885 160.800,215.750 159.945,214.617 158.900 C 209.927 154.574,208.680 153.535,207.764 153.186 C 207.234 152.985,206.800 152.626,206.800 152.389 C 206.800 152.153,206.170 151.696,205.400 151.374 C 204.630 151.052,204.000 150.615,204.000 150.402 C 204.000 150.189,203.550 149.902,203.000 149.764 C 202.450 149.626,202.000 149.343,202.000 149.136 C 202.000 148.928,201.474 148.575,200.832 148.351 C 200.190 148.127,199.569 147.697,199.453 147.394 C 199.337 147.092,198.615 146.727,197.849 146.583 C 197.082 146.439,196.362 146.079,196.249 145.783 C 196.135 145.487,195.403 145.124,194.621 144.978 C 193.839 144.831,193.200 144.563,193.200 144.381 C 193.200 144.200,192.570 143.824,191.800 143.546 C 191.030 143.267,190.400 142.895,190.400 142.720 C 190.400 142.544,190.051 142.400,189.624 142.400 C 189.197 142.400,188.736 142.220,188.600 142.000 C 188.464 141.780,188.003 141.600,187.576 141.600 C 187.149 141.600,186.800 141.437,186.800 141.238 C 186.800 141.038,185.887 140.750,184.772 140.596 C 183.656 140.443,182.654 140.085,182.545 139.801 C 182.436 139.516,181.332 139.161,180.074 139.006 C 178.823 138.852,177.526 138.482,177.191 138.184 C 176.856 137.885,175.326 137.518,173.791 137.368 C 172.256 137.218,170.730 136.872,170.400 136.598 C 170.070 136.325,168.618 136.012,167.173 135.903 C 164.612 135.709,164.495 135.650,162.483 133.552 C 161.347 132.368,160.144 131.115,159.809 130.766 C 159.474 130.418,159.200 129.949,159.200 129.725 C 159.200 129.500,158.795 128.858,158.300 128.297 C 156.668 126.446,155.970 125.412,155.740 124.500 C 155.615 124.005,155.353 123.600,155.157 123.600 C 154.960 123.600,154.800 123.403,154.800 123.162 C 154.800 122.921,154.474 122.246,154.075 121.662 C 153.676 121.078,153.107 119.835,152.811 118.900 C 152.514 117.965,152.137 117.200,151.971 117.200 C 151.806 117.200,151.545 116.435,151.392 115.500 C 151.238 114.565,150.880 113.530,150.595 113.200 C 150.310 112.870,149.948 111.210,149.792 109.511 C 149.624 107.678,149.283 106.235,148.954 105.962 C 148.157 105.300,148.157 93.161,148.954 91.886 C 149.258 91.399,149.627 89.744,149.774 88.209 C 149.921 86.674,150.286 85.144,150.585 84.809 C 150.884 84.474,151.254 83.351,151.408 82.313 C 151.561 81.275,151.926 80.228,152.218 79.985 C 152.510 79.743,152.873 78.972,153.025 78.272 C 153.176 77.573,153.503 76.852,153.750 76.671 C 154.559 76.079,172.812 76.690,173.552 77.334 M153.400 158.212 C 154.628 158.511,156.360 160.194,156.386 161.113 C 156.394 161.394,156.639 161.717,156.932 161.829 C 157.224 161.941,157.708 162.656,158.007 163.417 C 158.305 164.177,158.696 164.800,158.875 164.800 C 159.054 164.800,159.200 165.087,159.200 165.438 C 159.200 165.789,159.538 166.554,159.950 167.138 C 160.363 167.722,160.830 168.797,160.988 169.527 C 161.146 170.257,161.507 170.943,161.791 171.052 C 162.074 171.160,162.425 171.999,162.572 172.914 C 162.718 173.830,163.099 174.867,163.417 175.219 C 163.735 175.571,164.111 176.745,164.252 177.829 C 164.393 178.913,164.734 180.070,165.011 180.400 C 165.288 180.730,165.642 182.170,165.798 183.600 C 165.954 185.030,166.363 186.805,166.707 187.544 C 167.642 189.553,167.642 207.259,166.706 209.239 C 166.353 209.987,165.936 211.902,165.781 213.493 C 165.625 215.085,165.262 216.582,164.974 216.821 C 164.686 217.060,164.329 218.228,164.181 219.416 C 164.032 220.604,163.666 221.780,163.366 222.028 C 163.066 222.277,162.708 223.086,162.569 223.826 C 162.430 224.566,162.077 225.370,161.784 225.613 C 161.491 225.856,161.127 226.628,160.976 227.328 C 160.824 228.027,160.363 229.078,159.950 229.662 C 159.538 230.246,159.200 230.928,159.200 231.178 C 159.200 231.429,158.840 232.020,158.400 232.492 C 157.960 232.964,157.600 233.587,157.600 233.875 C 157.600 234.164,157.420 234.400,157.200 234.400 C 156.980 234.400,156.800 234.689,156.800 235.042 C 156.800 235.395,156.350 236.219,155.800 236.873 C 155.250 237.527,154.800 238.318,154.800 238.631 C 154.800 238.944,154.545 239.200,154.233 239.200 C 153.922 239.200,153.597 239.409,153.512 239.665 C 153.358 240.126,136.555 239.489,136.071 239.004 C 135.961 238.894,136.162 238.484,136.517 238.092 C 136.872 237.700,137.284 236.574,137.434 235.590 C 137.584 234.605,137.974 233.492,138.300 233.116 C 138.627 232.740,138.986 231.570,139.098 230.516 C 139.210 229.462,139.534 228.330,139.818 228.000 C 140.273 227.471,140.699 225.215,141.461 219.300 C 141.582 218.365,141.821 217.600,141.994 217.600 C 142.890 217.600,143.263 195.376,142.478 188.800 C 141.701 182.296,141.565 181.424,141.203 180.600 C 141.010 180.160,140.737 178.596,140.597 177.125 C 140.456 175.653,140.105 174.253,139.815 174.013 C 139.526 173.773,139.163 172.546,139.008 171.288 C 138.853 170.030,138.496 168.730,138.214 168.400 C 137.932 168.070,137.573 167.080,137.417 166.200 C 137.260 165.320,136.903 164.330,136.623 164.000 C 136.019 163.287,135.306 160.468,135.500 159.557 C 135.644 158.881,138.921 158.432,144.160 158.372 C 145.502 158.356,146.960 158.182,147.400 157.984 C 148.247 157.602,151.393 157.722,153.400 158.212 M185.867 166.174 C 186.563 166.325,187.224 166.685,187.334 166.973 C 187.445 167.261,188.037 167.623,188.650 167.777 C 189.263 167.931,190.007 168.404,190.305 168.828 C 190.602 169.253,191.065 169.600,191.334 169.600 C 191.602 169.600,192.130 169.960,192.507 170.400 C 192.884 170.840,193.454 171.200,193.774 171.200 C 194.797 171.200,207.600 184.368,207.600 185.421 C 207.600 185.692,207.870 186.018,208.200 186.145 C 208.530 186.271,208.800 186.640,208.800 186.965 C 208.800 187.289,209.134 187.790,209.543 188.077 C 209.951 188.365,210.426 189.050,210.598 189.600 C 210.769 190.150,211.245 191.029,211.655 191.554 C 212.065 192.079,212.400 192.824,212.400 193.211 C 212.400 193.598,212.653 194.012,212.962 194.130 C 213.272 194.249,213.645 194.896,213.793 195.568 C 213.941 196.241,214.228 196.894,214.431 197.019 C 215.361 197.594,213.996 203.535,212.846 203.918 C 212.601 204.000,212.400 204.387,212.400 204.779 C 212.400 205.171,212.065 205.921,211.655 206.446 C 211.245 206.971,210.769 207.850,210.598 208.400 C 210.426 208.950,209.951 209.635,209.543 209.923 C 209.134 210.210,208.800 210.665,208.800 210.934 C 208.800 211.202,208.440 211.730,208.000 212.107 C 207.560 212.484,207.200 213.064,207.200 213.396 C 207.200 213.728,204.320 216.880,200.800 220.400 C 197.280 223.920,194.128 226.800,193.796 226.800 C 193.464 226.800,192.884 227.160,192.507 227.600 C 192.130 228.040,191.602 228.400,191.334 228.400 C 191.065 228.400,190.610 228.734,190.323 229.143 C 190.035 229.551,189.350 230.026,188.800 230.198 C 188.250 230.369,187.371 230.845,186.846 231.255 C 186.321 231.665,185.556 232.000,185.146 232.000 C 184.736 232.000,184.400 232.180,184.400 232.400 C 184.400 232.620,184.251 232.800,184.069 232.800 C 183.887 232.800,183.818 232.260,183.915 231.600 C 184.012 230.940,184.243 230.400,184.429 230.400 C 184.616 230.400,184.978 229.635,185.234 228.700 C 185.491 227.765,185.974 226.377,186.309 225.616 C 186.643 224.855,187.005 223.456,187.112 222.507 C 187.219 221.558,187.462 220.685,187.653 220.567 C 187.844 220.449,188.000 219.744,188.000 219.000 C 188.000 218.256,188.180 217.536,188.400 217.400 C 188.620 217.264,188.800 216.184,188.800 215.000 C 188.800 213.816,188.980 212.736,189.200 212.600 C 189.420 212.464,189.600 211.384,189.600 210.200 C 189.600 209.016,189.780 207.936,190.000 207.800 C 190.508 207.486,190.545 188.713,190.039 188.180 C 189.695 187.819,189.508 186.756,188.987 182.200 C 188.861 181.100,188.606 179.840,188.421 179.400 C 188.236 178.960,187.866 177.520,187.599 176.200 C 187.124 173.849,186.650 172.199,185.988 170.600 C 185.806 170.160,185.545 169.116,185.407 168.279 C 185.269 167.442,184.896 166.658,184.578 166.536 C 184.260 166.414,184.003 166.019,184.006 165.657 C 184.010 165.235,184.117 165.161,184.306 165.450 C 184.468 165.697,185.170 166.023,185.867 166.174 M113.869 168.700 C 114.124 169.305,114.455 170.397,114.604 171.127 C 114.753 171.857,115.109 172.544,115.395 172.653 C 115.681 172.763,116.035 173.818,116.182 174.998 C 116.330 176.178,116.689 177.342,116.980 177.583 C 117.271 177.825,117.635 179.233,117.788 180.711 C 117.941 182.190,118.304 183.773,118.596 184.229 C 118.894 184.695,119.238 186.887,119.381 189.229 C 119.521 191.523,119.921 195.131,120.269 197.246 C 120.845 200.741,120.846 201.415,120.278 204.646 C 119.935 206.601,119.533 210.150,119.386 212.533 C 119.239 214.916,118.878 217.329,118.584 217.895 C 118.291 218.461,117.929 220.061,117.780 221.451 C 117.631 222.840,117.275 224.172,116.989 224.409 C 116.703 224.646,116.348 225.722,116.200 226.800 C 116.052 227.878,115.676 228.971,115.365 229.229 C 115.054 229.487,114.797 230.081,114.794 230.549 C 114.790 231.044,114.665 231.217,114.494 230.962 C 114.332 230.720,113.668 230.393,113.018 230.233 C 112.368 230.074,111.593 229.596,111.295 229.172 C 110.998 228.747,110.535 228.400,110.266 228.400 C 109.998 228.400,109.470 228.040,109.093 227.600 C 108.716 227.160,108.152 226.800,107.838 226.800 C 107.525 226.800,106.578 226.172,105.734 225.404 C 103.453 223.327,102.820 222.800,102.611 222.800 C 102.506 222.800,101.611 221.990,100.621 221.000 C 99.631 220.010,98.648 219.200,98.437 219.200 C 98.227 219.200,97.954 218.885,97.831 218.500 C 97.709 218.115,96.441 216.630,95.013 215.200 C 93.586 213.770,92.408 212.420,92.396 212.200 C 92.384 211.980,91.743 211.171,90.970 210.402 C 90.198 209.633,89.458 208.572,89.325 208.044 C 89.193 207.516,88.750 206.750,88.342 206.342 C 87.934 205.934,87.600 205.240,87.600 204.800 C 87.600 204.360,87.463 204.000,87.296 204.000 C 87.128 204.000,86.396 202.863,85.669 201.474 L 84.346 198.947 85.640 196.574 C 86.352 195.268,87.084 194.140,87.267 194.067 C 87.450 193.993,87.600 193.588,87.600 193.167 C 87.600 192.745,87.934 192.066,88.342 191.658 C 88.750 191.250,89.196 190.485,89.333 189.958 C 89.470 189.431,90.216 188.315,90.991 187.478 C 91.766 186.640,92.400 185.818,92.400 185.650 C 92.400 185.482,92.805 184.984,93.300 184.543 C 93.795 184.102,95.010 182.789,96.000 181.625 C 96.990 180.461,98.421 178.944,99.181 178.255 C 99.940 177.565,100.983 176.595,101.499 176.100 C 102.014 175.605,102.496 175.200,102.568 175.200 C 102.712 175.200,104.703 173.526,106.256 172.100 C 106.795 171.605,107.500 171.200,107.822 171.200 C 108.144 171.200,108.716 170.840,109.093 170.400 C 109.470 169.960,109.998 169.600,110.266 169.600 C 110.535 169.600,110.990 169.268,111.277 168.863 C 111.728 168.228,112.485 167.744,113.202 167.632 C 113.314 167.614,113.614 168.095,113.869 168.700 M271.800 174.800 C 271.936 175.020,272.712 175.204,273.524 175.210 C 275.404 175.222,278.045 175.829,278.359 176.321 C 278.491 176.529,279.197 176.829,279.927 176.987 C 280.657 177.146,281.351 177.528,281.470 177.838 C 281.588 178.147,281.938 178.400,282.247 178.400 C 282.555 178.400,283.116 178.760,283.493 179.200 C 283.870 179.640,284.393 180.000,284.655 180.000 C 285.076 180.000,286.045 180.914,288.500 183.627 C 288.885 184.052,289.200 184.556,289.200 184.746 C 289.200 184.936,289.562 185.552,290.004 186.114 C 290.445 186.675,290.916 187.678,291.048 188.342 C 291.181 189.006,291.525 189.639,291.813 189.750 C 292.110 189.864,292.457 190.954,292.616 192.275 C 292.771 193.554,293.145 195.207,293.448 195.949 C 293.752 196.691,294.000 198.064,294.000 199.000 C 294.000 199.936,293.752 201.309,293.448 202.051 C 293.145 202.793,292.771 204.446,292.616 205.725 C 292.457 207.046,292.110 208.136,291.813 208.250 C 291.525 208.361,291.181 208.994,291.048 209.658 C 290.916 210.322,290.445 211.325,290.004 211.886 C 289.562 212.448,289.200 213.154,289.200 213.454 C 289.200 213.754,288.942 214.000,288.627 214.000 C 288.312 214.000,287.938 214.366,287.796 214.813 C 287.507 215.722,285.760 217.600,285.202 217.600 C 285.004 217.600,284.356 218.050,283.762 218.600 C 283.169 219.150,282.459 219.600,282.184 219.600 C 281.910 219.600,281.586 219.860,281.464 220.178 C 281.342 220.496,280.603 220.876,279.821 221.022 C 279.039 221.169,278.400 221.449,278.400 221.645 C 278.400 221.840,277.871 222.000,277.224 222.000 C 276.577 222.000,275.936 222.180,275.800 222.400 C 275.664 222.620,274.764 222.800,273.800 222.800 C 272.836 222.800,271.924 223.000,271.773 223.244 C 271.404 223.841,263.771 223.069,263.020 222.359 C 262.811 222.162,262.314 222.000,261.915 222.000 C 261.160 222.000,260.613 221.780,258.600 220.665 C 257.940 220.300,256.905 219.781,256.300 219.513 C 255.695 219.244,255.200 218.794,255.200 218.512 C 255.200 218.231,254.945 218.000,254.634 218.000 C 254.025 218.000,251.777 215.908,250.800 214.432 C 250.470 213.933,249.880 213.149,249.489 212.689 C 249.098 212.229,248.674 211.436,248.546 210.926 C 248.418 210.417,248.153 210.000,247.957 210.000 C 247.760 210.000,247.600 209.651,247.600 209.224 C 247.600 208.797,247.420 208.336,247.200 208.200 C 246.980 208.064,246.800 207.524,246.800 207.000 C 246.800 206.476,246.645 205.951,246.454 205.834 C 246.168 205.657,245.591 201.432,245.549 199.200 C 245.514 197.391,246.167 192.344,246.459 192.164 C 246.646 192.048,246.800 191.524,246.800 191.000 C 246.800 190.476,246.980 189.936,247.200 189.800 C 247.420 189.664,247.600 189.203,247.600 188.776 C 247.600 188.349,247.744 188.000,247.920 188.000 C 248.095 188.000,248.467 187.370,248.746 186.600 C 249.024 185.830,249.408 185.200,249.599 185.200 C 249.790 185.200,250.054 184.860,250.186 184.445 C 250.522 183.385,253.888 180.000,254.606 180.000 C 254.933 180.000,255.200 179.769,255.200 179.488 C 255.200 179.206,255.695 178.756,256.300 178.487 C 256.905 178.219,257.940 177.699,258.600 177.333 C 261.246 175.864,262.013 175.595,264.596 175.229 C 266.075 175.020,267.386 174.747,267.509 174.624 C 267.900 174.233,271.542 174.383,271.800 174.800 M230.100 224.895 C 230.485 225.350,230.800 225.965,230.800 226.261 C 230.800 226.558,231.070 226.800,231.400 226.800 C 231.730 226.800,232.000 227.006,232.000 227.257 C 232.000 228.441,239.342 235.989,240.500 235.996 C 240.885 235.998,241.200 236.274,241.200 236.610 C 241.200 236.945,241.669 237.398,242.242 237.616 L 243.284 238.012 242.989 244.301 C 242.802 248.294,242.505 250.884,242.176 251.395 C 241.892 251.838,241.532 253.689,241.377 255.509 C 241.222 257.329,240.939 258.914,240.748 259.032 C 240.556 259.151,240.400 259.676,240.400 260.200 C 240.400 260.724,240.220 261.264,240.000 261.400 C 239.780 261.536,239.600 262.166,239.600 262.800 C 239.600 263.434,239.420 264.064,239.200 264.200 C 238.980 264.336,238.800 264.876,238.800 265.400 C 238.800 265.924,238.620 266.464,238.400 266.600 C 238.180 266.736,238.000 267.197,238.000 267.624 C 238.000 268.051,237.820 268.400,237.600 268.400 C 237.380 268.400,237.200 268.823,237.200 269.340 C 237.200 269.858,236.750 271.127,236.200 272.162 C 235.650 273.196,235.200 274.229,235.200 274.458 C 235.200 274.687,234.840 275.331,234.400 275.891 C 233.960 276.450,233.600 277.224,233.600 277.611 C 233.600 277.998,233.330 278.418,233.000 278.545 C 232.670 278.671,232.400 279.016,232.400 279.310 C 232.400 279.604,231.950 280.455,231.400 281.200 C 230.850 281.945,230.400 282.837,230.400 283.181 C 230.400 283.526,230.040 284.032,229.600 284.307 C 229.160 284.582,228.800 285.075,228.800 285.403 C 228.800 285.732,228.653 286.000,228.474 286.000 C 228.294 286.000,227.761 286.675,227.289 287.500 C 225.281 291.011,212.612 304.000,211.195 304.000 C 210.978 304.000,210.800 304.162,210.800 304.360 C 210.800 304.559,210.167 305.094,209.393 305.551 C 207.959 306.397,207.338 306.860,205.971 308.100 C 205.547 308.485,204.937 308.800,204.616 308.800 C 204.294 308.800,203.709 309.145,203.316 309.568 C 202.922 309.990,202.090 310.463,201.468 310.619 C 200.845 310.775,200.245 311.139,200.134 311.427 C 200.024 311.715,199.423 312.063,198.800 312.200 C 198.177 312.337,197.567 312.708,197.446 313.024 C 197.324 313.341,196.932 313.600,196.573 313.600 C 195.951 313.600,194.987 313.975,191.400 315.614 C 190.520 316.016,189.080 316.575,188.200 316.856 C 187.320 317.137,186.420 317.492,186.200 317.645 C 185.980 317.798,184.751 318.053,183.468 318.212 C 182.161 318.373,181.049 318.728,180.937 319.019 C 180.812 319.345,179.601 319.638,177.669 319.810 C 175.981 319.960,174.196 320.337,173.702 320.649 C 173.035 321.070,170.560 321.281,164.075 321.469 C 154.763 321.740,153.201 321.600,153.199 320.492 C 153.198 320.112,152.859 319.245,152.445 318.567 C 152.031 317.888,151.562 316.538,151.403 315.567 C 151.243 314.595,150.872 313.526,150.577 313.191 C 150.282 312.856,149.921 311.326,149.774 309.791 C 149.627 308.256,149.258 306.601,148.954 306.114 C 148.161 304.845,148.157 292.700,148.949 292.042 C 149.277 291.770,149.609 290.314,149.774 288.422 C 149.934 286.589,150.274 285.071,150.582 284.815 C 150.874 284.573,151.238 283.542,151.390 282.525 C 151.543 281.507,151.922 280.421,152.233 280.110 C 152.544 279.799,152.915 279.062,153.058 278.472 C 153.200 277.882,153.650 276.922,154.058 276.338 C 154.466 275.754,154.800 275.079,154.800 274.838 C 154.800 274.597,154.960 274.400,155.157 274.400 C 155.353 274.400,155.618 273.983,155.746 273.474 C 155.874 272.964,156.343 272.127,156.789 271.613 C 157.235 271.098,157.600 270.435,157.600 270.139 C 157.600 269.842,157.850 269.600,158.157 269.600 C 158.463 269.600,158.816 269.195,158.942 268.700 C 159.068 268.205,160.376 266.562,161.849 265.049 L 164.526 262.298 167.163 262.098 C 168.613 261.989,170.070 261.675,170.400 261.402 C 170.730 261.128,172.256 260.782,173.791 260.632 C 175.326 260.482,176.856 260.115,177.191 259.816 C 177.526 259.518,178.823 259.148,180.074 258.994 C 181.324 258.840,182.434 258.489,182.539 258.214 C 182.645 257.938,183.422 257.602,184.266 257.466 C 185.110 257.331,186.513 256.855,187.385 256.410 C 188.256 255.964,189.291 255.600,189.685 255.600 C 190.078 255.600,190.400 255.454,190.400 255.275 C 190.400 255.096,191.030 254.702,191.800 254.400 C 192.570 254.098,193.200 253.724,193.200 253.570 C 193.200 253.415,193.839 253.169,194.621 253.022 C 195.403 252.876,196.135 252.513,196.249 252.217 C 196.362 251.921,197.082 251.561,197.849 251.417 C 198.615 251.273,199.337 250.908,199.453 250.606 C 199.569 250.303,200.190 249.873,200.832 249.649 C 201.474 249.425,202.000 249.052,202.000 248.821 C 202.000 248.589,202.272 248.400,202.604 248.400 C 202.936 248.400,203.516 248.040,203.893 247.600 C 204.270 247.160,204.789 246.800,205.047 246.800 C 205.305 246.800,205.940 246.353,206.458 245.807 C 206.976 245.261,207.600 244.811,207.845 244.807 C 209.254 244.785,225.200 228.753,225.200 227.359 C 225.200 227.067,225.548 226.642,225.973 226.414 C 226.398 226.187,226.871 225.596,227.024 225.100 C 227.490 223.589,228.516 222.741,229.000 223.468 C 229.220 223.798,229.715 224.440,230.100 224.895 " stroke="none" fill="#040404" fill-rule="evenodd"></path></g></svg>