<svg id="svg" version="1.1" width="400" height="400" viewBox="0 0 400 400" xmlns="http://www.w3.org/2000/svg" xmlns:xlink="http://www.w3.org/1999/xlink" ><g id="svgg"><path id="path0" d="M196.200 106.575 C 195.100 106.872,193.242 107.242,192.072 107.399 C 190.901 107.555,189.854 107.914,189.746 108.197 C 189.638 108.479,189.006 108.819,188.342 108.952 C 187.678 109.084,186.675 109.555,186.114 109.996 C 185.552 110.438,184.846 110.800,184.546 110.800 C 184.246 110.800,184.000 111.070,184.000 111.400 C 184.000 111.730,183.748 112.000,183.440 112.000 C 182.762 112.000,180.000 114.690,180.000 115.351 C 180.000 115.610,179.640 116.130,179.200 116.507 C 178.760 116.884,178.400 117.445,178.400 117.753 C 178.400 118.062,178.140 118.414,177.822 118.536 C 177.504 118.658,177.124 119.397,176.978 120.179 C 176.831 120.961,176.572 121.600,176.403 121.600 C 175.991 121.600,175.200 124.819,175.200 126.497 C 175.200 127.236,175.001 128.039,174.759 128.281 C 174.288 128.752,174.401 130.759,175.157 135.347 C 175.593 137.989,175.875 138.774,177.333 141.400 C 177.699 142.060,178.219 143.095,178.487 143.700 C 178.756 144.305,179.206 144.800,179.488 144.800 C 179.769 144.800,180.000 145.055,180.000 145.366 C 180.000 146.043,182.256 148.433,183.856 149.452 C 184.485 149.853,185.136 150.396,185.302 150.659 C 185.469 150.922,186.144 151.256,186.802 151.401 C 187.461 151.545,188.000 151.800,188.000 151.968 C 188.000 152.135,188.765 152.501,189.700 152.782 C 190.635 153.062,191.760 153.439,192.200 153.619 C 192.923 153.916,195.048 154.204,199.302 154.584 C 200.127 154.658,200.903 154.557,201.025 154.359 C 201.147 154.162,202.216 154.000,203.400 154.000 C 204.584 154.000,205.664 153.820,205.800 153.600 C 205.936 153.380,206.405 153.200,206.842 153.200 C 207.279 153.200,208.482 152.750,209.515 152.200 C 210.548 151.650,211.611 151.200,211.877 151.200 C 212.143 151.200,212.504 150.971,212.680 150.690 C 212.856 150.410,213.515 149.853,214.144 149.452 C 215.744 148.433,218.000 146.043,218.000 145.366 C 218.000 145.055,218.231 144.800,218.512 144.800 C 218.794 144.800,219.244 144.305,219.513 143.700 C 219.781 143.095,220.300 142.060,220.665 141.400 C 221.780 139.387,222.000 138.840,222.000 138.085 C 222.000 137.686,222.162 137.189,222.359 136.980 C 223.069 136.229,223.841 128.596,223.244 128.227 C 223.000 128.076,222.800 127.164,222.800 126.200 C 222.800 125.236,222.620 124.336,222.400 124.200 C 222.180 124.064,222.000 123.423,222.000 122.776 C 222.000 122.129,221.840 121.600,221.645 121.600 C 221.449 121.600,221.169 120.961,221.022 120.179 C 220.876 119.397,220.496 118.658,220.178 118.536 C 219.860 118.414,219.600 118.135,219.600 117.915 C 219.600 117.695,219.150 116.981,218.600 116.327 C 218.050 115.673,217.600 114.882,217.600 114.569 C 217.600 114.256,217.342 114.000,217.027 114.000 C 216.712 114.000,216.340 113.640,216.200 113.200 C 216.060 112.760,215.701 112.400,215.402 112.400 C 215.102 112.400,214.561 112.104,214.200 111.742 C 213.013 110.556,210.908 109.287,209.676 109.017 C 209.011 108.871,208.375 108.511,208.262 108.217 C 208.147 107.918,207.120 107.564,205.928 107.414 C 204.758 107.266,203.260 106.990,202.600 106.800 C 200.220 106.117,198.163 106.045,196.200 106.575 M150.860 157.098 C 148.957 157.175,147.151 157.468,146.660 157.779 C 146.187 158.079,144.450 158.441,142.800 158.584 C 141.150 158.727,139.440 158.992,139.000 159.172 C 136.405 160.236,135.872 160.400,135.005 160.400 C 134.478 160.400,133.958 160.544,133.849 160.721 C 133.740 160.897,132.739 161.290,131.625 161.593 C 130.511 161.896,129.600 162.292,129.600 162.472 C 129.600 162.653,129.238 162.800,128.795 162.800 C 127.989 162.800,127.703 162.911,125.338 164.143 C 124.644 164.504,123.863 164.800,123.601 164.800 C 123.340 164.800,122.669 165.160,122.109 165.600 C 121.550 166.040,120.776 166.400,120.389 166.400 C 120.002 166.400,119.582 166.670,119.455 167.000 C 119.329 167.330,118.984 167.600,118.690 167.600 C 118.396 167.600,117.545 168.050,116.800 168.600 C 116.055 169.150,115.163 169.600,114.819 169.600 C 114.474 169.600,113.968 169.960,113.693 170.400 C 113.418 170.840,112.940 171.200,112.630 171.200 C 112.320 171.200,112.007 171.358,111.933 171.552 C 111.860 171.745,111.244 172.240,110.565 172.652 C 108.076 174.160,106.082 175.919,100.600 181.440 C 94.517 187.567,94.577 187.499,92.704 190.291 C 91.258 192.447,90.892 192.936,89.900 194.029 C 89.515 194.453,89.200 195.063,89.200 195.384 C 89.200 195.706,88.855 196.291,88.432 196.684 C 88.010 197.078,87.537 197.910,87.381 198.532 C 87.225 199.155,86.861 199.755,86.573 199.866 C 86.285 199.976,85.936 200.579,85.799 201.206 C 85.661 201.832,85.302 202.550,85.000 202.800 C 84.698 203.050,84.338 203.770,84.200 204.400 C 84.062 205.030,83.690 205.759,83.374 206.021 C 83.058 206.283,82.800 206.764,82.800 207.089 C 82.800 207.644,81.985 209.743,81.166 211.295 C 80.965 211.677,80.800 212.264,80.800 212.600 C 80.800 212.936,80.639 213.523,80.443 213.905 C 80.246 214.287,79.860 215.590,79.586 216.800 C 79.311 218.010,78.943 219.094,78.768 219.208 C 78.593 219.323,78.326 220.853,78.174 222.608 C 78.021 224.364,77.652 226.083,77.352 226.428 C 76.103 227.866,76.120 246.800,77.370 246.800 C 77.675 246.800,78.616 247.141,79.462 247.558 C 80.308 247.974,81.810 248.547,82.800 248.830 C 83.790 249.113,84.788 249.483,85.017 249.652 C 85.247 249.822,86.687 250.081,88.217 250.227 C 89.748 250.373,91.399 250.742,91.886 251.046 C 93.150 251.836,105.300 251.843,105.954 251.055 C 106.219 250.736,107.686 250.394,109.492 250.230 C 111.189 250.076,112.763 249.819,112.989 249.659 C 113.215 249.498,114.120 249.137,115.000 248.856 C 116.786 248.286,119.679 247.015,121.200 246.131 C 121.750 245.812,122.515 245.451,122.900 245.329 C 123.285 245.207,123.600 244.967,123.600 244.797 C 123.600 244.626,124.095 244.363,124.700 244.211 C 125.305 244.059,126.122 243.590,126.516 243.168 C 126.909 242.745,127.494 242.400,127.816 242.400 C 128.137 242.400,128.400 242.150,128.400 241.843 C 128.400 241.537,128.805 241.184,129.300 241.058 C 129.795 240.932,131.438 239.624,132.951 238.151 L 135.702 235.474 135.902 232.837 C 136.011 231.387,136.325 229.930,136.598 229.600 C 136.872 229.270,137.218 227.744,137.368 226.209 C 137.518 224.674,137.885 223.144,138.184 222.809 C 138.482 222.474,138.852 221.177,139.006 219.926 C 139.160 218.676,139.511 217.566,139.786 217.461 C 140.062 217.355,140.406 216.525,140.551 215.617 C 140.696 214.708,140.992 213.613,141.208 213.183 C 141.423 212.752,141.780 212.042,142.000 211.605 C 142.220 211.168,142.400 210.538,142.400 210.205 C 142.400 209.872,142.544 209.600,142.720 209.600 C 142.895 209.600,143.267 208.970,143.546 208.200 C 143.824 207.430,144.200 206.800,144.381 206.800 C 144.563 206.800,144.831 206.161,144.978 205.379 C 145.124 204.597,145.487 203.865,145.783 203.751 C 146.079 203.638,146.439 202.918,146.583 202.151 C 146.727 201.385,147.092 200.663,147.394 200.547 C 147.697 200.431,148.127 199.810,148.351 199.168 C 148.575 198.526,148.948 198.000,149.179 198.000 C 149.411 198.000,149.600 197.728,149.600 197.396 C 149.600 197.064,149.960 196.484,150.400 196.107 C 150.840 195.730,151.200 195.211,151.200 194.953 C 151.200 194.695,151.647 194.060,152.193 193.542 C 152.739 193.024,153.189 192.400,153.193 192.155 C 153.200 191.724,154.960 189.634,158.900 185.376 C 159.945 184.247,160.800 183.115,160.800 182.861 C 160.800 182.608,161.008 182.400,161.261 182.400 C 161.515 182.400,162.645 181.545,163.771 180.500 C 167.627 176.924,170.200 174.803,170.686 174.802 C 170.953 174.801,171.358 174.452,171.586 174.027 C 171.813 173.602,172.404 173.130,172.900 172.977 C 174.685 172.429,175.398 171.255,174.218 170.807 C 173.658 170.594,173.200 170.255,173.200 170.053 C 173.200 169.852,172.750 169.574,172.200 169.436 C 171.650 169.298,171.200 168.918,171.200 168.592 C 171.200 168.267,170.994 168.000,170.743 168.000 C 169.710 168.000,162.012 160.702,162.004 159.714 C 162.002 159.447,161.640 159.035,161.200 158.800 C 160.760 158.565,160.400 158.127,160.400 157.829 C 160.400 156.770,159.896 156.732,150.860 157.098 M238.171 157.087 C 237.935 157.259,237.625 157.715,237.483 158.100 C 237.341 158.485,236.949 158.800,236.613 158.800 C 236.276 158.800,235.998 159.115,235.996 159.500 C 235.989 160.658,228.441 168.000,227.257 168.000 C 227.006 168.000,226.800 168.250,226.800 168.557 C 226.800 168.863,226.350 169.226,225.800 169.364 C 225.250 169.502,224.800 169.796,224.800 170.018 C 224.800 170.239,224.348 170.591,223.797 170.801 C 222.720 171.210,223.432 172.800,224.692 172.800 C 224.974 172.800,225.597 173.250,226.075 173.800 C 226.553 174.350,227.157 174.800,227.417 174.800 C 228.791 174.800,244.800 190.811,244.800 192.185 C 244.800 192.447,245.250 193.083,245.800 193.600 C 246.350 194.117,246.800 194.738,246.800 194.981 C 246.800 195.224,247.160 195.730,247.600 196.107 C 248.040 196.484,248.400 197.064,248.400 197.396 C 248.400 197.728,248.589 198.000,248.821 198.000 C 249.052 198.000,249.425 198.526,249.649 199.168 C 249.873 199.810,250.303 200.431,250.606 200.547 C 250.908 200.663,251.273 201.385,251.417 202.151 C 251.561 202.918,251.921 203.638,252.217 203.751 C 252.513 203.865,252.876 204.597,253.022 205.379 C 253.169 206.161,253.415 206.800,253.570 206.800 C 253.724 206.800,254.098 207.430,254.400 208.200 C 254.702 208.970,255.096 209.600,255.275 209.600 C 255.454 209.600,255.600 209.922,255.600 210.315 C 255.600 210.709,255.964 211.744,256.410 212.615 C 256.855 213.487,257.331 214.890,257.466 215.734 C 257.602 216.578,257.938 217.355,258.214 217.461 C 258.489 217.566,258.840 218.676,258.994 219.926 C 259.148 221.177,259.518 222.474,259.816 222.809 C 260.115 223.144,260.482 224.674,260.632 226.209 C 260.782 227.744,261.128 229.270,261.402 229.600 C 261.675 229.930,261.989 231.387,262.098 232.837 L 262.298 235.474 265.049 238.151 C 266.562 239.624,268.205 240.932,268.700 241.058 C 269.195 241.184,269.600 241.537,269.600 241.843 C 269.600 242.150,269.863 242.400,270.184 242.400 C 270.506 242.400,271.091 242.745,271.484 243.168 C 271.878 243.590,272.695 244.059,273.300 244.211 C 273.905 244.363,274.400 244.626,274.400 244.797 C 274.400 244.967,274.715 245.207,275.100 245.329 C 275.485 245.451,276.250 245.820,276.800 246.149 C 277.350 246.478,278.385 246.983,279.100 247.271 C 279.815 247.559,280.400 247.908,280.400 248.047 C 280.400 248.185,281.075 248.409,281.900 248.545 C 282.725 248.681,283.902 249.057,284.516 249.381 C 285.130 249.705,286.974 250.091,288.613 250.240 C 290.340 250.396,291.783 250.739,292.046 251.055 C 292.700 251.843,304.850 251.836,306.114 251.046 C 306.601 250.742,308.201 250.378,309.670 250.238 C 311.138 250.098,312.848 249.719,313.470 249.394 C 314.091 249.070,315.230 248.685,316.000 248.539 C 316.770 248.393,317.990 247.942,318.712 247.537 C 319.434 247.132,320.285 246.800,320.605 246.800 C 321.883 246.800,321.914 228.304,320.640 226.284 C 320.333 225.798,319.960 224.019,319.810 222.331 C 319.638 220.399,319.345 219.188,319.019 219.063 C 318.728 218.951,318.373 217.839,318.212 216.532 C 318.053 215.249,317.798 214.020,317.645 213.800 C 317.492 213.580,317.137 212.680,316.856 211.800 C 316.575 210.920,315.975 209.390,315.522 208.400 C 314.444 206.043,314.099 205.228,313.618 203.900 C 313.399 203.295,313.055 202.800,312.854 202.800 C 312.653 202.800,312.374 202.187,312.234 201.439 C 312.093 200.690,311.736 199.984,311.441 199.871 C 311.145 199.757,310.775 199.155,310.619 198.532 C 310.463 197.910,309.990 197.078,309.568 196.684 C 309.145 196.291,308.800 195.706,308.800 195.384 C 308.800 195.063,308.485 194.453,308.100 194.029 C 306.860 192.662,306.397 192.041,305.551 190.607 C 305.094 189.833,304.559 189.200,304.360 189.200 C 304.162 189.200,304.000 189.022,304.000 188.805 C 304.000 187.495,292.491 176.137,288.200 173.210 C 287.100 172.460,286.140 171.701,286.067 171.523 C 285.993 171.345,285.680 171.200,285.370 171.200 C 285.060 171.200,284.582 170.840,284.307 170.400 C 284.032 169.960,283.526 169.600,283.181 169.600 C 282.837 169.600,281.945 169.150,281.200 168.600 C 280.455 168.050,279.604 167.600,279.310 167.600 C 279.016 167.600,278.679 167.350,278.562 167.045 C 278.445 166.740,277.842 166.388,277.223 166.265 C 276.603 166.141,275.818 165.760,275.477 165.420 C 275.136 165.079,274.647 164.800,274.390 164.800 C 274.134 164.800,273.356 164.504,272.662 164.143 C 270.297 162.911,270.011 162.800,269.205 162.800 C 268.762 162.800,268.400 162.659,268.400 162.487 C 268.400 162.315,267.545 161.929,266.500 161.629 C 265.455 161.329,264.420 160.955,264.200 160.797 C 263.980 160.640,263.134 160.409,262.320 160.284 C 261.507 160.159,260.247 159.785,259.520 159.453 C 258.794 159.121,256.760 158.727,255.000 158.578 C 253.240 158.429,251.530 158.079,251.200 157.800 C 250.509 157.216,238.867 156.579,238.171 157.087 M195.800 186.135 C 194.920 186.611,194.140 187.135,194.067 187.300 C 193.993 187.465,193.613 187.600,193.221 187.600 C 192.829 187.600,192.079 187.935,191.554 188.345 C 191.029 188.755,190.150 189.231,189.600 189.402 C 189.050 189.574,188.365 190.049,188.077 190.457 C 187.790 190.866,187.335 191.200,187.066 191.200 C 186.798 191.200,186.270 191.560,185.893 192.000 C 185.516 192.440,184.936 192.800,184.604 192.800 C 184.272 192.800,184.000 193.070,184.000 193.400 C 184.000 193.730,183.711 194.000,183.357 194.000 C 182.561 194.000,171.200 205.425,171.200 206.226 C 171.200 206.546,170.840 207.116,170.400 207.493 C 169.960 207.870,169.600 208.398,169.600 208.666 C 169.600 208.935,169.266 209.390,168.857 209.677 C 168.449 209.965,167.974 210.650,167.802 211.200 C 167.631 211.750,167.155 212.629,166.745 213.154 C 166.335 213.679,166.000 214.429,166.000 214.821 C 166.000 215.213,165.775 215.624,165.500 215.735 C 165.135 215.882,165.150 215.945,165.556 215.968 C 165.862 215.986,166.312 215.726,166.557 215.391 C 166.802 215.056,167.722 214.681,168.601 214.559 C 169.481 214.436,170.605 214.171,171.100 213.968 C 171.595 213.766,172.405 213.432,172.900 213.227 C 173.395 213.022,174.340 212.763,175.000 212.651 C 177.194 212.280,178.592 211.943,179.400 211.591 C 179.840 211.399,181.100 211.139,182.200 211.013 C 186.756 210.492,187.819 210.305,188.180 209.961 C 188.713 209.455,207.486 209.492,207.800 210.000 C 207.936 210.220,209.016 210.400,210.200 210.400 C 211.384 210.400,212.464 210.580,212.600 210.800 C 212.736 211.020,213.816 211.200,215.000 211.200 C 216.184 211.200,217.264 211.380,217.400 211.600 C 217.536 211.820,218.256 212.000,219.000 212.000 C 219.744 212.000,220.464 212.180,220.600 212.400 C 220.736 212.620,221.456 212.800,222.200 212.800 C 222.944 212.800,223.664 212.980,223.800 213.200 C 223.936 213.420,224.476 213.600,225.000 213.600 C 225.524 213.600,226.049 213.756,226.167 213.946 C 226.284 214.136,227.037 214.399,227.840 214.529 C 228.643 214.659,229.592 215.020,229.950 215.331 C 230.714 215.994,232.800 216.444,232.800 215.945 C 232.800 215.755,232.620 215.600,232.400 215.600 C 232.180 215.600,232.000 215.264,232.000 214.854 C 232.000 214.444,231.665 213.679,231.255 213.154 C 230.845 212.629,230.369 211.750,230.198 211.200 C 230.026 210.650,229.551 209.965,229.143 209.677 C 228.734 209.390,228.400 208.935,228.400 208.666 C 228.400 208.398,228.040 207.870,227.600 207.493 C 227.160 207.116,226.800 206.546,226.800 206.226 C 226.800 205.248,214.392 193.084,212.937 192.635 C 212.462 192.489,211.973 192.106,211.850 191.785 C 211.726 191.463,211.360 191.200,211.035 191.200 C 210.711 191.200,210.210 190.866,209.923 190.457 C 209.635 190.049,208.950 189.574,208.400 189.402 C 207.850 189.231,206.971 188.755,206.446 188.345 C 205.921 187.935,205.156 187.600,204.746 187.600 C 204.336 187.600,204.000 187.442,204.000 187.249 C 204.000 187.055,203.415 186.680,202.700 186.415 C 201.985 186.150,201.087 185.768,200.705 185.567 C 199.576 184.971,197.513 185.210,195.800 186.135 M191.800 232.755 C 189.820 232.906,187.840 233.225,187.400 233.465 C 186.960 233.705,185.340 234.030,183.800 234.188 C 182.260 234.346,180.730 234.704,180.400 234.984 C 180.070 235.263,178.913 235.607,177.829 235.748 C 176.745 235.889,175.571 236.265,175.219 236.583 C 174.867 236.901,173.830 237.282,172.914 237.428 C 171.999 237.575,171.160 237.926,171.052 238.209 C 170.943 238.493,170.257 238.855,169.527 239.014 C 168.797 239.174,167.771 239.641,167.246 240.052 C 166.721 240.463,165.956 240.800,165.546 240.800 C 165.136 240.800,164.800 240.936,164.800 241.102 C 164.800 241.269,164.215 241.661,163.500 241.973 C 162.785 242.286,161.965 242.870,161.677 243.271 C 161.390 243.672,160.895 244.000,160.577 244.000 C 160.260 244.000,160.000 244.159,160.000 244.353 C 160.000 244.548,159.640 244.801,159.200 244.916 C 158.681 245.052,158.400 245.462,158.400 246.083 C 158.400 246.609,158.202 247.238,157.961 247.479 C 157.685 247.755,157.607 248.789,157.753 250.259 C 158.132 254.097,158.737 261.708,158.770 263.057 C 158.813 264.868,162.012 265.063,164.000 263.377 C 164.330 263.097,165.320 262.740,166.200 262.583 C 167.080 262.427,168.070 262.071,168.400 261.792 C 168.730 261.514,169.983 261.155,171.184 260.994 C 172.385 260.833,173.645 260.566,173.984 260.400 C 175.342 259.735,177.534 259.200,178.905 259.200 C 179.701 259.200,180.464 259.020,180.600 258.800 C 180.736 258.580,181.701 258.400,182.744 258.400 C 183.787 258.400,184.811 258.240,185.020 258.044 C 186.369 256.778,214.522 256.740,217.400 258.000 C 217.840 258.193,218.830 258.445,219.600 258.560 C 225.779 259.485,226.212 259.578,228.200 260.406 C 228.640 260.589,229.779 260.827,230.731 260.935 C 231.683 261.044,232.763 261.394,233.131 261.713 C 233.499 262.032,234.605 262.416,235.590 262.566 C 236.574 262.716,237.700 263.128,238.092 263.483 C 239.156 264.447,239.167 264.392,239.662 255.267 L 240.121 246.804 239.071 245.902 C 236.891 244.029,235.653 243.200,235.037 243.200 C 234.687 243.200,234.400 243.020,234.400 242.800 C 234.400 242.580,234.164 242.400,233.875 242.400 C 233.587 242.400,232.964 242.040,232.492 241.600 C 232.020 241.160,231.380 240.800,231.071 240.800 C 230.761 240.800,230.079 240.467,229.554 240.061 C 229.029 239.655,228.060 239.191,227.400 239.030 C 226.740 238.869,225.930 238.506,225.600 238.223 C 225.270 237.939,224.460 237.579,223.800 237.423 C 223.140 237.266,222.330 236.904,222.000 236.618 C 221.670 236.332,220.500 235.972,219.400 235.818 C 218.300 235.664,217.035 235.304,216.590 235.019 C 216.144 234.733,214.618 234.365,213.199 234.200 C 211.780 234.035,209.964 233.669,209.164 233.387 C 207.393 232.763,196.774 232.376,191.800 232.755 M197.571 279.761 C 197.445 279.888,194.574 280.193,191.189 280.440 C 187.561 280.705,184.701 281.103,184.218 281.411 C 183.768 281.699,182.190 282.059,180.711 282.212 C 179.233 282.365,177.825 282.729,177.583 283.020 C 177.342 283.311,176.178 283.670,174.998 283.818 C 173.788 283.969,172.763 284.319,172.647 284.621 C 172.534 284.915,171.758 285.282,170.921 285.436 C 168.056 285.963,166.851 288.120,168.967 288.932 C 169.315 289.066,169.600 289.541,169.600 289.987 C 169.600 290.434,169.850 290.800,170.157 290.800 C 170.463 290.800,170.825 291.244,170.961 291.786 C 171.097 292.328,171.611 293.211,172.104 293.748 C 173.610 295.388,175.200 297.292,175.200 297.454 C 175.200 297.682,178.427 301.188,179.728 302.372 C 180.349 302.938,181.871 304.345,183.110 305.500 C 184.349 306.655,185.496 307.600,185.659 307.600 C 185.822 307.600,186.640 308.238,187.478 309.017 C 188.315 309.797,189.495 310.539,190.100 310.667 C 190.705 310.795,191.200 311.139,191.200 311.432 C 191.200 311.724,191.830 312.082,192.600 312.226 C 193.402 312.377,194.000 312.726,194.000 313.045 C 194.000 313.350,194.318 313.600,194.707 313.600 C 195.096 313.600,196.077 314.050,196.886 314.600 C 197.695 315.150,198.541 315.600,198.765 315.600 C 198.988 315.600,199.978 315.150,200.963 314.600 C 201.948 314.050,203.034 313.600,203.377 313.600 C 203.720 313.600,204.000 313.330,204.000 313.000 C 204.000 312.667,204.356 312.400,204.800 312.400 C 205.240 312.400,205.934 312.066,206.342 311.658 C 206.750 311.250,207.516 310.807,208.044 310.675 C 208.572 310.542,209.633 309.802,210.402 309.030 C 211.171 308.257,211.980 307.619,212.200 307.611 C 212.510 307.600,216.203 304.349,218.912 301.704 C 220.180 300.466,222.800 297.467,222.800 297.254 C 222.800 297.110,223.160 296.768,223.600 296.493 C 224.040 296.218,224.400 295.789,224.400 295.540 C 224.400 295.291,224.936 294.574,225.591 293.948 C 226.246 293.322,226.892 292.371,227.027 291.834 C 227.162 291.297,227.526 290.761,227.836 290.641 C 228.146 290.522,228.400 290.156,228.400 289.827 C 228.400 289.497,228.745 289.043,229.167 288.817 C 229.590 288.591,230.062 287.820,230.218 287.103 C 230.373 286.386,230.703 285.668,230.950 285.506 C 231.217 285.332,231.054 285.210,230.549 285.206 C 230.081 285.203,229.487 284.946,229.229 284.635 C 228.971 284.324,227.878 283.948,226.800 283.800 C 225.722 283.652,224.646 283.297,224.409 283.011 C 224.172 282.725,222.767 282.362,221.289 282.205 C 219.810 282.049,218.150 281.676,217.600 281.377 C 216.221 280.629,198.159 279.172,197.571 279.761 " stroke="none" fill="#fabd06" fill-rule="evenodd"></path><path id="path1" d="M153.400 56.666 C 152.960 56.789,152.467 57.119,152.305 57.400 C 152.143 57.681,151.534 58.030,150.952 58.176 C 149.898 58.441,148.439 59.836,148.413 60.604 C 148.406 60.826,148.040 61.232,147.600 61.507 C 147.160 61.782,146.800 62.275,146.800 62.603 C 146.800 62.932,146.620 63.200,146.400 63.200 C 146.180 63.200,146.000 63.623,146.000 64.140 C 146.000 64.657,145.799 65.656,145.554 66.359 C 145.087 67.700,145.809 72.400,146.483 72.400 C 146.657 72.400,146.800 72.760,146.800 73.200 C 146.800 73.640,146.980 74.000,147.200 74.000 C 147.420 74.000,147.600 74.262,147.600 74.582 C 147.600 75.227,149.420 77.200,150.015 77.200 C 150.223 77.200,150.618 77.560,150.893 78.000 C 151.168 78.440,151.699 78.800,152.073 78.800 C 152.447 78.800,152.851 78.959,152.971 79.153 C 153.091 79.348,154.182 79.630,155.395 79.782 C 156.812 79.959,157.600 80.246,157.600 80.584 C 157.600 80.874,158.230 81.229,159.000 81.374 C 159.775 81.519,160.400 81.876,160.400 82.174 C 160.400 82.471,161.025 82.828,161.800 82.974 C 162.638 83.131,163.200 83.470,163.200 83.818 C 163.200 84.138,163.528 84.400,163.928 84.400 C 164.328 84.400,165.047 84.850,165.525 85.400 C 166.003 85.950,166.756 86.400,167.197 86.400 C 167.639 86.400,168.000 86.565,168.000 86.767 C 168.000 87.243,170.773 90.125,171.762 90.676 C 172.476 91.075,172.452 91.146,171.362 91.841 C 170.723 92.248,170.110 92.694,170.000 92.831 C 169.890 92.968,169.395 93.294,168.900 93.554 C 168.405 93.815,168.000 94.271,168.000 94.567 C 168.000 94.864,167.640 95.201,167.200 95.316 C 166.760 95.431,166.400 95.791,166.400 96.116 C 166.400 96.441,166.040 96.801,165.600 96.916 C 165.160 97.031,164.800 97.412,164.800 97.763 C 164.800 98.113,164.524 98.400,164.187 98.400 C 163.851 98.400,163.471 98.670,163.345 99.000 C 163.218 99.330,162.886 99.600,162.606 99.600 C 162.326 99.600,161.873 100.140,161.600 100.800 C 161.327 101.460,160.973 102.000,160.814 102.000 C 160.656 102.000,160.187 102.630,159.772 103.400 C 159.357 104.170,158.913 104.800,158.784 104.800 C 158.655 104.800,158.302 105.430,158.000 106.200 C 157.698 106.970,157.304 107.600,157.125 107.600 C 156.946 107.600,156.800 107.960,156.800 108.400 C 156.800 108.840,156.634 109.200,156.432 109.200 C 156.229 109.200,155.937 109.775,155.783 110.477 C 155.629 111.180,155.260 111.998,154.963 112.294 C 154.666 112.591,154.305 113.726,154.160 114.817 C 154.003 116.002,153.695 116.800,153.395 116.800 C 153.080 116.800,152.796 117.658,152.634 119.100 C 152.171 123.230,151.935 124.400,151.565 124.400 C 151.364 124.400,151.200 126.470,151.200 129.000 L 151.200 133.600 149.800 133.600 C 149.030 133.600,148.400 133.765,148.400 133.967 C 148.400 134.169,147.185 134.434,145.700 134.555 C 140.326 134.995,138.400 135.281,138.400 135.637 C 138.400 135.837,137.691 136.000,136.824 136.000 C 135.957 136.000,135.136 136.180,135.000 136.400 C 134.864 136.620,134.043 136.800,133.176 136.800 C 132.309 136.800,131.600 136.980,131.600 137.200 C 131.600 137.420,131.060 137.600,130.400 137.600 C 129.740 137.600,129.200 137.757,129.200 137.948 C 129.200 138.140,128.137 138.417,126.837 138.564 C 125.445 138.722,124.389 139.051,124.269 139.366 C 124.156 139.659,123.255 140.021,122.267 140.169 C 121.279 140.317,120.377 140.682,120.263 140.979 C 120.149 141.277,119.311 141.646,118.400 141.800 C 117.489 141.954,116.656 142.311,116.547 142.593 C 116.439 142.875,115.635 143.220,114.760 143.360 C 113.885 143.500,113.067 143.881,112.942 144.207 C 112.817 144.533,112.446 144.800,112.118 144.800 C 111.373 144.800,108.771 146.003,108.098 146.659 C 107.821 146.928,107.236 147.262,106.798 147.401 C 106.359 147.540,106.000 147.822,106.000 148.027 C 106.000 148.232,105.640 148.400,105.200 148.400 C 104.760 148.400,104.400 148.558,104.400 148.750 C 104.400 148.942,103.860 149.208,103.200 149.340 C 102.531 149.474,102.000 149.836,102.000 150.158 C 102.000 150.476,101.460 150.855,100.800 151.000 C 100.140 151.145,99.600 151.500,99.600 151.788 C 99.600 152.077,99.155 152.425,98.612 152.561 C 98.068 152.698,97.432 153.167,97.197 153.605 C 96.963 154.042,96.418 154.400,95.986 154.400 C 95.554 154.400,95.200 154.670,95.200 155.000 C 95.200 155.330,94.924 155.600,94.587 155.600 C 94.251 155.600,93.871 155.870,93.745 156.200 C 93.618 156.530,93.280 156.800,92.994 156.800 C 92.708 156.800,91.640 157.610,90.621 158.600 C 89.603 159.590,88.596 160.400,88.385 160.400 C 88.173 160.400,88.000 160.670,88.000 161.000 C 88.000 161.330,87.813 161.600,87.585 161.600 C 87.038 161.600,81.200 167.429,81.200 167.976 C 81.200 168.209,80.930 168.400,80.600 168.400 C 80.270 168.400,80.000 168.573,80.000 168.785 C 80.000 168.996,79.190 170.003,78.200 171.021 C 77.210 172.040,76.400 173.108,76.400 173.394 C 76.400 173.680,76.130 174.018,75.800 174.145 C 75.470 174.271,75.200 174.651,75.200 174.987 C 75.200 175.324,74.930 175.600,74.600 175.600 C 74.258 175.600,74.000 175.960,74.000 176.437 C 74.000 176.930,73.680 177.359,73.223 177.478 C 72.771 177.596,72.339 178.167,72.191 178.841 C 72.051 179.478,71.695 180.000,71.400 180.000 C 71.105 180.000,70.745 180.540,70.600 181.200 C 70.455 181.860,70.076 182.400,69.758 182.400 C 69.436 182.400,69.074 182.931,68.940 183.600 C 68.808 184.260,68.543 184.800,68.350 184.800 C 68.158 184.800,68.000 185.160,68.000 185.600 C 68.000 186.040,67.820 186.400,67.600 186.400 C 67.380 186.400,67.200 186.668,67.200 186.997 C 67.200 187.325,66.840 187.818,66.400 188.093 C 65.960 188.368,65.600 188.799,65.600 189.050 C 65.600 189.302,65.331 190.024,65.002 190.654 C 64.674 191.284,64.404 192.096,64.402 192.457 C 64.401 192.819,64.133 193.217,63.807 193.342 C 63.481 193.467,63.098 194.296,62.956 195.185 C 62.807 196.119,62.477 196.800,62.173 196.800 C 61.859 196.800,61.541 197.519,61.379 198.600 C 61.215 199.692,60.901 200.400,60.579 200.400 C 60.251 200.400,59.947 201.124,59.782 202.300 C 59.635 203.345,59.264 204.400,58.957 204.644 C 58.651 204.888,58.288 205.968,58.152 207.044 C 58.015 208.120,57.673 209.186,57.392 209.414 C 56.932 209.788,56.333 212.345,55.733 216.500 C 55.613 217.325,55.372 218.000,55.195 218.000 C 54.887 218.000,54.643 219.671,54.156 225.100 C 54.033 226.475,53.767 227.600,53.566 227.600 C 53.353 227.600,53.200 232.771,53.200 240.000 C 53.200 248.000,53.342 252.400,53.600 252.400 C 53.825 252.400,54.000 253.525,54.000 254.976 C 54.000 256.393,54.180 257.664,54.400 257.800 C 54.620 257.936,54.800 258.499,54.800 259.052 C 54.800 260.087,55.614 261.200,56.371 261.200 C 56.607 261.200,56.800 261.380,56.800 261.600 C 56.800 261.820,57.070 262.000,57.400 262.000 C 57.730 262.000,58.000 262.180,58.000 262.400 C 58.000 262.620,58.360 262.800,58.800 262.800 C 59.240 262.800,59.600 262.977,59.600 263.192 C 59.600 263.408,60.037 263.694,60.571 263.828 C 61.105 263.963,61.636 264.316,61.750 264.614 C 61.864 264.912,62.597 265.276,63.379 265.422 C 64.174 265.572,64.800 265.927,64.800 266.229 C 64.800 266.526,65.520 266.963,66.400 267.200 C 67.280 267.437,68.000 267.783,68.000 267.968 C 68.000 268.153,68.810 268.509,69.800 268.758 C 70.790 269.008,71.600 269.381,71.600 269.588 C 71.600 269.794,72.275 270.072,73.100 270.204 C 73.925 270.336,74.913 270.614,75.295 270.822 C 75.677 271.030,76.352 271.200,76.795 271.200 C 77.238 271.200,77.600 271.360,77.600 271.556 C 77.600 271.752,78.275 272.027,79.100 272.168 C 82.730 272.786,83.200 272.905,83.200 273.208 C 83.200 273.539,84.553 273.710,92.400 274.366 C 97.406 274.785,109.498 274.489,109.837 273.940 C 109.953 273.753,110.937 273.600,112.024 273.600 C 113.111 273.600,114.000 273.420,114.000 273.200 C 114.000 272.980,114.720 272.800,115.600 272.800 C 116.480 272.800,117.200 272.620,117.200 272.400 C 117.200 272.180,117.920 272.000,118.800 272.000 C 119.680 272.000,120.400 271.820,120.400 271.600 C 120.400 271.380,120.762 271.200,121.205 271.200 C 121.648 271.200,122.323 271.030,122.705 270.822 C 123.087 270.614,124.075 270.336,124.900 270.204 C 125.836 270.054,126.400 269.745,126.400 269.382 C 126.400 269.004,126.815 268.800,127.584 268.800 C 128.236 268.800,129.091 268.461,129.484 268.047 C 129.878 267.632,130.784 267.168,131.498 267.015 C 132.211 266.863,132.937 266.485,133.109 266.176 C 133.282 265.868,134.003 265.499,134.712 265.358 L 136.000 265.100 136.000 266.926 C 136.000 267.931,136.180 268.864,136.400 269.000 C 136.620 269.136,136.800 270.047,136.800 271.024 C 136.800 272.001,136.960 272.800,137.155 272.800 C 137.530 272.800,137.771 273.749,138.497 278.100 C 138.766 279.714,139.144 280.800,139.436 280.800 C 139.718 280.800,140.039 281.633,140.196 282.770 C 140.345 283.854,140.709 284.833,141.005 284.947 C 141.302 285.060,141.667 285.974,141.817 286.977 C 141.981 288.065,142.300 288.800,142.610 288.800 C 142.905 288.800,143.247 289.494,143.400 290.400 C 143.556 291.325,143.894 292.000,144.200 292.000 C 144.506 292.000,144.844 292.675,145.000 293.600 C 145.149 294.480,145.434 295.200,145.635 295.200 C 145.836 295.200,146.000 295.478,146.000 295.817 C 146.000 296.156,146.360 296.820,146.800 297.292 C 147.240 297.764,147.600 298.387,147.600 298.675 C 147.600 298.964,147.743 299.200,147.918 299.200 C 148.093 299.200,148.570 300.010,148.978 301.000 C 149.387 301.990,149.943 302.800,150.216 302.800 C 150.488 302.800,150.829 303.430,150.974 304.200 C 151.129 305.028,151.471 305.600,151.811 305.600 C 152.126 305.600,152.498 306.050,152.636 306.600 C 152.774 307.150,153.137 307.600,153.443 307.600 C 153.750 307.600,154.000 307.771,154.000 307.979 C 154.000 308.188,154.450 308.844,155.000 309.438 C 155.550 310.031,156.000 310.748,156.000 311.031 C 156.000 311.315,156.360 311.660,156.800 311.800 C 157.240 311.940,157.600 312.272,157.600 312.539 C 157.600 312.805,157.960 313.283,158.400 313.600 C 158.840 313.917,159.200 314.407,159.200 314.688 C 159.200 314.970,159.359 315.200,159.553 315.200 C 159.748 315.200,160.001 315.560,160.116 316.000 C 160.231 316.440,160.600 316.800,160.936 316.800 C 161.271 316.800,161.660 317.160,161.800 317.600 C 161.940 318.040,162.300 318.400,162.600 318.400 C 162.900 318.400,163.260 318.760,163.400 319.200 C 163.540 319.640,163.893 320.000,164.184 320.000 C 164.476 320.000,164.818 320.270,164.945 320.600 C 165.071 320.930,165.407 321.200,165.691 321.200 C 165.975 321.200,166.432 321.560,166.707 322.000 C 166.982 322.440,167.475 322.800,167.803 322.800 C 168.132 322.800,168.400 323.058,168.400 323.373 C 168.400 323.688,168.760 324.060,169.200 324.200 C 169.641 324.340,170.187 324.802,170.414 325.227 C 170.642 325.652,171.085 326.000,171.400 326.000 C 171.715 326.000,172.165 326.360,172.400 326.800 C 172.635 327.240,173.092 327.600,173.414 327.600 C 173.736 327.600,174.000 327.870,174.000 328.200 C 174.000 328.530,174.338 328.800,174.751 328.800 C 175.164 328.800,175.726 329.070,176.000 329.400 C 176.274 329.730,176.746 330.000,177.049 330.000 C 177.352 330.000,177.600 330.159,177.600 330.353 C 177.600 330.548,177.915 330.807,178.300 330.929 C 179.088 331.178,181.294 332.466,181.600 332.854 C 181.710 332.993,182.160 333.175,182.600 333.258 C 183.063 333.345,183.454 333.786,183.528 334.304 C 183.598 334.797,183.897 335.200,184.193 335.200 C 184.507 335.200,184.842 335.862,185.000 336.800 C 185.156 337.725,185.494 338.400,185.800 338.400 C 186.106 338.400,186.444 339.075,186.600 340.000 C 186.753 340.908,187.095 341.600,187.391 341.600 C 187.677 341.600,188.029 342.230,188.174 343.000 C 188.322 343.789,188.675 344.400,188.983 344.400 C 189.309 344.400,189.639 345.046,189.800 346.000 C 189.966 346.984,190.288 347.600,190.635 347.600 C 190.946 347.600,191.201 347.915,191.202 348.300 C 191.204 348.685,191.474 349.516,191.802 350.146 C 192.131 350.776,192.400 351.464,192.400 351.674 C 192.400 351.885,192.670 352.327,192.999 352.657 C 193.329 352.986,193.718 353.732,193.864 354.315 C 194.011 354.897,194.444 355.710,194.827 356.121 C 195.210 356.533,195.639 357.484,195.780 358.235 C 195.923 358.998,196.277 359.600,196.583 359.600 C 196.908 359.600,197.238 360.242,197.397 361.183 C 197.851 363.868,200.151 363.857,200.605 361.169 C 200.762 360.238,201.093 359.600,201.417 359.600 C 201.723 359.600,202.077 358.998,202.220 358.235 C 202.361 357.484,202.790 356.533,203.173 356.121 C 203.556 355.710,203.989 354.897,204.136 354.315 C 204.282 353.732,204.671 352.986,205.001 352.657 C 205.330 352.327,205.600 351.885,205.600 351.674 C 205.600 351.464,205.869 350.776,206.198 350.146 C 206.526 349.516,206.796 348.704,206.798 348.343 C 206.799 347.981,207.060 347.586,207.378 347.464 C 207.696 347.342,208.076 346.603,208.222 345.821 C 208.371 345.030,208.727 344.400,209.026 344.400 C 209.324 344.400,209.681 343.775,209.826 343.000 C 209.971 342.230,210.323 341.600,210.609 341.600 C 210.905 341.600,211.247 340.908,211.400 340.000 C 211.556 339.075,211.894 338.400,212.200 338.400 C 212.506 338.400,212.844 337.725,213.000 336.800 C 213.149 335.920,213.434 335.200,213.635 335.200 C 213.836 335.200,214.000 334.836,214.000 334.390 C 214.000 333.810,214.341 333.512,215.200 333.340 C 215.860 333.208,216.400 332.943,216.400 332.750 C 216.400 332.558,216.670 332.400,217.000 332.400 C 217.330 332.400,217.600 332.264,217.600 332.098 C 217.600 331.931,218.185 331.541,218.900 331.230 C 219.615 330.919,220.290 330.556,220.400 330.423 C 220.865 329.862,222.819 328.800,223.386 328.800 C 223.724 328.800,224.000 328.530,224.000 328.200 C 224.000 327.870,224.264 327.600,224.586 327.600 C 224.908 327.600,225.365 327.240,225.600 326.800 C 225.835 326.360,226.285 326.000,226.600 326.000 C 226.915 326.000,227.358 325.652,227.586 325.227 C 227.813 324.802,228.359 324.340,228.800 324.200 C 229.240 324.060,229.600 323.688,229.600 323.373 C 229.600 323.058,229.868 322.800,230.197 322.800 C 230.525 322.800,231.018 322.440,231.293 322.000 C 231.568 321.560,232.025 321.200,232.309 321.200 C 232.593 321.200,232.929 320.930,233.055 320.600 C 233.182 320.270,233.524 320.000,233.816 320.000 C 234.107 320.000,234.460 319.640,234.600 319.200 C 234.740 318.760,235.100 318.400,235.400 318.400 C 235.700 318.400,236.057 318.049,236.194 317.620 C 236.330 317.192,236.792 316.730,237.220 316.594 C 237.649 316.457,238.000 316.088,238.000 315.773 C 238.000 315.458,238.180 315.200,238.400 315.200 C 238.620 315.200,238.800 314.996,238.800 314.747 C 238.800 314.498,239.127 314.003,239.528 313.647 C 239.928 313.291,240.372 312.685,240.515 312.300 C 240.658 311.915,241.051 311.600,241.387 311.600 C 241.724 311.600,242.000 311.356,242.000 311.058 C 242.000 310.761,242.450 310.031,243.000 309.438 C 243.550 308.844,244.000 308.188,244.000 307.979 C 244.000 307.771,244.250 307.600,244.557 307.600 C 244.863 307.600,245.226 307.150,245.364 306.600 C 245.502 306.050,245.868 305.600,246.176 305.600 C 246.484 305.600,246.865 305.015,247.022 304.300 C 247.179 303.586,247.612 302.731,247.984 302.400 C 248.356 302.070,248.916 301.215,249.228 300.500 C 249.540 299.785,249.931 299.200,250.098 299.200 C 250.264 299.200,250.400 298.964,250.400 298.675 C 250.400 298.387,250.760 297.764,251.200 297.292 C 251.640 296.820,252.000 296.156,252.000 295.817 C 252.000 295.478,252.164 295.200,252.365 295.200 C 252.566 295.200,252.851 294.480,253.000 293.600 C 253.156 292.675,253.494 292.000,253.800 292.000 C 254.106 292.000,254.444 291.325,254.600 290.400 C 254.753 289.494,255.095 288.800,255.390 288.800 C 255.700 288.800,256.019 288.065,256.183 286.977 C 256.333 285.974,256.698 285.060,256.995 284.947 C 257.291 284.833,257.655 283.854,257.804 282.770 C 257.983 281.472,258.267 280.800,258.638 280.800 C 258.956 280.800,259.197 280.410,259.193 279.900 C 259.182 278.482,260.537 272.800,260.886 272.800 C 261.059 272.800,261.200 272.001,261.200 271.024 C 261.200 270.047,261.380 269.136,261.600 269.000 C 261.820 268.864,262.000 267.931,262.000 266.926 L 262.000 265.100 263.288 265.358 C 263.997 265.499,264.718 265.868,264.891 266.176 C 265.063 266.485,265.789 266.863,266.502 267.015 C 267.216 267.168,268.122 267.632,268.516 268.047 C 268.909 268.461,269.764 268.800,270.416 268.800 C 271.185 268.800,271.600 269.004,271.600 269.382 C 271.600 269.745,272.164 270.054,273.100 270.204 C 273.925 270.336,274.913 270.614,275.295 270.822 C 275.677 271.030,276.352 271.200,276.795 271.200 C 277.238 271.200,277.600 271.380,277.600 271.600 C 277.600 271.820,278.320 272.000,279.200 272.000 C 280.080 272.000,280.800 272.180,280.800 272.400 C 280.800 272.620,281.430 272.800,282.200 272.800 C 282.970 272.800,283.600 272.980,283.600 273.200 C 283.600 273.420,284.579 273.600,285.776 273.600 C 286.973 273.600,288.047 273.753,288.163 273.940 C 288.900 275.133,314.800 274.379,314.800 273.164 C 314.800 272.964,315.329 272.800,315.976 272.800 C 316.623 272.800,317.264 272.620,317.400 272.400 C 317.536 272.180,318.267 272.000,319.024 272.000 C 319.781 272.000,320.400 271.820,320.400 271.600 C 320.400 271.380,320.762 271.200,321.205 271.200 C 321.648 271.200,322.323 271.030,322.705 270.822 C 323.087 270.614,324.075 270.336,324.900 270.204 C 325.725 270.072,326.400 269.794,326.400 269.588 C 326.400 269.381,327.210 269.008,328.200 268.758 C 329.190 268.509,330.000 268.153,330.000 267.968 C 330.000 267.783,330.729 267.434,331.621 267.194 C 332.512 266.954,333.335 266.514,333.450 266.215 C 333.564 265.917,334.140 265.551,334.729 265.404 C 335.318 265.256,336.122 264.790,336.516 264.368 C 336.909 263.945,337.494 263.600,337.816 263.600 C 338.137 263.600,338.400 263.420,338.400 263.200 C 338.400 262.980,338.720 262.800,339.112 262.800 C 339.503 262.800,340.083 262.440,340.400 262.000 C 340.717 261.560,341.220 261.200,341.517 261.200 C 342.358 261.200,343.200 260.154,343.200 259.109 C 343.200 258.587,343.415 257.945,343.677 257.683 C 344.349 257.011,344.619 231.163,344.009 226.000 C 343.761 223.910,343.462 221.255,343.343 220.100 C 343.223 218.945,342.982 218.000,342.805 218.000 C 342.628 218.000,342.371 217.235,342.232 216.300 C 341.613 212.117,341.495 211.600,341.158 211.600 C 340.961 211.600,340.800 211.161,340.800 210.624 C 340.800 210.087,340.646 209.552,340.457 209.435 C 340.269 209.319,340.005 208.297,339.870 207.166 C 339.736 206.034,339.370 204.904,339.056 204.654 C 338.742 204.404,338.365 203.345,338.218 202.300 C 338.053 201.124,337.749 200.400,337.421 200.400 C 337.099 200.400,336.785 199.692,336.621 198.600 C 336.459 197.519,336.141 196.800,335.827 196.800 C 335.523 196.800,335.193 196.119,335.044 195.185 C 334.902 194.296,334.519 193.467,334.193 193.342 C 333.867 193.217,333.599 192.819,333.598 192.457 C 333.596 192.096,333.326 191.284,332.998 190.654 C 332.669 190.024,332.400 189.302,332.400 189.050 C 332.400 188.799,332.040 188.368,331.600 188.093 C 331.160 187.818,330.800 187.325,330.800 186.997 C 330.800 186.668,330.620 186.400,330.400 186.400 C 330.180 186.400,330.000 186.040,330.000 185.600 C 330.000 185.160,329.843 184.800,329.650 184.800 C 329.457 184.800,329.192 184.260,329.060 183.600 C 328.928 182.940,328.568 182.400,328.260 182.400 C 327.952 182.400,327.592 181.860,327.460 181.200 C 327.326 180.531,326.964 180.000,326.642 180.000 C 326.324 180.000,325.949 179.478,325.809 178.841 C 325.661 178.167,325.229 177.596,324.777 177.478 C 324.320 177.359,324.000 176.930,324.000 176.437 C 324.000 175.977,323.751 175.600,323.447 175.600 C 323.142 175.600,322.799 175.240,322.684 174.800 C 322.569 174.360,322.188 174.000,321.837 174.000 C 321.485 174.000,321.200 173.671,321.200 173.262 C 321.200 172.856,320.210 171.502,319.000 170.253 C 317.790 169.004,316.800 167.893,316.800 167.784 C 316.800 167.398,310.806 161.600,310.406 161.600 C 310.183 161.600,310.000 161.330,310.000 161.000 C 310.000 160.670,309.827 160.400,309.615 160.400 C 309.404 160.400,308.397 159.590,307.379 158.600 C 306.360 157.610,305.292 156.800,305.006 156.800 C 304.720 156.800,304.382 156.530,304.255 156.200 C 304.129 155.870,303.749 155.600,303.413 155.600 C 303.076 155.600,302.800 155.330,302.800 155.000 C 302.800 154.670,302.506 154.400,302.146 154.400 C 301.786 154.400,301.075 153.950,300.565 153.400 C 300.055 152.850,299.270 152.400,298.819 152.400 C 298.362 152.400,298.000 152.138,298.000 151.808 C 298.000 151.482,297.545 151.101,296.989 150.962 C 296.434 150.822,295.797 150.369,295.575 149.954 C 295.353 149.539,294.818 149.200,294.386 149.200 C 293.954 149.200,293.600 149.020,293.600 148.800 C 293.600 148.580,293.240 148.400,292.800 148.400 C 292.360 148.400,292.000 148.220,292.000 148.000 C 292.000 147.780,291.764 147.600,291.475 147.600 C 291.187 147.600,290.564 147.240,290.092 146.800 C 289.620 146.360,288.990 146.000,288.693 146.000 C 288.396 146.000,287.804 145.736,287.376 145.413 C 286.949 145.090,286.304 144.820,285.943 144.813 C 285.581 144.806,285.182 144.530,285.055 144.200 C 284.929 143.870,284.472 143.600,284.041 143.600 C 283.610 143.600,282.995 143.338,282.674 143.017 C 282.354 142.697,281.216 142.224,280.146 141.966 C 279.076 141.709,278.005 141.258,277.767 140.964 C 277.529 140.671,276.569 140.309,275.633 140.159 C 274.697 140.009,273.844 139.658,273.737 139.379 C 273.628 139.097,272.491 138.750,271.171 138.597 C 269.867 138.445,268.800 138.159,268.800 137.961 C 268.800 137.762,268.260 137.600,267.600 137.600 C 266.940 137.600,266.400 137.420,266.400 137.200 C 266.400 136.980,265.691 136.800,264.824 136.800 C 263.957 136.800,263.136 136.620,263.000 136.400 C 262.864 136.180,262.043 136.000,261.176 136.000 C 260.309 136.000,259.600 135.837,259.600 135.637 C 259.600 135.281,257.674 134.995,252.300 134.555 C 250.815 134.434,249.600 134.169,249.600 133.967 C 249.600 133.765,248.970 133.600,248.200 133.600 L 246.800 133.600 246.800 129.000 C 246.800 126.470,246.636 124.400,246.435 124.400 C 246.065 124.400,245.829 123.230,245.366 119.100 C 245.204 117.658,244.920 116.800,244.605 116.800 C 244.305 116.800,243.997 116.002,243.840 114.817 C 243.695 113.726,243.334 112.591,243.037 112.294 C 242.740 111.998,242.371 111.180,242.217 110.477 C 242.062 109.772,241.682 109.200,241.368 109.200 C 241.056 109.200,240.800 108.912,240.800 108.560 C 240.800 107.936,239.726 105.398,239.124 104.600 C 238.958 104.380,238.368 103.679,237.811 103.042 C 237.255 102.404,236.800 101.736,236.800 101.555 C 236.800 101.034,234.253 98.400,233.749 98.400 C 233.499 98.400,233.199 98.040,233.084 97.600 C 232.969 97.160,232.609 96.800,232.284 96.800 C 231.959 96.800,231.599 96.440,231.484 96.000 C 231.369 95.560,230.988 95.200,230.637 95.200 C 230.287 95.200,230.000 94.936,230.000 94.614 C 230.000 94.292,229.595 93.815,229.100 93.554 C 228.605 93.294,228.110 92.968,228.000 92.831 C 227.890 92.694,227.277 92.248,226.638 91.841 C 225.548 91.146,225.524 91.075,226.238 90.676 C 227.227 90.125,230.000 87.243,230.000 86.767 C 230.000 86.565,230.329 86.400,230.730 86.400 C 231.132 86.400,231.883 85.950,232.400 85.400 C 232.917 84.850,233.668 84.400,234.070 84.400 C 234.471 84.400,234.800 84.144,234.800 83.832 C 234.800 83.519,235.340 83.145,236.000 83.000 C 236.660 82.855,237.200 82.497,237.200 82.203 C 237.200 81.893,237.869 81.557,238.800 81.400 C 239.696 81.249,240.400 80.904,240.400 80.616 C 240.400 80.320,241.121 79.989,242.100 79.835 C 244.588 79.445,246.528 78.698,247.123 77.901 C 247.410 77.515,247.807 77.200,248.004 77.200 C 248.585 77.200,250.400 75.216,250.400 74.582 C 250.400 74.262,250.580 74.000,250.800 74.000 C 251.020 74.000,251.200 73.640,251.200 73.200 C 251.200 72.760,251.343 72.400,251.517 72.400 C 252.191 72.400,252.913 67.700,252.446 66.359 C 252.201 65.656,252.000 64.657,252.000 64.140 C 252.000 63.623,251.820 63.200,251.600 63.200 C 251.380 63.200,251.200 62.932,251.200 62.603 C 251.200 62.275,250.840 61.782,250.400 61.507 C 249.960 61.232,249.600 60.807,249.600 60.562 C 249.600 59.999,247.215 58.000,246.543 58.000 C 246.266 58.000,245.863 57.685,245.647 57.300 C 245.078 56.286,235.742 56.245,235.177 57.255 C 234.970 57.626,234.034 58.024,233.006 58.178 C 231.921 58.341,231.200 58.658,231.200 58.973 C 231.200 59.277,230.519 59.607,229.585 59.756 C 228.696 59.898,227.871 60.270,227.751 60.583 C 227.631 60.895,227.008 61.266,226.367 61.407 C 225.725 61.548,225.200 61.899,225.200 62.187 C 225.200 62.475,224.575 62.828,223.811 62.972 C 223.047 63.115,222.282 63.450,222.111 63.716 C 221.794 64.209,220.681 64.989,219.600 65.475 C 219.270 65.623,218.709 66.072,218.353 66.472 C 217.997 66.873,217.502 67.200,217.253 67.200 C 217.004 67.200,216.800 67.380,216.800 67.600 C 216.800 67.820,216.622 68.000,216.405 68.000 C 215.820 68.000,214.400 69.305,214.400 69.842 C 214.400 70.098,214.040 70.401,213.600 70.516 C 213.160 70.631,212.800 70.991,212.800 71.316 C 212.800 71.641,212.440 72.001,212.000 72.116 C 211.560 72.231,211.200 72.591,211.200 72.916 C 211.200 73.241,210.840 73.601,210.400 73.716 C 209.960 73.831,209.600 74.212,209.600 74.563 C 209.600 74.913,209.404 75.200,209.164 75.200 C 208.489 75.200,206.400 77.324,206.400 78.010 C 206.400 78.348,206.040 78.883,205.600 79.200 C 205.160 79.517,204.800 79.997,204.800 80.266 C 204.800 80.535,204.473 80.990,204.074 81.277 C 203.674 81.565,203.230 82.115,203.086 82.500 C 202.863 83.098,202.286 83.199,199.113 83.194 C 194.825 83.187,194.509 83.034,193.325 80.400 C 193.177 80.070,192.728 79.509,192.328 79.153 C 191.927 78.797,191.600 78.301,191.600 78.049 C 191.600 77.445,189.439 75.200,188.857 75.200 C 188.606 75.200,188.400 74.913,188.400 74.563 C 188.400 74.212,188.040 73.831,187.600 73.716 C 187.160 73.601,186.800 73.241,186.800 72.916 C 186.800 72.591,186.440 72.231,186.000 72.116 C 185.560 72.001,185.200 71.641,185.200 71.316 C 185.200 70.991,184.840 70.631,184.400 70.516 C 183.960 70.401,183.600 70.098,183.600 69.842 C 183.600 69.305,182.180 68.000,181.595 68.000 C 181.378 68.000,181.200 67.820,181.200 67.600 C 181.200 67.380,180.996 67.200,180.747 67.200 C 180.498 67.200,180.000 66.885,179.641 66.500 C 178.871 65.674,177.666 64.867,176.728 64.549 C 176.358 64.424,175.962 64.079,175.849 63.783 C 175.735 63.486,175.003 63.124,174.221 62.978 C 173.403 62.824,172.800 62.475,172.800 62.155 C 172.800 61.850,172.438 61.600,171.996 61.600 C 171.554 61.600,170.880 61.235,170.498 60.789 C 170.116 60.343,169.128 59.870,168.302 59.738 C 167.470 59.605,166.800 59.268,166.800 58.984 C 166.800 58.690,166.073 58.351,165.100 58.192 C 164.165 58.038,163.086 57.635,162.701 57.296 C 161.980 56.659,155.099 56.193,153.400 56.666 M202.600 106.800 C 203.260 106.990,204.758 107.266,205.928 107.414 C 207.120 107.564,208.147 107.918,208.262 108.217 C 208.375 108.511,209.011 108.871,209.676 109.017 C 210.908 109.287,213.013 110.556,214.200 111.742 C 214.561 112.104,215.102 112.400,215.402 112.400 C 215.701 112.400,216.060 112.760,216.200 113.200 C 216.340 113.640,216.712 114.000,217.027 114.000 C 217.342 114.000,217.600 114.256,217.600 114.569 C 217.600 114.882,218.050 115.673,218.600 116.327 C 219.150 116.981,219.600 117.695,219.600 117.915 C 219.600 118.135,219.860 118.414,220.178 118.536 C 220.496 118.658,220.876 119.397,221.022 120.179 C 221.169 120.961,221.449 121.600,221.645 121.600 C 221.840 121.600,222.000 122.129,222.000 122.776 C 222.000 123.423,222.180 124.064,222.400 124.200 C 222.620 124.336,222.800 125.236,222.800 126.200 C 222.800 127.164,223.000 128.076,223.244 128.227 C 223.841 128.596,223.069 136.229,222.359 136.980 C 222.162 137.189,222.000 137.686,222.000 138.085 C 222.000 138.840,221.780 139.387,220.665 141.400 C 220.300 142.060,219.781 143.095,219.513 143.700 C 219.244 144.305,218.794 144.800,218.512 144.800 C 218.231 144.800,218.000 145.055,218.000 145.366 C 218.000 146.043,215.744 148.433,214.144 149.452 C 213.515 149.853,212.856 150.410,212.680 150.690 C 212.504 150.971,212.143 151.200,211.877 151.200 C 211.611 151.200,210.548 151.650,209.515 152.200 C 208.482 152.750,207.279 153.200,206.842 153.200 C 206.405 153.200,205.936 153.380,205.800 153.600 C 205.664 153.820,204.584 154.000,203.400 154.000 C 202.216 154.000,201.147 154.162,201.025 154.359 C 200.903 154.557,200.127 154.658,199.302 154.584 C 195.048 154.204,192.923 153.916,192.200 153.619 C 191.760 153.439,190.635 153.062,189.700 152.782 C 188.765 152.501,188.000 152.135,188.000 151.968 C 188.000 151.800,187.461 151.545,186.802 151.401 C 186.144 151.256,185.469 150.922,185.302 150.659 C 185.136 150.396,184.485 149.853,183.856 149.452 C 182.256 148.433,180.000 146.043,180.000 145.366 C 180.000 145.055,179.769 144.800,179.488 144.800 C 179.206 144.800,178.756 144.305,178.487 143.700 C 178.219 143.095,177.699 142.060,177.333 141.400 C 175.875 138.774,175.593 137.989,175.157 135.347 C 174.401 130.759,174.288 128.752,174.759 128.281 C 175.001 128.039,175.200 127.236,175.200 126.497 C 175.200 124.819,175.991 121.600,176.403 121.600 C 176.572 121.600,176.831 120.961,176.978 120.179 C 177.124 119.397,177.504 118.658,177.822 118.536 C 178.140 118.414,178.400 118.062,178.400 117.753 C 178.400 117.445,178.760 116.884,179.200 116.507 C 179.640 116.130,180.000 115.610,180.000 115.351 C 180.000 114.690,182.762 112.000,183.440 112.000 C 183.748 112.000,184.000 111.730,184.000 111.400 C 184.000 111.070,184.246 110.800,184.546 110.800 C 184.846 110.800,185.552 110.438,186.114 109.996 C 186.675 109.555,187.678 109.084,188.342 108.952 C 189.006 108.819,189.638 108.479,189.746 108.197 C 189.854 107.914,190.901 107.555,192.072 107.399 C 193.242 107.242,195.100 106.872,196.200 106.575 C 198.163 106.045,200.220 106.117,202.600 106.800 M159.767 157.043 C 160.115 157.176,160.400 157.530,160.400 157.829 C 160.400 158.127,160.760 158.565,161.200 158.800 C 161.640 159.035,162.002 159.447,162.004 159.714 C 162.012 160.702,169.710 168.000,170.743 168.000 C 170.994 168.000,171.200 168.267,171.200 168.592 C 171.200 168.918,171.650 169.298,172.200 169.436 C 172.750 169.574,173.200 169.852,173.200 170.053 C 173.200 170.255,173.658 170.594,174.218 170.807 C 175.398 171.255,174.685 172.429,172.900 172.977 C 172.404 173.130,171.813 173.602,171.586 174.027 C 171.358 174.452,170.953 174.801,170.686 174.802 C 170.200 174.803,167.627 176.924,163.771 180.500 C 162.645 181.545,161.515 182.400,161.261 182.400 C 161.008 182.400,160.800 182.608,160.800 182.861 C 160.800 183.115,159.945 184.247,158.900 185.376 C 154.960 189.634,153.200 191.724,153.193 192.155 C 153.189 192.400,152.739 193.024,152.193 193.542 C 151.647 194.060,151.200 194.695,151.200 194.953 C 151.200 195.211,150.840 195.730,150.400 196.107 C 149.960 196.484,149.600 197.064,149.600 197.396 C 149.600 197.728,149.411 198.000,149.179 198.000 C 148.948 198.000,148.575 198.526,148.351 199.168 C 148.127 199.810,147.697 200.431,147.394 200.547 C 147.092 200.663,146.727 201.385,146.583 202.151 C 146.439 202.918,146.079 203.638,145.783 203.751 C 145.487 203.865,145.124 204.597,144.978 205.379 C 144.831 206.161,144.563 206.800,144.381 206.800 C 144.200 206.800,143.824 207.430,143.546 208.200 C 143.267 208.970,142.895 209.600,142.720 209.600 C 142.544 209.600,142.400 209.872,142.400 210.205 C 142.400 210.538,142.220 211.168,142.000 211.605 C 141.780 212.042,141.423 212.752,141.208 213.183 C 140.992 213.613,140.696 214.708,140.551 215.617 C 140.406 216.525,140.062 217.355,139.786 217.461 C 139.511 217.566,139.160 218.676,139.006 219.926 C 138.852 221.177,138.482 222.474,138.184 222.809 C 137.885 223.144,137.518 224.674,137.368 226.209 C 137.218 227.744,136.872 229.270,136.598 229.600 C 136.325 229.930,136.011 231.387,135.902 232.837 L 135.702 235.474 132.951 238.151 C 131.438 239.624,129.795 240.932,129.300 241.058 C 128.805 241.184,128.400 241.537,128.400 241.843 C 128.400 242.150,128.137 242.400,127.816 242.400 C 127.494 242.400,126.909 242.745,126.516 243.168 C 126.122 243.590,125.305 244.059,124.700 244.211 C 124.095 244.363,123.600 244.626,123.600 244.797 C 123.600 244.967,123.285 245.207,122.900 245.329 C 122.515 245.451,121.750 245.812,121.200 246.131 C 119.679 247.015,116.786 248.286,115.000 248.856 C 114.120 249.137,113.215 249.498,112.989 249.659 C 112.763 249.819,111.189 250.076,109.492 250.230 C 107.686 250.394,106.219 250.736,105.954 251.055 C 105.300 251.843,93.150 251.836,91.886 251.046 C 91.399 250.742,89.748 250.373,88.217 250.227 C 86.687 250.081,85.247 249.822,85.017 249.652 C 84.788 249.483,83.790 249.113,82.800 248.830 C 81.810 248.547,80.308 247.974,79.462 247.558 C 78.616 247.141,77.675 246.800,77.370 246.800 C 76.120 246.800,76.103 227.866,77.352 226.428 C 77.652 226.083,78.021 224.364,78.174 222.608 C 78.326 220.853,78.593 219.323,78.768 219.208 C 78.943 219.094,79.311 218.010,79.586 216.800 C 79.860 215.590,80.246 214.287,80.443 213.905 C 80.639 213.523,80.800 212.936,80.800 212.600 C 80.800 212.264,80.965 211.677,81.166 211.295 C 81.985 209.743,82.800 207.644,82.800 207.089 C 82.800 206.764,83.058 206.283,83.374 206.021 C 83.690 205.759,84.062 205.030,84.200 204.400 C 84.338 203.770,84.698 203.050,85.000 202.800 C 85.302 202.550,85.661 201.832,85.799 201.206 C 85.936 200.579,86.285 199.976,86.573 199.866 C 86.861 199.755,87.225 199.155,87.381 198.532 C 87.537 197.910,88.010 197.078,88.432 196.684 C 88.855 196.291,89.200 195.706,89.200 195.384 C 89.200 195.063,89.515 194.453,89.900 194.029 C 90.892 192.936,91.258 192.447,92.704 190.291 C 94.577 187.499,94.517 187.567,100.600 181.440 C 106.082 175.919,108.076 174.160,110.565 172.652 C 111.244 172.240,111.860 171.745,111.933 171.552 C 112.007 171.358,112.320 171.200,112.630 171.200 C 112.940 171.200,113.418 170.840,113.693 170.400 C 113.968 169.960,114.474 169.600,114.819 169.600 C 115.163 169.600,116.055 169.150,116.800 168.600 C 117.545 168.050,118.396 167.600,118.690 167.600 C 118.984 167.600,119.329 167.330,119.455 167.000 C 119.582 166.670,120.002 166.400,120.389 166.400 C 120.776 166.400,121.550 166.040,122.109 165.600 C 122.669 165.160,123.340 164.800,123.601 164.800 C 123.863 164.800,124.644 164.504,125.338 164.143 C 127.703 162.911,127.989 162.800,128.795 162.800 C 129.238 162.800,129.600 162.653,129.600 162.472 C 129.600 162.292,130.511 161.896,131.625 161.593 C 132.739 161.290,133.740 160.897,133.849 160.721 C 133.958 160.544,134.478 160.400,135.005 160.400 C 135.872 160.400,136.405 160.236,139.000 159.172 C 139.440 158.992,141.150 158.727,142.800 158.584 C 144.450 158.441,146.187 158.079,146.660 157.779 C 147.449 157.279,149.097 157.131,156.667 156.881 C 158.024 156.837,159.419 156.909,159.767 157.043 M251.200 157.800 C 251.530 158.079,253.240 158.429,255.000 158.578 C 256.760 158.727,258.794 159.121,259.520 159.453 C 260.247 159.785,261.507 160.159,262.320 160.284 C 263.134 160.409,263.980 160.640,264.200 160.797 C 264.420 160.955,265.455 161.329,266.500 161.629 C 267.545 161.929,268.400 162.315,268.400 162.487 C 268.400 162.659,268.762 162.800,269.205 162.800 C 270.011 162.800,270.297 162.911,272.662 164.143 C 273.356 164.504,274.134 164.800,274.390 164.800 C 274.647 164.800,275.136 165.079,275.477 165.420 C 275.818 165.760,276.603 166.141,277.223 166.265 C 277.842 166.388,278.445 166.740,278.562 167.045 C 278.679 167.350,279.016 167.600,279.310 167.600 C 279.604 167.600,280.455 168.050,281.200 168.600 C 281.945 169.150,282.837 169.600,283.181 169.600 C 283.526 169.600,284.032 169.960,284.307 170.400 C 284.582 170.840,285.060 171.200,285.370 171.200 C 285.680 171.200,285.993 171.345,286.067 171.523 C 286.140 171.701,287.100 172.460,288.200 173.210 C 292.491 176.137,304.000 187.495,304.000 188.805 C 304.000 189.022,304.162 189.200,304.360 189.200 C 304.559 189.200,305.094 189.833,305.551 190.607 C 306.397 192.041,306.860 192.662,308.100 194.029 C 308.485 194.453,308.800 195.063,308.800 195.384 C 308.800 195.706,309.145 196.291,309.568 196.684 C 309.990 197.078,310.463 197.910,310.619 198.532 C 310.775 199.155,311.145 199.757,311.441 199.871 C 311.736 199.984,312.093 200.690,312.234 201.439 C 312.374 202.187,312.653 202.800,312.854 202.800 C 313.055 202.800,313.399 203.295,313.618 203.900 C 314.099 205.228,314.444 206.043,315.522 208.400 C 315.975 209.390,316.575 210.920,316.856 211.800 C 317.137 212.680,317.492 213.580,317.645 213.800 C 317.798 214.020,318.053 215.249,318.212 216.532 C 318.373 217.839,318.728 218.951,319.019 219.063 C 319.345 219.188,319.638 220.399,319.810 222.331 C 319.960 224.019,320.333 225.798,320.640 226.284 C 321.914 228.304,321.883 246.800,320.605 246.800 C 320.285 246.800,319.434 247.132,318.712 247.537 C 317.990 247.942,316.770 248.393,316.000 248.539 C 315.230 248.685,314.091 249.070,313.470 249.394 C 312.848 249.719,311.138 250.098,309.670 250.238 C 308.201 250.378,306.601 250.742,306.114 251.046 C 304.850 251.836,292.700 251.843,292.046 251.055 C 291.783 250.739,290.340 250.396,288.613 250.240 C 286.974 250.091,285.130 249.705,284.516 249.381 C 283.902 249.057,282.725 248.681,281.900 248.545 C 281.075 248.409,280.400 248.185,280.400 248.047 C 280.400 247.908,279.815 247.559,279.100 247.271 C 278.385 246.983,277.350 246.478,276.800 246.149 C 276.250 245.820,275.485 245.451,275.100 245.329 C 274.715 245.207,274.400 244.967,274.400 244.797 C 274.400 244.626,273.905 244.363,273.300 244.211 C 272.695 244.059,271.878 243.590,271.484 243.168 C 271.091 242.745,270.506 242.400,270.184 242.400 C 269.863 242.400,269.600 242.150,269.600 241.843 C 269.600 241.537,269.195 241.184,268.700 241.058 C 268.205 240.932,266.562 239.624,265.049 238.151 L 262.298 235.474 262.098 232.837 C 261.989 231.387,261.675 229.930,261.402 229.600 C 261.128 229.270,260.782 227.744,260.632 226.209 C 260.482 224.674,260.115 223.144,259.816 222.809 C 259.518 222.474,259.148 221.177,258.994 219.926 C 258.840 218.676,258.489 217.566,258.214 217.461 C 257.938 217.355,257.602 216.578,257.466 215.734 C 257.331 214.890,256.855 213.487,256.410 212.615 C 255.964 211.744,255.600 210.709,255.600 210.315 C 255.600 209.922,255.454 209.600,255.275 209.600 C 255.096 209.600,254.702 208.970,254.400 208.200 C 254.098 207.430,253.724 206.800,253.570 206.800 C 253.415 206.800,253.169 206.161,253.022 205.379 C 252.876 204.597,252.513 203.865,252.217 203.751 C 251.921 203.638,251.561 202.918,251.417 202.151 C 251.273 201.385,250.908 200.663,250.606 200.547 C 250.303 200.431,249.873 199.810,249.649 199.168 C 249.425 198.526,249.052 198.000,248.821 198.000 C 248.589 198.000,248.400 197.728,248.400 197.396 C 248.400 197.064,248.040 196.484,247.600 196.107 C 247.160 195.730,246.800 195.224,246.800 194.981 C 246.800 194.738,246.350 194.117,245.800 193.600 C 245.250 193.083,244.800 192.447,244.800 192.185 C 244.800 190.811,228.791 174.800,227.417 174.800 C 227.157 174.800,226.553 174.350,226.075 173.800 C 225.597 173.250,224.974 172.800,224.692 172.800 C 223.432 172.800,222.720 171.210,223.797 170.801 C 224.348 170.591,224.800 170.239,224.800 170.018 C 224.800 169.796,225.250 169.502,225.800 169.364 C 226.350 169.226,226.800 168.863,226.800 168.557 C 226.800 168.250,227.006 168.000,227.257 168.000 C 228.441 168.000,235.989 160.658,235.996 159.500 C 235.998 159.115,236.276 158.800,236.613 158.800 C 236.949 158.800,237.341 158.485,237.483 158.100 C 237.625 157.715,237.935 157.259,238.171 157.087 C 238.867 156.579,250.509 157.216,251.200 157.800 M200.705 185.567 C 201.087 185.768,201.985 186.150,202.700 186.415 C 203.415 186.680,204.000 187.055,204.000 187.249 C 204.000 187.442,204.336 187.600,204.746 187.600 C 205.156 187.600,205.921 187.935,206.446 188.345 C 206.971 188.755,207.850 189.231,208.400 189.402 C 208.950 189.574,209.635 190.049,209.923 190.457 C 210.210 190.866,210.711 191.200,211.035 191.200 C 211.360 191.200,211.726 191.463,211.850 191.785 C 211.973 192.106,212.462 192.489,212.937 192.635 C 214.392 193.084,226.800 205.248,226.800 206.226 C 226.800 206.546,227.160 207.116,227.600 207.493 C 228.040 207.870,228.400 208.398,228.400 208.666 C 228.400 208.935,228.734 209.390,229.143 209.677 C 229.551 209.965,230.026 210.650,230.198 211.200 C 230.369 211.750,230.845 212.629,231.255 213.154 C 231.665 213.679,232.000 214.444,232.000 214.854 C 232.000 215.264,232.180 215.600,232.400 215.600 C 232.620 215.600,232.800 215.755,232.800 215.945 C 232.800 216.444,230.714 215.994,229.950 215.331 C 229.592 215.020,228.643 214.659,227.840 214.529 C 227.037 214.399,226.284 214.136,226.167 213.946 C 226.049 213.756,225.524 213.600,225.000 213.600 C 224.476 213.600,223.936 213.420,223.800 213.200 C 223.664 212.980,222.944 212.800,222.200 212.800 C 221.456 212.800,220.736 212.620,220.600 212.400 C 220.464 212.180,219.744 212.000,219.000 212.000 C 218.256 212.000,217.536 211.820,217.400 211.600 C 217.264 211.380,216.184 211.200,215.000 211.200 C 213.816 211.200,212.736 211.020,212.600 210.800 C 212.464 210.580,211.384 210.400,210.200 210.400 C 209.016 210.400,207.936 210.220,207.800 210.000 C 207.486 209.492,188.713 209.455,188.180 209.961 C 187.819 210.305,186.756 210.492,182.200 211.013 C 181.100 211.139,179.840 211.399,179.400 211.591 C 178.592 211.943,177.194 212.280,175.000 212.651 C 174.340 212.763,173.395 213.022,172.900 213.227 C 172.405 213.432,171.595 213.766,171.100 213.968 C 170.605 214.171,169.481 214.436,168.601 214.559 C 167.722 214.681,166.802 215.056,166.557 215.391 C 166.312 215.726,165.862 215.986,165.556 215.968 C 165.150 215.945,165.135 215.882,165.500 215.735 C 165.775 215.624,166.000 215.213,166.000 214.821 C 166.000 214.429,166.335 213.679,166.745 213.154 C 167.155 212.629,167.631 211.750,167.802 211.200 C 167.974 210.650,168.449 209.965,168.857 209.677 C 169.266 209.390,169.600 208.935,169.600 208.666 C 169.600 208.398,169.960 207.870,170.400 207.493 C 170.840 207.116,171.200 206.546,171.200 206.226 C 171.200 205.425,182.561 194.000,183.357 194.000 C 183.711 194.000,184.000 193.730,184.000 193.400 C 184.000 193.070,184.272 192.800,184.604 192.800 C 184.936 192.800,185.516 192.440,185.893 192.000 C 186.270 191.560,186.798 191.200,187.066 191.200 C 187.335 191.200,187.790 190.866,188.077 190.457 C 188.365 190.049,189.050 189.574,189.600 189.402 C 190.150 189.231,191.029 188.755,191.554 188.345 C 192.079 187.935,192.829 187.600,193.221 187.600 C 193.613 187.600,193.993 187.465,194.067 187.300 C 194.655 185.976,199.222 184.784,200.705 185.567 M209.164 233.387 C 209.964 233.669,211.780 234.035,213.199 234.200 C 214.618 234.365,216.144 234.733,216.590 235.019 C 217.035 235.304,218.300 235.664,219.400 235.818 C 220.500 235.972,221.670 236.332,222.000 236.618 C 222.330 236.904,223.140 237.266,223.800 237.423 C 224.460 237.579,225.270 237.939,225.600 238.223 C 225.930 238.506,226.740 238.869,227.400 239.030 C 228.060 239.191,229.029 239.655,229.554 240.061 C 230.079 240.467,230.761 240.800,231.071 240.800 C 231.380 240.800,232.020 241.160,232.492 241.600 C 232.964 242.040,233.587 242.400,233.875 242.400 C 234.164 242.400,234.400 242.580,234.400 242.800 C 234.400 243.020,234.687 243.200,235.037 243.200 C 235.653 243.200,236.891 244.029,239.071 245.902 L 240.121 246.804 239.662 255.267 C 239.167 264.392,239.156 264.447,238.092 263.483 C 237.700 263.128,236.574 262.716,235.590 262.566 C 234.605 262.416,233.499 262.032,233.131 261.713 C 232.763 261.394,231.683 261.044,230.731 260.935 C 229.779 260.827,228.640 260.589,228.200 260.406 C 226.212 259.578,225.779 259.485,219.600 258.560 C 218.830 258.445,217.840 258.193,217.400 258.000 C 214.522 256.740,186.369 256.778,185.020 258.044 C 184.811 258.240,183.787 258.400,182.744 258.400 C 181.701 258.400,180.736 258.580,180.600 258.800 C 180.464 259.020,179.701 259.200,178.905 259.200 C 177.534 259.200,175.342 259.735,173.984 260.400 C 173.645 260.566,172.385 260.833,171.184 260.994 C 169.983 261.155,168.730 261.514,168.400 261.792 C 168.070 262.071,167.080 262.427,166.200 262.583 C 165.320 262.740,164.330 263.097,164.000 263.377 C 162.012 265.063,158.813 264.868,158.770 263.057 C 158.737 261.708,158.132 254.097,157.753 250.259 C 157.607 248.789,157.685 247.755,157.961 247.479 C 158.202 247.238,158.400 246.609,158.400 246.083 C 158.400 245.462,158.681 245.052,159.200 244.916 C 159.640 244.801,160.000 244.548,160.000 244.353 C 160.000 244.159,160.260 244.000,160.577 244.000 C 160.895 244.000,161.390 243.672,161.677 243.271 C 161.965 242.870,162.785 242.286,163.500 241.973 C 164.215 241.661,164.800 241.269,164.800 241.102 C 164.800 240.936,165.136 240.800,165.546 240.800 C 165.956 240.800,166.721 240.463,167.246 240.052 C 167.771 239.641,168.797 239.174,169.527 239.014 C 170.257 238.855,170.943 238.493,171.052 238.209 C 171.160 237.926,171.999 237.575,172.914 237.428 C 173.830 237.282,174.867 236.901,175.219 236.583 C 175.571 236.265,176.745 235.889,177.829 235.748 C 178.913 235.607,180.070 235.263,180.400 234.984 C 180.730 234.704,182.260 234.346,183.800 234.188 C 185.340 234.030,186.960 233.705,187.400 233.465 C 189.383 232.385,206.152 232.325,209.164 233.387 M211.000 280.370 C 214.080 280.626,217.050 281.079,217.600 281.377 C 218.150 281.676,219.810 282.049,221.289 282.205 C 222.767 282.362,224.172 282.725,224.409 283.011 C 224.646 283.297,225.722 283.652,226.800 283.800 C 227.878 283.948,228.971 284.324,229.229 284.635 C 229.487 284.946,230.081 285.203,230.549 285.206 C 231.054 285.210,231.217 285.332,230.950 285.506 C 230.703 285.668,230.373 286.386,230.218 287.103 C 230.062 287.820,229.590 288.591,229.167 288.817 C 228.745 289.043,228.400 289.497,228.400 289.827 C 228.400 290.156,228.146 290.522,227.836 290.641 C 227.526 290.761,227.162 291.297,227.027 291.834 C 226.892 292.371,226.246 293.322,225.591 293.948 C 224.936 294.574,224.400 295.291,224.400 295.540 C 224.400 295.789,224.040 296.218,223.600 296.493 C 223.160 296.768,222.800 297.110,222.800 297.254 C 222.800 297.467,220.180 300.466,218.912 301.704 C 216.203 304.349,212.510 307.600,212.200 307.611 C 211.980 307.619,211.171 308.257,210.402 309.030 C 209.633 309.802,208.572 310.542,208.044 310.675 C 207.516 310.807,206.750 311.250,206.342 311.658 C 205.934 312.066,205.240 312.400,204.800 312.400 C 204.356 312.400,204.000 312.667,204.000 313.000 C 204.000 313.330,203.720 313.600,203.377 313.600 C 203.034 313.600,201.948 314.050,200.963 314.600 C 199.978 315.150,198.988 315.600,198.765 315.600 C 198.541 315.600,197.695 315.150,196.886 314.600 C 196.077 314.050,195.096 313.600,194.707 313.600 C 194.318 313.600,194.000 313.350,194.000 313.045 C 194.000 312.726,193.402 312.377,192.600 312.226 C 191.830 312.082,191.200 311.724,191.200 311.432 C 191.200 311.139,190.705 310.795,190.100 310.667 C 189.495 310.539,188.315 309.797,187.478 309.017 C 186.640 308.238,185.822 307.600,185.659 307.600 C 185.496 307.600,184.349 306.655,183.110 305.500 C 181.871 304.345,180.349 302.938,179.728 302.372 C 178.427 301.188,175.200 297.682,175.200 297.454 C 175.200 297.292,173.610 295.388,172.104 293.748 C 171.611 293.211,171.097 292.328,170.961 291.786 C 170.825 291.244,170.463 290.800,170.157 290.800 C 169.850 290.800,169.600 290.434,169.600 289.987 C 169.600 289.541,169.315 289.066,168.967 288.932 C 166.851 288.120,168.056 285.963,170.921 285.436 C 171.758 285.282,172.534 284.915,172.647 284.621 C 172.763 284.319,173.788 283.969,174.998 283.818 C 176.178 283.670,177.342 283.311,177.583 283.020 C 177.825 282.729,179.233 282.365,180.711 282.212 C 182.190 282.059,183.768 281.699,184.218 281.411 C 184.701 281.103,187.561 280.705,191.189 280.440 C 194.574 280.193,197.445 279.888,197.571 279.761 C 197.846 279.486,203.355 279.735,211.000 280.370 " stroke="none" fill="#040404" fill-rule="evenodd"></path></g></svg>